SplineFontDB: 3.2
FontName: notosanstamil
FullName: notosanstamil
FamilyName: notosanstamil
Weight: Regular
Copyright: Copyright 2022 The Noto Project Authors (https://github.com/notofonts/tamil)
Version: 2.004
ItalicAngle: 0
UnderlinePosition: -125
UnderlineWidth: 50
Ascent: 800
Descent: 200
InvalidEm: 0
sfntRevision: 0x00020106
LayerCount: 2
Layer: 0 1 "Back" 1
Layer: 1 1 "Fore" 0
XUID: [1021 238 -758118090 6954117]
StyleMap: 0x0040
FSType: 0
OS2Version: 4
OS2_WeightWidthSlopeOnly: 0
OS2_UseTypoMetrics: 1
CreationTime: 1485160965
ModificationTime: 1738533477
PfmFamily: 81
TTFWeight: 400
TTFWidth: 5
LineGap: 0
VLineGap: 0
Panose: 0 0 0 0 0 0 0 0 0 0
OS2TypoAscent: 870
OS2TypoAOffset: 0
OS2TypoDescent: -370
OS2TypoDOffset: 0
OS2TypoLinegap: 0
OS2WinAscent: 870
OS2WinAOffset: 0
OS2WinDescent: 370
OS2WinDOffset: 0
HheadAscent: 870
HheadAOffset: 0
HheadDescent: -370
HheadDOffset: 0
OS2SubXSize: 650
OS2SubYSize: 600
OS2SubXOff: 0
OS2SubYOff: 75
OS2SupXSize: 650
OS2SupYSize: 600
OS2SupXOff: 0
OS2SupYOff: 350
OS2StrikeYSize: 50
OS2StrikeYPos: 332
OS2CapHeight: 714
OS2XHeight: 554
OS2Vendor: 'GOOG'
OS2CodePages: 00000093.00000000
OS2UnicodeRanges: 80108003.02002043.00000000.00000000
Lookup: 4 0 0 "'abvs' Above Base Substitutions in Tamil2 lookup 0" { "'abvs' Above Base Substitutions in Tamil2 lookup 0 subtable"  } ['abvs' ('DFLT' <'dflt' > 'tml2' <'dflt' > ) ]
Lookup: 4 256 0 "'abvs' Above Base Substitutions in Tamil2 lookup 1" { "'abvs' Above Base Substitutions in Tamil2 lookup 1 subtable"  } ['abvs' ('DFLT' <'dflt' > 'tml2' <'dflt' > ) ]
Lookup: 4 0 0 "'akhn' Akhand in Tamil2 lookup 2" { "'akhn' Akhand in Tamil2 lookup 2 subtable"  } ['akhn' ('DFLT' <'dflt' > 'tml2' <'dflt' > ) ]
Lookup: 4 256 0 "'haln' Halant Forms in Tamil2 lookup 3" { "'haln' Halant Forms in Tamil2 lookup 3 subtable"  } ['haln' ('DFLT' <'dflt' > 'tml2' <'dflt' > ) ]

StartChar: .notdef
Encoding: 1114112 -1 0
Width: 600
Flags: W
LayerCount: 2
Fore
SplineSet
94 0 m 1,0,-1
 94 714 l 1,1,-1
 505 714 l 1,2,-1
 505 0 l 1,3,-1
 94 0 l 1,0,-1
145 51 m 1,4,-1
 454 51 l 1,5,-1
 454 663 l 1,6,-1
 145 663 l 1,7,-1
 145 51 l 1,4,-1
EndSplineSet
EndChar

StartChar: anusvaratamil
Encoding: 2946 2946 4
Width: 352
GlyphClass: 4
Flags: W
AnchorPoint: "Anchor-3" 176 -29 mark 0
AnchorPoint: "Anchor-0" 176 -29 mark 0
LayerCount: 2
Fore
SplineSet
56 722 m 256,0,1
 56 775 56 775 89.5 809 c 128,-1,2
 123 843 123 843 176 843 c 256,3,4
 229 843 229 843 262.5 809 c 128,-1,5
 296 775 296 775 296 722 c 256,6,7
 296 669 296 669 262.5 635.5 c 128,-1,8
 229 602 229 602 176 602 c 256,9,10
 123 602 123 602 89.5 635.5 c 128,-1,11
 56 669 56 669 56 722 c 256,0,1
116 722 m 0,12,13
 116 695 116 695 132.5 677.5 c 128,-1,14
 149 660 149 660 176 660 c 0,15,16
 202 660 202 660 219 677.5 c 128,-1,17
 236 695 236 695 236 722 c 0,18,19
 236 750 236 750 219 767.5 c 128,-1,20
 202 785 202 785 176 785 c 0,21,22
 149 785 149 785 132.5 767.5 c 128,-1,23
 116 750 116 750 116 722 c 0,12,13
EndSplineSet
Position2: "Single Positioning lookup 5 subtable" dx=0 dy=0 dh=-352 dv=0
EndChar

StartChar: visargatamil
Encoding: 2947 2947 5
Width: 896
Flags: W
LayerCount: 2
Fore
SplineSet
222 -11 m 0,0,1
 168 -11 168 -11 128 12 c 128,-1,2
 88 35 88 35 66.5 76.5 c 128,-1,3
 45 118 45 118 45 173 c 0,4,5
 45 229 45 229 67.5 269.5 c 128,-1,6
 90 310 90 310 129.5 332.5 c 128,-1,7
 169 355 169 355 220 355 c 0,8,9
 272 355 272 355 311 332.5 c 128,-1,10
 350 310 350 310 372 269 c 128,-1,11
 394 228 394 228 394 173 c 0,12,13
 394 117 394 117 372 75.5 c 128,-1,14
 350 34 350 34 311 11.5 c 128,-1,15
 272 -11 272 -11 222 -11 c 0,0,1
221 60 m 0,16,17
 259 60 259 60 285.5 88.5 c 128,-1,18
 312 117 312 117 312 174 c 0,19,20
 312 230 312 230 285 257 c 128,-1,21
 258 284 258 284 220 284 c 0,22,23
 180 284 180 284 153.5 256 c 128,-1,24
 127 228 127 228 127 172 c 0,25,26
 127 115 127 115 154 87.5 c 128,-1,27
 181 60 181 60 221 60 c 0,16,17
679 -11 m 0,28,29
 625 -11 625 -11 585.5 11.5 c 128,-1,30
 546 34 546 34 524 75.5 c 128,-1,31
 502 117 502 117 502 173 c 256,32,33
 502 229 502 229 524.5 269.5 c 128,-1,34
 547 310 547 310 586.5 332.5 c 128,-1,35
 626 355 626 355 677 355 c 0,36,37
 729 355 729 355 768 332.5 c 128,-1,38
 807 310 807 310 829 269 c 128,-1,39
 851 228 851 228 851 173 c 0,40,41
 851 117 851 117 829 75.5 c 128,-1,42
 807 34 807 34 768 11.5 c 128,-1,43
 729 -11 729 -11 679 -11 c 0,28,29
678 60 m 0,44,45
 716 60 716 60 742.5 88.5 c 128,-1,46
 769 117 769 117 769 174 c 0,47,48
 769 230 769 230 741.5 257 c 128,-1,49
 714 284 714 284 677 284 c 0,50,51
 637 284 637 284 610.5 256 c 128,-1,52
 584 228 584 228 584 172 c 0,53,54
 584 115 584 115 611 87.5 c 128,-1,55
 638 60 638 60 678 60 c 0,44,45
450 477 m 0,56,57
 396 477 396 477 356 499.5 c 128,-1,58
 316 522 316 522 294.5 563.5 c 128,-1,59
 273 605 273 605 273 661 c 256,60,61
 273 717 273 717 295.5 757.5 c 128,-1,62
 318 798 318 798 357.5 820.5 c 128,-1,63
 397 843 397 843 448 843 c 0,64,65
 500 843 500 843 539 820.5 c 128,-1,66
 578 798 578 798 600 757 c 128,-1,67
 622 716 622 716 622 661 c 0,68,69
 622 605 622 605 600 563.5 c 128,-1,70
 578 522 578 522 539 499.5 c 128,-1,71
 500 477 500 477 450 477 c 0,56,57
449 548 m 0,72,73
 487 548 487 548 513.5 576.5 c 128,-1,74
 540 605 540 605 540 662 c 0,75,76
 540 718 540 718 513 745 c 128,-1,77
 486 772 486 772 448 772 c 0,78,79
 408 772 408 772 381.5 744 c 128,-1,80
 355 716 355 716 355 660 c 0,81,82
 355 603 355 603 382 575.5 c 128,-1,83
 409 548 409 548 449 548 c 0,72,73
EndSplineSet
EndChar

StartChar: atamil
Encoding: 2949 2949 6
Width: 1121
GlyphClass: 2
Flags: W
AnchorPoint: "Anchor-1" 560 -29 basechar 0
AnchorPoint: "Anchor-0" 560 -29 basechar 0
LayerCount: 2
Fore
SplineSet
321 -124 m 2,0,1
 224 -124 224 -124 159 -100.5 c 128,-1,2
 94 -77 94 -77 61.5 -35.5 c 128,-1,3
 29 6 29 6 29 60 c 0,4,5
 29 85 29 85 40 109 c 128,-1,6
 51 133 51 133 74 149 c 0,7,8
 87 158 87 158 102 164 c 128,-1,9
 117 170 117 170 141.5 173 c 128,-1,10
 166 176 166 176 206 176 c 2,11,-1
 953 176 l 1,12,-1
 956 104 l 1,13,-1
 217 104 l 2,14,15
 186 104 186 104 169.5 103 c 128,-1,16
 153 102 153 102 145 99 c 128,-1,17
 137 96 137 96 129 90 c 0,18,19
 114 78 114 78 114 56 c 0,20,21
 114 7 114 7 167 -22 c 128,-1,22
 220 -51 220 -51 327 -51 c 2,23,-1
 344 -51 l 2,24,25
 445 -51 445 -51 517.5 -27.5 c 128,-1,26
 590 -4 590 -4 637.5 37 c 128,-1,27
 685 78 685 78 709 130 c 1,28,-1
 713 149 l 2,29,30
 722 174 722 174 726 199.5 c 128,-1,31
 730 225 730 225 730 251 c 0,32,33
 730 309 730 309 710 361 c 128,-1,34
 690 413 690 413 648.5 448.5 c 128,-1,35
 607 484 607 484 542 494 c 0,36,37
 529 496 529 496 517.5 496.5 c 128,-1,38
 506 497 506 497 493 497 c 0,39,40
 462 497 462 497 436 486 c 128,-1,41
 410 475 410 475 394.5 453 c 128,-1,42
 379 431 379 431 379 397 c 0,43,44
 379 360 379 360 401.5 334.5 c 128,-1,45
 424 309 424 309 465 309 c 0,46,47
 503 309 503 309 525.5 332.5 c 128,-1,48
 548 356 548 356 548 400 c 0,49,50
 548 433 548 433 537.5 459.5 c 128,-1,51
 527 486 527 486 501 510 c 1,52,-1
 558 527 l 1,53,54
 576 512 576 512 591.5 492 c 128,-1,55
 607 472 607 472 616.5 447.5 c 128,-1,56
 626 423 626 423 626 396 c 0,57,58
 626 361 626 361 615.5 332.5 c 128,-1,59
 605 304 605 304 584 283.5 c 128,-1,60
 563 263 563 263 532.5 252 c 128,-1,61
 502 241 502 241 463 241 c 0,62,63
 418 241 418 241 381 258 c 128,-1,64
 344 275 344 275 322 309 c 128,-1,65
 300 343 300 343 300 393 c 0,66,67
 300 455 300 455 329 493 c 128,-1,68
 358 531 358 531 404.5 548.5 c 128,-1,69
 451 566 451 566 503 566 c 0,70,71
 580 566 580 566 638.5 540 c 128,-1,72
 697 514 697 514 736.5 469 c 128,-1,73
 776 424 776 424 796 368 c 128,-1,74
 816 312 816 312 816 252 c 0,75,76
 816 225 816 225 813 199.5 c 128,-1,77
 810 174 810 174 804 150 c 2,78,-1
 798 128 l 1,79,80
 770 46 770 46 704.5 -10 c 128,-1,81
 639 -66 639 -66 546.5 -95 c 128,-1,82
 454 -124 454 -124 342 -124 c 2,83,-1
 321 -124 l 2,0,1
947 -154 m 1,84,-1
 947 554 l 1,85,-1
 1033 554 l 1,86,-1
 1033 -154 l 1,87,-1
 947 -154 l 1,84,-1
EndSplineSet
EndChar

StartChar: aatamil
Encoding: 2950 2950 7
Width: 1313
GlyphClass: 2
Flags: W
AnchorPoint: "Anchor-1" 657 -29 basechar 0
AnchorPoint: "Anchor-0" 657 -29 basechar 0
LayerCount: 2
Fore
SplineSet
321 -124 m 2,0,1
 224 -124 224 -124 159 -100.5 c 128,-1,2
 94 -77 94 -77 61.5 -35.5 c 128,-1,3
 29 6 29 6 29 60 c 0,4,5
 29 85 29 85 40 109 c 128,-1,6
 51 133 51 133 74 149 c 0,7,8
 87 158 87 158 102 164 c 128,-1,9
 117 170 117 170 141.5 173 c 128,-1,10
 166 176 166 176 206 176 c 2,11,-1
 953 176 l 1,12,-1
 956 104 l 1,13,-1
 217 104 l 2,14,15
 186 104 186 104 169.5 103 c 128,-1,16
 153 102 153 102 145 99 c 128,-1,17
 137 96 137 96 129 90 c 0,18,19
 114 78 114 78 114 56 c 0,20,21
 114 7 114 7 167 -22 c 128,-1,22
 220 -51 220 -51 327 -51 c 2,23,-1
 344 -51 l 2,24,25
 445 -51 445 -51 517.5 -27.5 c 128,-1,26
 590 -4 590 -4 637.5 37 c 128,-1,27
 685 78 685 78 709 130 c 1,28,-1
 713 149 l 2,29,30
 722 174 722 174 726 199.5 c 128,-1,31
 730 225 730 225 730 251 c 0,32,33
 730 309 730 309 710 361 c 128,-1,34
 690 413 690 413 648.5 448.5 c 128,-1,35
 607 484 607 484 542 494 c 0,36,37
 529 496 529 496 517.5 496.5 c 128,-1,38
 506 497 506 497 493 497 c 0,39,40
 462 497 462 497 436 486 c 128,-1,41
 410 475 410 475 394.5 453 c 128,-1,42
 379 431 379 431 379 397 c 0,43,44
 379 360 379 360 401.5 334.5 c 128,-1,45
 424 309 424 309 465 309 c 0,46,47
 503 309 503 309 525.5 332.5 c 128,-1,48
 548 356 548 356 548 400 c 0,49,50
 548 433 548 433 537.5 459.5 c 128,-1,51
 527 486 527 486 501 510 c 1,52,-1
 558 527 l 1,53,54
 576 512 576 512 591.5 492 c 128,-1,55
 607 472 607 472 616.5 447.5 c 128,-1,56
 626 423 626 423 626 396 c 0,57,58
 626 361 626 361 615.5 332.5 c 128,-1,59
 605 304 605 304 584 283.5 c 128,-1,60
 563 263 563 263 532.5 252 c 128,-1,61
 502 241 502 241 463 241 c 0,62,63
 418 241 418 241 381 258 c 128,-1,64
 344 275 344 275 322 309 c 128,-1,65
 300 343 300 343 300 393 c 0,66,67
 300 455 300 455 329 493 c 128,-1,68
 358 531 358 531 404.5 548.5 c 128,-1,69
 451 566 451 566 503 566 c 0,70,71
 580 566 580 566 638.5 540 c 128,-1,72
 697 514 697 514 736.5 469 c 128,-1,73
 776 424 776 424 796 368 c 128,-1,74
 816 312 816 312 816 252 c 0,75,76
 816 225 816 225 813 199.5 c 128,-1,77
 810 174 810 174 804 150 c 2,78,-1
 798 128 l 1,79,80
 770 46 770 46 704.5 -10 c 128,-1,81
 639 -66 639 -66 546.5 -95 c 128,-1,82
 454 -124 454 -124 342 -124 c 2,83,-1
 321 -124 l 2,0,1
922 -321 m 2,84,85
 792 -321 792 -321 720 -277.5 c 128,-1,86
 648 -234 648 -234 648 -154 c 0,87,88
 648 -125 648 -125 662.5 -99.5 c 128,-1,89
 677 -74 677 -74 707.5 -57.5 c 128,-1,90
 738 -41 738 -41 784 -41 c 0,91,92
 810 -41 810 -41 838 -46.5 c 128,-1,93
 866 -52 866 -52 891 -62 c 1,94,-1
 877 -127 l 1,95,96
 855 -120 855 -120 832.5 -115 c 128,-1,97
 810 -110 810 -110 790 -110 c 0,98,99
 759 -110 759 -110 742 -122 c 128,-1,100
 725 -134 725 -134 725 -157 c 0,101,102
 725 -181 725 -181 743.5 -202 c 128,-1,103
 762 -223 762 -223 806 -236 c 128,-1,104
 850 -249 850 -249 926 -249 c 2,105,-1
 933 -249 l 2,106,107
 1019 -249 1019 -249 1084.5 -227.5 c 128,-1,108
 1150 -206 1150 -206 1187.5 -164 c 128,-1,109
 1225 -122 1225 -122 1225 -63 c 0,110,111
 1225 -19 1225 -19 1200 6 c 128,-1,112
 1175 31 1175 31 1131 31 c 0,113,114
 1099 31 1099 31 1074.5 22.5 c 128,-1,115
 1050 14 1050 14 1033 1 c 1,116,-1
 1033 70 l 1,117,118
 1053 82 1053 82 1080 91 c 128,-1,119
 1107 100 1107 100 1145 100 c 0,120,121
 1186 100 1186 100 1223.5 82 c 128,-1,122
 1261 64 1261 64 1285 27.5 c 128,-1,123
 1309 -9 1309 -9 1309 -65 c 0,124,125
 1309 -141 1309 -141 1263 -199 c 128,-1,126
 1217 -257 1217 -257 1131.5 -289 c 128,-1,127
 1046 -321 1046 -321 928 -321 c 2,128,-1
 922 -321 l 2,84,85
947 -124 m 1,129,-1
 947 554 l 1,130,-1
 1033 554 l 1,131,-1
 1033 -124 l 1,132,-1
 947 -124 l 1,129,-1
EndSplineSet
EndChar

StartChar: itamil
Encoding: 2951 2951 8
Width: 1126
GlyphClass: 2
Flags: W
AnchorPoint: "Anchor-1" 563 -29 basechar 0
LayerCount: 2
Fore
SplineSet
256 -321 m 0,0,1
 191 -321 191 -321 144.5 -298.5 c 128,-1,2
 98 -276 98 -276 73.5 -234 c 128,-1,3
 49 -192 49 -192 49 -134 c 0,4,5
 49 -63 49 -63 85.5 -9 c 128,-1,6
 122 45 122 45 183 81 c 0,7,8
 242 116 242 116 319 133.5 c 128,-1,9
 396 151 396 151 479 151 c 0,10,11
 559 151 559 151 624.5 137.5 c 128,-1,12
 690 124 690 124 740 100 c 0,13,14
 797 73 797 73 835 35.5 c 128,-1,15
 873 -2 873 -2 891.5 -45.5 c 128,-1,16
 910 -89 910 -89 910 -134 c 0,17,18
 910 -221 910 -221 855.5 -271 c 128,-1,19
 801 -321 801 -321 698 -321 c 0,20,21
 628 -321 628 -321 561.5 -301.5 c 128,-1,22
 495 -282 495 -282 433 -243 c 1,23,24
 381 -218 381 -218 332 -175 c 128,-1,25
 283 -132 283 -132 241.5 -78.5 c 128,-1,26
 200 -25 200 -25 171 30 c 0,27,28
 125 113 125 113 100.5 197.5 c 128,-1,29
 76 282 76 282 76 379 c 0,30,31
 76 466 76 466 105.5 549 c 128,-1,32
 135 632 135 632 195.5 698 c 128,-1,33
 256 764 256 764 348.5 803.5 c 128,-1,34
 441 843 441 843 567 843 c 0,35,36
 690 843 690 843 778.5 809 c 128,-1,37
 867 775 867 775 925 707 c 0,38,39
 963 662 963 662 988 607 c 128,-1,40
 1013 552 1013 552 1025.5 482.5 c 128,-1,41
 1038 413 1038 413 1038 322 c 2,42,-1
 1038 0 l 1,43,-1
 952 0 l 1,44,-1
 952 272 l 2,45,46
 952 368 952 368 941 443 c 128,-1,47
 930 518 930 518 906 574.5 c 128,-1,48
 882 631 882 631 843 671 c 0,49,50
 796 720 796 720 729 744 c 128,-1,51
 662 768 662 768 567 768 c 0,52,53
 483 768 483 768 409.5 742.5 c 128,-1,54
 336 717 336 717 280.5 667 c 128,-1,55
 225 617 225 617 193.5 544 c 128,-1,56
 162 471 162 471 162 375 c 0,57,58
 162 313 162 313 171 261.5 c 128,-1,59
 180 210 180 210 198 163 c 128,-1,60
 216 116 216 116 241 67 c 0,61,62
 264 18 264 18 303 -33 c 128,-1,63
 342 -84 342 -84 394 -129 c 128,-1,64
 446 -174 446 -174 506 -206 c 0,65,66
 549 -230 549 -230 593.5 -239.5 c 128,-1,67
 638 -249 638 -249 689 -249 c 0,68,69
 763 -249 763 -249 793.5 -215.5 c 128,-1,70
 824 -182 824 -182 824 -129 c 0,71,72
 824 -78 824 -78 793 -36 c 128,-1,73
 762 6 762 6 713 31 c 0,74,75
 665 56 665 56 604.5 67.5 c 128,-1,76
 544 79 544 79 481 79 c 0,77,78
 393 79 393 79 327.5 61.5 c 128,-1,79
 262 44 262 44 220 16 c 0,80,81
 176 -13 176 -13 155 -50.5 c 128,-1,82
 134 -88 134 -88 134 -128 c 0,83,84
 134 -183 134 -183 165.5 -216 c 128,-1,85
 197 -249 197 -249 268 -249 c 0,86,87
 312 -249 312 -249 352 -242.5 c 128,-1,88
 392 -236 392 -236 431 -214 c 0,89,90
 493 -186 493 -186 545 -138 c 128,-1,91
 597 -90 597 -90 634.5 -32 c 128,-1,92
 672 26 672 26 688 83 c 0,93,94
 702 124 702 124 708.5 165.5 c 128,-1,95
 715 207 715 207 715 250 c 0,96,97
 715 322 715 322 695.5 371.5 c 128,-1,98
 676 421 676 421 645 450 c 128,-1,99
 614 479 614 479 580 490 c 1,100,-1
 530 495 l 2,101,102
 523 496 523 496 513.5 496.5 c 128,-1,103
 504 497 504 497 495 497 c 0,104,105
 459 497 459 497 430.5 486.5 c 128,-1,106
 402 476 402 476 385 454 c 128,-1,107
 368 432 368 432 368 399 c 0,108,109
 368 362 368 362 390.5 337 c 128,-1,110
 413 312 413 312 454 312 c 0,111,112
 491 312 491 312 514 335.5 c 128,-1,113
 537 359 537 359 537 402 c 0,114,115
 537 434 537 434 525 461 c 128,-1,116
 513 488 513 488 487 515 c 1,117,-1
 567 510 l 1,118,119
 581 496 581 496 591.5 477.5 c 128,-1,120
 602 459 602 459 608.5 437.5 c 128,-1,121
 615 416 615 416 615 392 c 0,122,123
 615 349 615 349 596 315.5 c 128,-1,124
 577 282 577 282 541 263 c 128,-1,125
 505 244 505 244 452 244 c 0,126,127
 407 244 407 244 370 263 c 128,-1,128
 333 282 333 282 311 317 c 128,-1,129
 289 352 289 352 289 398 c 0,130,131
 289 455 289 455 318.5 492.5 c 128,-1,132
 348 530 348 530 399 548 c 128,-1,133
 450 566 450 566 513 566 c 0,134,135
 609 566 609 566 673 527 c 128,-1,136
 737 488 737 488 769.5 418 c 128,-1,137
 802 348 802 348 802 254 c 0,138,139
 802 210 802 210 793 151 c 128,-1,140
 784 92 784 92 759 35 c 1,141,142
 737 -26 737 -26 701.5 -79 c 128,-1,143
 666 -132 666 -132 620 -175 c 128,-1,144
 574 -218 574 -218 520 -249 c 0,145,146
 456 -283 456 -283 390 -302 c 128,-1,147
 324 -321 324 -321 256 -321 c 0,0,1
EndSplineSet
EndChar

StartChar: iitamil
Encoding: 2952 2952 9
Width: 707
GlyphClass: 2
Flags: W
AnchorPoint: "Anchor-1" 353 -29 basechar 0
AnchorPoint: "Anchor-0" 353 -29 basechar 0
LayerCount: 2
Fore
SplineSet
88 0 m 1,0,-1
 88 554 l 1,1,-1
 682 554 l 1,2,-1
 682 482 l 1,3,-1
 483 482 l 1,4,-1
 483 0 l 1,5,-1
 397 0 l 1,6,-1
 397 482 l 1,7,-1
 174 482 l 1,8,-1
 174 0 l 1,9,-1
 88 0 l 1,0,-1
286 214 m 256,10,11
 259 214 259 214 240.5 232 c 128,-1,12
 222 250 222 250 222 278 c 0,13,14
 222 305 222 305 240 323 c 128,-1,15
 258 341 258 341 286 341 c 0,16,17
 313 341 313 341 331 323 c 128,-1,18
 349 305 349 305 349 278 c 0,19,20
 349 250 349 250 331 232 c 128,-1,21
 313 214 313 214 286 214 c 256,10,11
594 214 m 256,22,23
 567 214 567 214 548.5 232 c 128,-1,24
 530 250 530 250 530 278 c 0,25,26
 530 305 530 305 548 323 c 128,-1,27
 566 341 566 341 594 341 c 0,28,29
 621 341 621 341 639 323 c 128,-1,30
 657 305 657 305 657 278 c 0,31,32
 657 250 657 250 639 232 c 128,-1,33
 621 214 621 214 594 214 c 256,22,23
EndSplineSet
EndChar

StartChar: utamil
Encoding: 2953 2953 10
Width: 1067
GlyphClass: 2
Flags: W
AnchorPoint: "Anchor-1" 533 -29 basechar 0
AnchorPoint: "Anchor-0" 533 -29 basechar 0
LayerCount: 2
Fore
SplineSet
298 566 m 0,0,1
 405 566 405 566 472 536.5 c 128,-1,2
 539 507 539 507 570.5 457.5 c 128,-1,3
 602 408 602 408 602 349 c 0,4,5
 602 291 602 291 581 252.5 c 128,-1,6
 560 214 560 214 521 190.5 c 128,-1,7
 482 167 482 167 428 154.5 c 128,-1,8
 374 142 374 142 309 135 c 2,9,-1
 229 127 l 2,10,11
 174 122 174 122 160 115 c 128,-1,12
 146 108 146 108 146 95 c 0,13,14
 146 83 146 83 154.5 77.5 c 128,-1,15
 163 72 163 72 182 72 c 2,16,-1
 1050 72 l 1,17,-1
 1050 0 l 1,18,-1
 191 0 l 2,19,20
 144 0 144 0 115.5 12.5 c 128,-1,21
 87 25 87 25 74.5 46.5 c 128,-1,22
 62 68 62 68 62 94 c 0,23,24
 62 124 62 124 78 145 c 128,-1,25
 94 166 94 166 130 179 c 128,-1,26
 166 192 166 192 226 198 c 2,27,-1
 303 205 l 2,28,29
 394 214 394 214 439.5 235.5 c 128,-1,30
 485 257 485 257 500.5 287 c 128,-1,31
 516 317 516 317 516 349 c 0,32,33
 516 391 516 391 494.5 423 c 128,-1,34
 473 455 473 455 431.5 474.5 c 128,-1,35
 390 494 390 494 330 496 c 2,36,-1
 302 497 l 2,37,38
 291 497 291 497 279.5 497 c 128,-1,39
 268 497 268 497 263 497 c 0,40,41
 209 497 209 497 172.5 473 c 128,-1,42
 136 449 136 449 136 399 c 0,43,44
 136 362 136 362 157 337 c 128,-1,45
 178 312 178 312 222 312 c 0,46,47
 260 312 260 312 282.5 335.5 c 128,-1,48
 305 359 305 359 305 402 c 0,49,50
 305 431 305 431 294.5 458.5 c 128,-1,51
 284 486 284 486 258 510 c 1,52,-1
 318 527 l 1,53,54
 336 513 336 513 350.5 492.5 c 128,-1,55
 365 472 365 472 374 447 c 128,-1,56
 383 422 383 422 383 392 c 0,57,58
 383 327 383 327 341.5 285.5 c 128,-1,59
 300 244 300 244 220 244 c 0,60,61
 172 244 172 244 135.5 263 c 128,-1,62
 99 282 99 282 78 317 c 128,-1,63
 57 352 57 352 57 398 c 0,64,65
 57 455 57 455 88 492.5 c 128,-1,66
 119 530 119 530 173.5 548 c 128,-1,67
 228 566 228 566 298 566 c 0,0,1
EndSplineSet
EndChar

StartChar: uutamil
Encoding: 2954 2954 11
Width: 1540
GlyphClass: 2
Flags: W
AnchorPoint: "Anchor-1" 770 -29 basechar 0
AnchorPoint: "Anchor-0" 770 -29 basechar 0
LayerCount: 2
Fore
SplineSet
298 566 m 0,0,1
 405 566 405 566 472 536.5 c 128,-1,2
 539 507 539 507 570.5 457.5 c 128,-1,3
 602 408 602 408 602 349 c 0,4,5
 602 291 602 291 581 252.5 c 128,-1,6
 560 214 560 214 521 190.5 c 128,-1,7
 482 167 482 167 428 154.5 c 128,-1,8
 374 142 374 142 309 135 c 2,9,-1
 229 127 l 2,10,11
 193 124 193 124 175.5 119.5 c 128,-1,12
 158 115 158 115 152.5 109.5 c 128,-1,13
 147 104 147 104 147 95 c 0,14,15
 147 83 147 83 155 77.5 c 128,-1,16
 163 72 163 72 182 72 c 2,17,-1
 1494 72 l 1,18,-1
 1494 0 l 1,19,-1
 191 0 l 2,20,21
 144 0 144 0 115.5 12.5 c 128,-1,22
 87 25 87 25 74.5 46.5 c 128,-1,23
 62 68 62 68 62 94 c 0,24,25
 62 124 62 124 78 145 c 128,-1,26
 94 166 94 166 130 179 c 128,-1,27
 166 192 166 192 226 198 c 2,28,-1
 298 205 l 2,29,30
 368 212 368 212 411 226 c 128,-1,31
 454 240 454 240 477 259.5 c 128,-1,32
 500 279 500 279 508 302 c 128,-1,33
 516 325 516 325 516 349 c 0,34,35
 516 391 516 391 494.5 423 c 128,-1,36
 473 455 473 455 431.5 474.5 c 128,-1,37
 390 494 390 494 330 496 c 2,38,-1
 302 497 l 2,39,40
 291 497 291 497 279.5 497 c 128,-1,41
 268 497 268 497 263 497 c 0,42,43
 209 497 209 497 172.5 473 c 128,-1,44
 136 449 136 449 136 399 c 0,45,46
 136 362 136 362 158.5 337 c 128,-1,47
 181 312 181 312 222 312 c 0,48,49
 259 312 259 312 282 335.5 c 128,-1,50
 305 359 305 359 305 402 c 0,51,52
 305 431 305 431 294.5 458.5 c 128,-1,53
 284 486 284 486 258 510 c 1,54,-1
 318 527 l 1,55,56
 336 513 336 513 350.5 492.5 c 128,-1,57
 365 472 365 472 374 447 c 128,-1,58
 383 422 383 422 383 392 c 0,59,60
 383 327 383 327 341 285.5 c 128,-1,61
 299 244 299 244 220 244 c 0,62,63
 175 244 175 244 138 263 c 128,-1,64
 101 282 101 282 79 317 c 128,-1,65
 57 352 57 352 57 398 c 0,66,67
 57 455 57 455 88 492.5 c 128,-1,68
 119 530 119 530 173.5 548 c 128,-1,69
 228 566 228 566 298 566 c 0,0,1
858 132 m 0,70,71
 815 132 815 132 777.5 152 c 128,-1,72
 740 172 740 172 717.5 215 c 128,-1,73
 695 258 695 258 695 325 c 0,74,75
 695 409 695 409 729 462 c 128,-1,76
 763 515 763 515 817 540.5 c 128,-1,77
 871 566 871 566 931 566 c 0,78,79
 987 566 987 566 1026 551 c 128,-1,80
 1065 536 1065 536 1096 512 c 1,81,-1
 1082 423 l 1,82,83
 1056 455 1056 455 1023.5 475.5 c 128,-1,84
 991 496 991 496 937 496 c 0,85,86
 889 496 889 496 853 477 c 128,-1,87
 817 458 817 458 795.5 424.5 c 128,-1,88
 774 391 774 391 770 346 c 2,89,-1
 769 321 l 2,90,91
 769 275 769 275 780.5 247.5 c 128,-1,92
 792 220 792 220 812 208 c 128,-1,93
 832 196 832 196 858 196 c 0,94,95
 877 196 877 196 891 204 c 128,-1,96
 905 212 905 212 913.5 227 c 128,-1,97
 922 242 922 242 922 263 c 0,98,99
 922 296 922 296 902 314.5 c 128,-1,100
 882 333 882 333 850 333 c 0,101,102
 821 333 821 333 795 313.5 c 128,-1,103
 769 294 769 294 746 259 c 1,104,-1
 731 317 l 1,105,106
 755 353 755 353 791 375.5 c 128,-1,107
 827 398 827 398 867 398 c 0,108,109
 926 398 926 398 961.5 363 c 128,-1,110
 997 328 997 328 997 270 c 0,111,112
 997 206 997 206 960 169 c 128,-1,113
 923 132 923 132 858 132 c 0,70,71
1077 144 m 1,114,-1
 1077 467 l 1,115,-1
 1090 497 l 1,116,-1
 1090 554 l 1,117,-1
 1494 554 l 1,118,-1
 1494 486 l 1,119,-1
 1376 486 l 1,120,-1
 1376 144 l 1,121,-1
 1294 144 l 1,122,-1
 1294 486 l 1,123,-1
 1159 486 l 1,124,-1
 1159 144 l 1,125,-1
 1077 144 l 1,114,-1
EndSplineSet
EndChar

StartChar: etamil
Encoding: 2958 2958 12
Width: 801
GlyphClass: 2
Flags: W
AnchorPoint: "Anchor-2" 400 -78 basechar 0
AnchorPoint: "Anchor-1" 400 -29 basechar 0
AnchorPoint: "Anchor-0" 400 -29 basechar 0
LayerCount: 2
Fore
SplineSet
249 -12 m 0,0,1
 196 -12 196 -12 152 14 c 128,-1,2
 108 40 108 40 82.5 95.5 c 128,-1,3
 57 151 57 151 57 239 c 0,4,5
 57 316 57 316 82 373 c 128,-1,6
 107 430 107 430 150 468 c 0,7,8
 182 497 182 497 223 516 c 128,-1,9
 264 535 264 535 320 544.5 c 128,-1,10
 376 554 376 554 451 554 c 2,11,-1
 508 554 l 1,12,-1
 508 482 l 1,13,-1
 439 482 l 2,14,15
 375 482 375 482 332 474.5 c 128,-1,16
 289 467 289 467 261.5 454 c 128,-1,17
 234 441 234 441 214 423 c 0,18,19
 176 389 176 389 156 341 c 128,-1,20
 136 293 136 293 136 232 c 0,21,22
 136 168 136 168 151.5 129 c 128,-1,23
 167 90 167 90 193.5 73 c 128,-1,24
 220 56 220 56 253 56 c 0,25,26
 280 56 280 56 299.5 67.5 c 128,-1,27
 319 79 319 79 329.5 101 c 128,-1,28
 340 123 340 123 340 155 c 0,29,30
 340 205 340 205 314 231.5 c 128,-1,31
 288 258 288 258 247 258 c 0,32,33
 207 258 207 258 172 237 c 128,-1,34
 137 216 137 216 108 184 c 1,35,-1
 93 248 l 1,36,37
 123 283 123 283 167.5 305.5 c 128,-1,38
 212 328 212 328 261 328 c 0,39,40
 333 328 333 328 377.5 284 c 128,-1,41
 422 240 422 240 422 165 c 0,42,43
 422 110 422 110 401 70 c 128,-1,44
 380 30 380 30 341.5 9 c 128,-1,45
 303 -12 303 -12 249 -12 c 0,0,1
528 0 m 1,46,-1
 528 482 l 1,47,-1
 492 482 l 1,48,-1
 494 554 l 1,49,-1
 784 554 l 1,50,-1
 784 482 l 1,51,-1
 614 482 l 1,52,-1
 614 0 l 1,53,-1
 528 0 l 1,46,-1
EndSplineSet
EndChar

StartChar: eetamil
Encoding: 2959 2959 13
Width: 801
GlyphClass: 2
Flags: W
AnchorPoint: "Anchor-1" 400 -29 basechar 0
AnchorPoint: "Anchor-0" 400 -29 basechar 0
LayerCount: 2
Fore
SplineSet
392 -212 m 1,0,-1
 335 -159 l 1,1,-1
 528 24 l 1,2,-1
 528 482 l 1,3,-1
 492 482 l 1,4,-1
 494 554 l 1,5,-1
 784 554 l 1,6,-1
 784 482 l 1,7,-1
 614 482 l 1,8,-1
 614 0 l 1,9,-1
 392 -212 l 1,0,-1
249 -12 m 0,10,11
 196 -12 196 -12 152 14 c 128,-1,12
 108 40 108 40 82.5 95.5 c 128,-1,13
 57 151 57 151 57 239 c 0,14,15
 57 316 57 316 82 373 c 128,-1,16
 107 430 107 430 150 468 c 0,17,18
 182 497 182 497 223 516 c 128,-1,19
 264 535 264 535 320 544.5 c 128,-1,20
 376 554 376 554 451 554 c 2,21,-1
 508 554 l 1,22,-1
 508 482 l 1,23,-1
 439 482 l 2,24,25
 375 482 375 482 332 474.5 c 128,-1,26
 289 467 289 467 261.5 454 c 128,-1,27
 234 441 234 441 214 423 c 0,28,29
 176 389 176 389 156 341 c 128,-1,30
 136 293 136 293 136 232 c 0,31,32
 136 170 136 170 151.5 131 c 128,-1,33
 167 92 167 92 193.5 74 c 128,-1,34
 220 56 220 56 254 56 c 0,35,36
 280 56 280 56 299 67.5 c 128,-1,37
 318 79 318 79 329 101 c 128,-1,38
 340 123 340 123 340 155 c 0,39,40
 340 205 340 205 314 231.5 c 128,-1,41
 288 258 288 258 247 258 c 0,42,43
 207 258 207 258 172 237 c 128,-1,44
 137 216 137 216 108 184 c 1,45,-1
 93 248 l 1,46,47
 123 283 123 283 167.5 305.5 c 128,-1,48
 212 328 212 328 261 328 c 0,49,50
 333 328 333 328 377.5 284 c 128,-1,51
 422 240 422 240 422 165 c 0,52,53
 422 110 422 110 401 70 c 128,-1,54
 380 30 380 30 341.5 9 c 128,-1,55
 303 -12 303 -12 249 -12 c 0,10,11
EndSplineSet
EndChar

StartChar: aitamil
Encoding: 2960 2960 14
Width: 1022
GlyphClass: 2
Flags: W
AnchorPoint: "Anchor-1" 511 -29 basechar 0
AnchorPoint: "Anchor-0" 511 -29 basechar 0
LayerCount: 2
Fore
SplineSet
338 -321 m 0,0,1
 246 -321 246 -321 185 -290 c 128,-1,2
 124 -259 124 -259 93.5 -207.5 c 128,-1,3
 63 -156 63 -156 63 -95 c 0,4,5
 63 -40 63 -40 81.5 -0.5 c 128,-1,6
 100 39 100 39 131 65 c 0,7,8
 166 94 166 94 213 109 c 128,-1,9
 260 124 260 124 316 129.5 c 128,-1,10
 372 135 372 135 432 135 c 2,11,-1
 521 135 l 2,12,13
 597 135 597 135 655 140.5 c 128,-1,14
 713 146 713 146 755 159 c 128,-1,15
 797 172 797 172 823 196 c 0,16,17
 848 219 848 219 859.5 253 c 128,-1,18
 871 287 871 287 871 334 c 0,19,20
 871 387 871 387 852 422 c 128,-1,21
 833 457 833 457 800 475 c 128,-1,22
 767 493 767 493 726 493 c 0,23,24
 697 493 697 493 674.5 484.5 c 128,-1,25
 652 476 652 476 635 457 c 0,26,27
 616 434 616 434 608 403.5 c 128,-1,28
 600 373 600 373 600 319 c 2,29,-1
 600 205 l 1,30,-1
 513 205 l 1,31,-1
 513 297 l 2,32,33
 513 342 513 342 504 378.5 c 128,-1,34
 495 415 495 415 474.5 441.5 c 128,-1,35
 454 468 454 468 420.5 482 c 128,-1,36
 387 496 387 496 337 496 c 0,37,38
 306 496 306 496 289 493.5 c 128,-1,39
 272 491 272 491 252 484 c 2,40,-1
 217 470 l 2,41,42
 190 456 190 456 173.5 436.5 c 128,-1,43
 157 417 157 417 149.5 394.5 c 128,-1,44
 142 372 142 372 142 348 c 0,45,46
 142 305 142 305 163.5 278.5 c 128,-1,47
 185 252 185 252 234 252 c 0,48,49
 273 252 273 252 297.5 274 c 128,-1,50
 322 296 322 296 322 335 c 0,51,52
 322 370 322 370 303.5 395.5 c 128,-1,53
 285 421 285 421 252.5 434.5 c 128,-1,54
 220 448 220 448 178 448 c 1,55,-1
 242 494 l 1,56,57
 288 490 288 490 324.5 470.5 c 128,-1,58
 361 451 361 451 382.5 418.5 c 128,-1,59
 404 386 404 386 404 342 c 0,60,61
 404 270 404 270 357.5 227 c 128,-1,62
 311 184 311 184 235 184 c 0,63,64
 179 184 179 184 140.5 205.5 c 128,-1,65
 102 227 102 227 82.5 263.5 c 128,-1,66
 63 300 63 300 63 345 c 0,67,68
 63 415 63 415 100 464.5 c 128,-1,69
 137 514 137 514 198.5 540 c 128,-1,70
 260 566 260 566 331 566 c 0,71,72
 404 566 404 566 449.5 547 c 128,-1,73
 495 528 495 528 520.5 499 c 128,-1,74
 546 470 546 470 559 439 c 1,75,-1
 541 430 l 1,76,77
 556 473 556 473 581.5 503.5 c 128,-1,78
 607 534 607 534 644 550 c 128,-1,79
 681 566 681 566 729 566 c 0,80,81
 804 566 804 566 855 536.5 c 128,-1,82
 906 507 906 507 932.5 455 c 128,-1,83
 959 403 959 403 959 335 c 0,84,85
 959 268 959 268 939 221 c 128,-1,86
 919 174 919 174 883 143 c 0,87,88
 845 110 845 110 791.5 93 c 128,-1,89
 738 76 738 76 674.5 69.5 c 128,-1,90
 611 63 611 63 542 63 c 2,91,-1
 448 63 l 2,92,93
 382 63 382 63 331.5 59 c 128,-1,94
 281 55 281 55 245.5 43 c 128,-1,95
 210 31 210 31 187 8 c 0,96,97
 168 -11 168 -11 159.5 -36 c 128,-1,98
 151 -61 151 -61 151 -93 c 0,99,100
 151 -147 151 -147 176.5 -181 c 128,-1,101
 202 -215 202 -215 245 -231.5 c 128,-1,102
 288 -248 288 -248 340 -248 c 0,103,104
 382 -248 382 -248 413.5 -239.5 c 128,-1,105
 445 -231 445 -231 467 -212 c 0,106,107
 493 -189 493 -189 503 -158 c 128,-1,108
 513 -127 513 -127 513 -73 c 2,109,-1
 513 -11 l 1,110,-1
 600 -11 l 1,111,-1
 600 -47 l 2,112,113
 600 -87 600 -87 605 -120 c 128,-1,114
 610 -153 610 -153 622 -178 c 0,115,116
 639 -212 639 -212 669.5 -230 c 128,-1,117
 700 -248 700 -248 749 -248 c 0,118,119
 781 -248 781 -248 809 -234.5 c 128,-1,120
 837 -221 837 -221 854.5 -190 c 128,-1,121
 872 -159 872 -159 872 -105 c 0,122,123
 872 -77 872 -77 865 -42 c 128,-1,124
 858 -7 858 -7 847 16 c 1,125,-1
 932 45 l 1,126,127
 945 11 945 11 952 -24 c 128,-1,128
 959 -59 959 -59 959 -108 c 0,129,130
 959 -177 959 -177 931.5 -224.5 c 128,-1,131
 904 -272 904 -272 856.5 -296.5 c 128,-1,132
 809 -321 809 -321 750 -321 c 0,133,134
 685 -321 685 -321 644.5 -301 c 128,-1,135
 604 -281 604 -281 581.5 -251 c 128,-1,136
 559 -221 559 -221 548 -191 c 1,137,-1
 566 -187 l 1,138,139
 550 -230 550 -230 518 -260 c 128,-1,140
 486 -290 486 -290 440.5 -305.5 c 128,-1,141
 395 -321 395 -321 338 -321 c 0,0,1
EndSplineSet
EndChar

StartChar: otamil
Encoding: 2962 2962 15
Width: 985
GlyphClass: 2
Flags: W
AnchorPoint: "Anchor-1" 493 -29 basechar 0
AnchorPoint: "Anchor-0" 493 -29 basechar 0
LayerCount: 2
Fore
SplineSet
766 64 m 0,0,1
 724 64 724 64 688.5 78 c 128,-1,2
 653 92 653 92 632 123 c 128,-1,3
 611 154 611 154 611 203 c 0,4,5
 611 226 611 226 617.5 254 c 128,-1,6
 624 282 624 282 640 299 c 1,7,-1
 652 295 l 1,8,9
 599 266 599 266 573 225 c 128,-1,10
 547 184 547 184 547 134 c 0,11,12
 547 98 547 98 557 70.5 c 128,-1,13
 567 43 567 43 586 23 c 0,14,15
 606 2 606 2 633.5 -11.5 c 128,-1,16
 661 -25 661 -25 700.5 -31 c 128,-1,17
 740 -37 740 -37 796 -37 c 2,18,-1
 876 -37 l 1,19,-1
 876 -108 l 1,20,-1
 790 -108 l 2,21,22
 738 -108 738 -108 708 -104 c 128,-1,23
 678 -100 678 -100 656 -94 c 0,24,25
 585 -74 585 -74 543.5 -40.5 c 128,-1,26
 502 -7 502 -7 484 36 c 128,-1,27
 466 79 466 79 466 126 c 0,28,29
 466 175 466 175 485.5 218 c 128,-1,30
 505 261 505 261 541.5 297 c 128,-1,31
 578 333 578 333 627 358 c 1,32,-1
 708 319 l 1,33,34
 696 294 696 294 689.5 271.5 c 128,-1,35
 683 249 683 249 683 221 c 0,36,37
 683 186 683 186 699.5 160.5 c 128,-1,38
 716 135 716 135 765 135 c 0,39,40
 793 135 793 135 811 149.5 c 128,-1,41
 829 164 829 164 838.5 189 c 128,-1,42
 848 214 848 214 848 245 c 0,43,44
 848 322 848 322 805 377 c 128,-1,45
 762 432 762 432 684.5 461 c 128,-1,46
 607 490 607 490 503 490 c 0,47,48
 411 490 411 490 339 473.5 c 128,-1,49
 267 457 267 457 218.5 425 c 128,-1,50
 170 393 170 393 146 347 c 1,51,-1
 135 305 l 2,52,53
 134 295 134 295 132.5 286 c 128,-1,54
 131 277 131 277 131 268 c 0,55,56
 131 223 131 223 145 192.5 c 128,-1,57
 159 162 159 162 183.5 147 c 128,-1,58
 208 132 208 132 239 132 c 0,59,60
 274 132 274 132 295 155 c 128,-1,61
 316 178 316 178 316 221 c 0,62,63
 316 265 316 265 292.5 288.5 c 128,-1,64
 269 312 269 312 230 312 c 0,65,66
 202 312 202 312 175 298.5 c 128,-1,67
 148 285 148 285 125 262 c 1,68,-1
 143 348 l 1,69,70
 166 365 166 365 194.5 373.5 c 128,-1,71
 223 382 223 382 250 382 c 0,72,73
 294 382 294 382 327.5 364 c 128,-1,74
 361 346 361 346 379.5 312 c 128,-1,75
 398 278 398 278 398 229 c 0,76,77
 398 178 398 178 378.5 141 c 128,-1,78
 359 104 359 104 322.5 84 c 128,-1,79
 286 64 286 64 234 64 c 0,80,81
 187 64 187 64 145 87.5 c 128,-1,82
 103 111 103 111 77.5 156.5 c 128,-1,83
 52 202 52 202 52 269 c 0,84,85
 52 335 52 335 81.5 387 c 128,-1,86
 111 439 111 439 158 475 c 0,87,88
 203 509 203 509 255.5 529 c 128,-1,89
 308 549 308 549 369.5 557.5 c 128,-1,90
 431 566 431 566 502 566 c 0,91,92
 629 566 629 566 719.5 531.5 c 128,-1,93
 810 497 810 497 866 435 c 0,94,95
 901 398 901 398 917 350.5 c 128,-1,96
 933 303 933 303 933 256 c 0,97,98
 933 223 933 223 925.5 189 c 128,-1,99
 918 155 918 155 899 126.5 c 128,-1,100
 880 98 880 98 848 81 c 128,-1,101
 816 64 816 64 766 64 c 0,0,1
409 -321 m 0,102,103
 355 -321 355 -321 309 -302.5 c 128,-1,104
 263 -284 263 -284 235.5 -245 c 128,-1,105
 208 -206 208 -206 208 -145 c 0,106,107
 208 -105 208 -105 222.5 -62 c 128,-1,108
 237 -19 237 -19 268 19 c 1,109,-1
 342 -17 l 1,110,111
 317 -54 317 -54 306 -83 c 128,-1,112
 295 -112 295 -112 295 -144 c 0,113,114
 295 -185 295 -185 312.5 -208 c 128,-1,115
 330 -231 330 -231 357.5 -239.5 c 128,-1,116
 385 -248 385 -248 416 -248 c 0,117,118
 461 -248 461 -248 492.5 -232.5 c 128,-1,119
 524 -217 524 -217 548 -189.5 c 128,-1,120
 572 -162 572 -162 593 -128 c 0,121,122
 602 -111 602 -111 616 -91.5 c 128,-1,123
 630 -72 630 -72 637 -64 c 1,124,-1
 713 -95 l 1,125,126
 703 -105 703 -105 692 -122.5 c 128,-1,127
 681 -140 681 -140 674 -153 c 0,128,129
 647 -206 647 -206 611.5 -244 c 128,-1,130
 576 -282 576 -282 527 -301.5 c 128,-1,131
 478 -321 478 -321 409 -321 c 0,102,103
EndSplineSet
EndChar

StartChar: ootamil
Encoding: 2963 2963 16
Width: 985
GlyphClass: 2
Flags: W
AnchorPoint: "Anchor-1" 493 -29 basechar 0
AnchorPoint: "Anchor-0" 493 -29 basechar 0
LayerCount: 2
Fore
SplineSet
766 64 m 0,0,1
 724 64 724 64 688.5 78 c 128,-1,2
 653 92 653 92 632 123 c 128,-1,3
 611 154 611 154 611 203 c 0,4,5
 611 226 611 226 617.5 254 c 128,-1,6
 624 282 624 282 640 299 c 1,7,-1
 652 295 l 1,8,9
 599 266 599 266 573 225 c 128,-1,10
 547 184 547 184 547 134 c 0,11,12
 547 98 547 98 557 70.5 c 128,-1,13
 567 43 567 43 586 23 c 0,14,15
 606 2 606 2 633.5 -11.5 c 128,-1,16
 661 -25 661 -25 700.5 -31 c 128,-1,17
 740 -37 740 -37 796 -37 c 2,18,-1
 876 -37 l 1,19,-1
 876 -108 l 1,20,-1
 790 -108 l 2,21,22
 738 -108 738 -108 708 -104 c 128,-1,23
 678 -100 678 -100 656 -94 c 0,24,25
 585 -74 585 -74 543.5 -40.5 c 128,-1,26
 502 -7 502 -7 484 36 c 128,-1,27
 466 79 466 79 466 126 c 0,28,29
 466 175 466 175 485.5 218 c 128,-1,30
 505 261 505 261 541.5 297 c 128,-1,31
 578 333 578 333 627 358 c 1,32,-1
 708 319 l 1,33,34
 696 294 696 294 689.5 271.5 c 128,-1,35
 683 249 683 249 683 221 c 0,36,37
 683 186 683 186 699.5 160.5 c 128,-1,38
 716 135 716 135 765 135 c 0,39,40
 793 135 793 135 811 149.5 c 128,-1,41
 829 164 829 164 838.5 189 c 128,-1,42
 848 214 848 214 848 245 c 0,43,44
 848 322 848 322 805 377 c 128,-1,45
 762 432 762 432 684.5 461 c 128,-1,46
 607 490 607 490 503 490 c 0,47,48
 411 490 411 490 339 473.5 c 128,-1,49
 267 457 267 457 218.5 425 c 128,-1,50
 170 393 170 393 146 347 c 1,51,-1
 135 305 l 2,52,53
 134 295 134 295 132.5 286 c 128,-1,54
 131 277 131 277 131 268 c 0,55,56
 131 223 131 223 145 192.5 c 128,-1,57
 159 162 159 162 183.5 147 c 128,-1,58
 208 132 208 132 239 132 c 0,59,60
 274 132 274 132 295 155 c 128,-1,61
 316 178 316 178 316 221 c 0,62,63
 316 265 316 265 292.5 288.5 c 128,-1,64
 269 312 269 312 230 312 c 0,65,66
 202 312 202 312 175 298.5 c 128,-1,67
 148 285 148 285 125 262 c 1,68,-1
 143 348 l 1,69,70
 166 365 166 365 194.5 373.5 c 128,-1,71
 223 382 223 382 250 382 c 0,72,73
 294 382 294 382 327.5 364 c 128,-1,74
 361 346 361 346 379.5 312 c 128,-1,75
 398 278 398 278 398 229 c 0,76,77
 398 178 398 178 378.5 141 c 128,-1,78
 359 104 359 104 322.5 84 c 128,-1,79
 286 64 286 64 234 64 c 0,80,81
 187 64 187 64 145 87.5 c 128,-1,82
 103 111 103 111 77.5 156.5 c 128,-1,83
 52 202 52 202 52 269 c 0,84,85
 52 335 52 335 81.5 387 c 128,-1,86
 111 439 111 439 158 475 c 0,87,88
 203 509 203 509 255.5 529 c 128,-1,89
 308 549 308 549 369.5 557.5 c 128,-1,90
 431 566 431 566 502 566 c 0,91,92
 629 566 629 566 719.5 531.5 c 128,-1,93
 810 497 810 497 866 435 c 0,94,95
 901 398 901 398 917 350.5 c 128,-1,96
 933 303 933 303 933 256 c 0,97,98
 933 223 933 223 925.5 189 c 128,-1,99
 918 155 918 155 899 126.5 c 128,-1,100
 880 98 880 98 848 81 c 128,-1,101
 816 64 816 64 766 64 c 0,0,1
317 -7 m 0,102,103
 374 -7 374 -7 409.5 -28 c 128,-1,104
 445 -49 445 -49 462 -81.5 c 128,-1,105
 479 -114 479 -114 479 -148 c 0,106,107
 479 -180 479 -180 468.5 -205.5 c 128,-1,108
 458 -231 458 -231 439 -253 c 1,109,-1
 351 -257 l 1,110,111
 374 -235 374 -235 385 -211 c 128,-1,112
 396 -187 396 -187 396 -161 c 0,113,114
 396 -138 396 -138 388 -118.5 c 128,-1,115
 380 -99 380 -99 362.5 -87.5 c 128,-1,116
 345 -76 345 -76 314 -76 c 0,117,118
 297 -76 297 -76 279.5 -83 c 128,-1,119
 262 -90 262 -90 250 -107.5 c 128,-1,120
 238 -125 238 -125 238 -155 c 0,121,122
 238 -184 238 -184 249.5 -202.5 c 128,-1,123
 261 -221 261 -221 280 -231.5 c 128,-1,124
 299 -242 299 -242 321.5 -246.5 c 128,-1,125
 344 -251 344 -251 365 -251 c 2,126,-1
 434 -249 l 1,127,128
 473 -243 473 -243 501 -228.5 c 128,-1,129
 529 -214 529 -214 550.5 -189 c 128,-1,130
 572 -164 572 -164 593 -128 c 0,131,132
 603 -111 603 -111 610.5 -99.5 c 128,-1,133
 618 -88 618 -88 625 -80 c 1,134,-1
 706 -103 l 1,135,136
 696 -113 696 -113 689 -126 c 128,-1,137
 682 -139 682 -139 674 -153 c 0,138,139
 647 -206 647 -206 611.5 -244 c 128,-1,140
 576 -282 576 -282 527 -301.5 c 128,-1,141
 478 -321 478 -321 409 -321 c 2,142,-1
 388 -321 l 2,143,144
 335 -321 335 -321 290 -309 c 128,-1,145
 245 -297 245 -297 213 -272 c 0,146,147
 187 -251 187 -251 172 -221.5 c 128,-1,148
 157 -192 157 -192 157 -152 c 0,149,150
 157 -108 157 -108 177.5 -75.5 c 128,-1,151
 198 -43 198 -43 234.5 -25 c 128,-1,152
 271 -7 271 -7 317 -7 c 0,102,103
EndSplineSet
EndChar

StartChar: katamil
Encoding: 2965 2965 18
Width: 825
GlyphClass: 2
Flags: W
AnchorPoint: "Anchor-2" 412 -78 basechar 0
AnchorPoint: "Anchor-1" 412 -29 basechar 0
AnchorPoint: "Anchor-0" 412 -29 basechar 0
LayerCount: 2
Fore
SplineSet
261 -12 m 0,0,1
 201 -12 201 -12 153 7 c 128,-1,2
 105 26 105 26 77 63 c 128,-1,3
 49 100 49 100 49 152 c 0,4,5
 49 206 49 206 77.5 245.5 c 128,-1,6
 106 285 106 285 168 306.5 c 128,-1,7
 230 328 230 328 332 328 c 2,8,-1
 512 328 l 2,9,10
 564 328 564 328 602 323 c 128,-1,11
 640 318 640 318 668.5 307.5 c 128,-1,12
 697 297 697 297 720 279 c 0,13,14
 746 259 746 259 761 226.5 c 128,-1,15
 776 194 776 194 776 152 c 0,16,17
 776 76 776 76 730.5 34 c 128,-1,18
 685 -8 685 -8 602 -8 c 0,19,20
 579 -8 579 -8 552 -5 c 128,-1,21
 525 -2 525 -2 502 5 c 1,22,-1
 521 72 l 1,23,24
 536 68 536 68 555.5 65 c 128,-1,25
 575 62 575 62 594 62 c 0,26,27
 641 62 641 62 665.5 85 c 128,-1,28
 690 108 690 108 690 156 c 0,29,30
 690 190 690 190 675 210.5 c 128,-1,31
 660 231 660 231 635.5 241 c 128,-1,32
 611 251 611 251 580.5 254.5 c 128,-1,33
 550 258 550 258 519 258 c 2,34,-1
 325 258 l 2,35,36
 274 258 274 258 238.5 252 c 128,-1,37
 203 246 203 246 178 232 c 0,38,39
 156 219 156 219 145.5 200.5 c 128,-1,40
 135 182 135 182 135 153 c 0,41,42
 135 107 135 107 173 83.5 c 128,-1,43
 211 60 211 60 269 60 c 0,44,45
 313 60 313 60 344.5 73.5 c 128,-1,46
 376 87 376 87 393.5 120 c 128,-1,47
 411 153 411 153 411 213 c 2,48,-1
 411 482 l 1,49,-1
 239 482 l 1,50,-1
 239 302 l 1,51,-1
 160 286 l 1,52,-1
 160 554 l 1,53,-1
 683 554 l 1,54,-1
 683 482 l 1,55,-1
 496 482 l 1,56,-1
 496 226 l 2,57,58
 496 159 496 159 484.5 121 c 128,-1,59
 473 83 473 83 452 57 c 0,60,61
 421 19 421 19 372.5 3.5 c 128,-1,62
 324 -12 324 -12 261 -12 c 0,0,1
EndSplineSet
EndChar

StartChar: ngatamil
Encoding: 2969 2969 19
Width: 1044
GlyphClass: 2
Flags: W
AnchorPoint: "Anchor-2" 522 -78 basechar 0
AnchorPoint: "Anchor-1" 522 -29 basechar 0
AnchorPoint: "Anchor-0" 522 -29 basechar 0
LayerCount: 2
Fore
SplineSet
88 0 m 1,0,-1
 88 554 l 1,1,-1
 604 554 l 1,2,-1
 604 482 l 1,3,-1
 430 482 l 1,4,-1
 430 324 l 1,5,6
 450 336 450 336 482 349 c 128,-1,7
 514 362 514 362 558 362 c 0,8,9
 608 362 608 362 644 343 c 128,-1,10
 680 324 680 324 699 288 c 128,-1,11
 718 252 718 252 718 201 c 0,12,13
 718 165 718 165 708 132 c 128,-1,14
 698 99 698 99 682 72 c 1,15,-1
 804 72 l 1,16,-1
 804 0 l 1,17,-1
 344 0 l 1,18,-1
 344 72 l 1,19,-1
 595 72 l 1,20,21
 612 97 612 97 622 127.5 c 128,-1,22
 632 158 632 158 632 192 c 0,23,24
 632 245 632 245 607 267 c 128,-1,25
 582 289 582 289 543 289 c 0,26,27
 511 289 511 289 481.5 276 c 128,-1,28
 452 263 452 263 430 246 c 1,29,-1
 430 144 l 1,30,-1
 344 144 l 1,31,-1
 344 482 l 1,32,-1
 174 482 l 1,33,-1
 174 0 l 1,34,-1
 88 0 l 1,0,-1
733 0 m 1,35,-1
 733 72 l 1,36,-1
 870 72 l 1,37,-1
 870 554 l 1,38,-1
 956 554 l 1,39,-1
 956 0 l 1,40,-1
 733 0 l 1,35,-1
EndSplineSet
EndChar

StartChar: catamil
Encoding: 2970 2970 20
Width: 723
GlyphClass: 2
Flags: W
AnchorPoint: "Anchor-2" 361 -78 basechar 0
AnchorPoint: "Anchor-1" 361 -29 basechar 0
AnchorPoint: "Anchor-0" 361 -29 basechar 0
LayerCount: 2
Fore
SplineSet
261 -12 m 0,0,1
 201 -12 201 -12 153 7 c 128,-1,2
 105 26 105 26 77 63 c 128,-1,3
 49 100 49 100 49 152 c 0,4,5
 49 206 49 206 77.5 245.5 c 128,-1,6
 106 285 106 285 168 306.5 c 128,-1,7
 230 328 230 328 332 328 c 2,8,-1
 683 328 l 1,9,-1
 683 258 l 1,10,-1
 325 258 l 2,11,12
 274 258 274 258 238.5 252 c 128,-1,13
 203 246 203 246 178 232 c 0,14,15
 156 219 156 219 145.5 200.5 c 128,-1,16
 135 182 135 182 135 153 c 0,17,18
 135 107 135 107 173 83.5 c 128,-1,19
 211 60 211 60 269 60 c 0,20,21
 313 60 313 60 344.5 73.5 c 128,-1,22
 376 87 376 87 393.5 120.5 c 128,-1,23
 411 154 411 154 411 213 c 2,24,-1
 411 482 l 1,25,-1
 239 482 l 1,26,-1
 239 302 l 1,27,-1
 160 286 l 1,28,-1
 160 554 l 1,29,-1
 683 554 l 1,30,-1
 683 482 l 1,31,-1
 496 482 l 1,32,-1
 496 226 l 2,33,34
 496 159 496 159 484.5 121 c 128,-1,35
 473 83 473 83 452 57 c 0,36,37
 421 19 421 19 372.5 3.5 c 128,-1,38
 324 -12 324 -12 261 -12 c 0,0,1
EndSplineSet
EndChar

StartChar: jatamil
Encoding: 2972 2972 21
Width: 1022
GlyphClass: 2
Flags: W
AnchorPoint: "Anchor-2" 511 -308 basechar 0
AnchorPoint: "Anchor-1" 511 -29 basechar 0
AnchorPoint: "Anchor-0" 511 -29 basechar 0
LayerCount: 2
Fore
SplineSet
331 566 m 0,0,1
 404 566 404 566 449.5 547 c 128,-1,2
 495 528 495 528 520.5 499 c 128,-1,3
 546 470 546 470 559 439 c 1,4,-1
 541 430 l 1,5,6
 556 473 556 473 581.5 503.5 c 128,-1,7
 607 534 607 534 644 550 c 128,-1,8
 681 566 681 566 729 566 c 0,9,10
 804 566 804 566 855 536.5 c 128,-1,11
 906 507 906 507 932.5 455 c 128,-1,12
 959 403 959 403 959 335 c 0,13,14
 959 268 959 268 939 221 c 128,-1,15
 919 174 919 174 883 143 c 0,16,17
 845 110 845 110 791.5 93 c 128,-1,18
 738 76 738 76 674.5 69.5 c 128,-1,19
 611 63 611 63 542 63 c 2,20,-1
 448 63 l 2,21,22
 382 63 382 63 331.5 59 c 128,-1,23
 281 55 281 55 245.5 43 c 128,-1,24
 210 31 210 31 187 8 c 0,25,26
 168 -11 168 -11 159.5 -36 c 128,-1,27
 151 -61 151 -61 151 -93 c 0,28,29
 151 -151 151 -151 173 -185 c 128,-1,30
 195 -219 195 -219 227.5 -233.5 c 128,-1,31
 260 -248 260 -248 292 -248 c 0,32,33
 336 -248 336 -248 368 -235.5 c 128,-1,34
 400 -223 400 -223 426 -200 c 128,-1,35
 452 -177 452 -177 478 -148 c 0,36,37
 520 -101 520 -101 558 -70 c 128,-1,38
 596 -39 596 -39 641.5 -23 c 128,-1,39
 687 -7 687 -7 751 -7 c 0,40,41
 787 -7 787 -7 821.5 -16.5 c 128,-1,42
 856 -26 856 -26 884 -46.5 c 128,-1,43
 912 -67 912 -67 929 -98.5 c 128,-1,44
 946 -130 946 -130 946 -174 c 256,45,46
 946 -218 946 -218 925.5 -251.5 c 128,-1,47
 905 -285 905 -285 869 -303 c 128,-1,48
 833 -321 833 -321 787 -321 c 0,49,50
 744 -321 744 -321 713.5 -309 c 128,-1,51
 683 -297 683 -297 663.5 -276.5 c 128,-1,52
 644 -256 644 -256 634.5 -231 c 128,-1,53
 625 -206 625 -206 625 -181 c 0,54,55
 625 -134 625 -134 648 -102 c 128,-1,56
 671 -70 671 -70 705 -41 c 1,57,-1
 772 -55 l 1,58,59
 738 -80 738 -80 722.5 -108 c 128,-1,60
 707 -136 707 -136 707 -168 c 0,61,62
 707 -202 707 -202 725.5 -227 c 128,-1,63
 744 -252 744 -252 789 -252 c 0,64,65
 807 -252 807 -252 824.5 -244.5 c 128,-1,66
 842 -237 842 -237 853.5 -220 c 128,-1,67
 865 -203 865 -203 865 -173 c 256,68,69
 865 -143 865 -143 853 -124.5 c 128,-1,70
 841 -106 841 -106 821 -95.5 c 128,-1,71
 801 -85 801 -85 778 -81 c 128,-1,72
 755 -77 755 -77 733 -77 c 0,73,74
 718 -77 718 -77 703.5 -78.5 c 128,-1,75
 689 -80 689 -80 675 -83 c 0,76,77
 652 -90 652 -90 630.5 -104.5 c 128,-1,78
 609 -119 609 -119 589 -139.5 c 128,-1,79
 569 -160 569 -160 549 -184 c 0,80,81
 516 -225 516 -225 479.5 -256 c 128,-1,82
 443 -287 443 -287 399 -304 c 128,-1,83
 355 -321 355 -321 297 -321 c 0,84,85
 215 -321 215 -321 163 -289.5 c 128,-1,86
 111 -258 111 -258 87 -206 c 128,-1,87
 63 -154 63 -154 63 -95 c 0,88,89
 63 -40 63 -40 81.5 -0.5 c 128,-1,90
 100 39 100 39 131 65 c 0,91,92
 166 94 166 94 213 109 c 128,-1,93
 260 124 260 124 316 129.5 c 128,-1,94
 372 135 372 135 432 135 c 2,95,-1
 521 135 l 2,96,97
 597 135 597 135 655 140 c 128,-1,98
 713 145 713 145 755 158.5 c 128,-1,99
 797 172 797 172 823 196 c 0,100,101
 848 219 848 219 859.5 253 c 128,-1,102
 871 287 871 287 871 334 c 0,103,104
 871 387 871 387 852 422 c 128,-1,105
 833 457 833 457 800 475 c 128,-1,106
 767 493 767 493 726 493 c 0,107,108
 697 493 697 493 674.5 484.5 c 128,-1,109
 652 476 652 476 635 457 c 0,110,111
 616 434 616 434 608 403.5 c 128,-1,112
 600 373 600 373 600 319 c 2,113,-1
 600 205 l 1,114,-1
 513 205 l 1,115,-1
 513 293 l 2,116,117
 513 341 513 341 503.5 379 c 128,-1,118
 494 417 494 417 473.5 443 c 128,-1,119
 453 469 453 469 419 482.5 c 128,-1,120
 385 496 385 496 337 496 c 0,121,122
 306 496 306 496 289 493.5 c 128,-1,123
 272 491 272 491 252 484 c 2,124,-1
 217 470 l 2,125,126
 190 456 190 456 173.5 436.5 c 128,-1,127
 157 417 157 417 149.5 394.5 c 128,-1,128
 142 372 142 372 142 348 c 0,129,130
 142 305 142 305 163.5 278.5 c 128,-1,131
 185 252 185 252 234 252 c 0,132,133
 273 252 273 252 297.5 274 c 128,-1,134
 322 296 322 296 322 335 c 0,135,136
 322 370 322 370 303.5 395.5 c 128,-1,137
 285 421 285 421 252.5 434.5 c 128,-1,138
 220 448 220 448 178 448 c 1,139,-1
 242 494 l 1,140,141
 288 490 288 490 324.5 470.5 c 128,-1,142
 361 451 361 451 382.5 418.5 c 128,-1,143
 404 386 404 386 404 342 c 0,144,145
 404 270 404 270 357.5 227 c 128,-1,146
 311 184 311 184 235 184 c 0,147,148
 179 184 179 184 140.5 205.5 c 128,-1,149
 102 227 102 227 82.5 263.5 c 128,-1,150
 63 300 63 300 63 345 c 0,151,152
 63 415 63 415 100 464.5 c 128,-1,153
 137 514 137 514 198.5 540 c 128,-1,154
 260 566 260 566 331 566 c 0,0,1
EndSplineSet
EndChar

StartChar: nyatamil
Encoding: 2974 2974 22
Width: 1210
GlyphClass: 2
Flags: W
AnchorPoint: "Anchor-2" 630 -59 basechar 0
AnchorPoint: "Anchor-1" 605 -29 basechar 0
AnchorPoint: "Anchor-0" 605 -29 basechar 0
LayerCount: 2
Fore
SplineSet
980 319 m 0,0,1
 1034 319 1034 319 1075 291.5 c 128,-1,2
 1116 264 1116 264 1139 211.5 c 128,-1,3
 1162 159 1162 159 1162 83 c 0,4,5
 1162 -6 1162 -6 1134 -73 c 128,-1,6
 1106 -140 1106 -140 1056 -187.5 c 128,-1,7
 1006 -235 1006 -235 940 -264.5 c 128,-1,8
 874 -294 874 -294 797.5 -307.5 c 128,-1,9
 721 -321 721 -321 640 -321 c 2,10,-1
 613 -321 l 2,11,12
 489 -321 489 -321 397.5 -295 c 128,-1,13
 306 -269 306 -269 242.5 -223 c 128,-1,14
 179 -177 179 -177 141 -117 c 128,-1,15
 103 -57 103 -57 85.5 11 c 128,-1,16
 68 79 68 79 68 149 c 2,17,-1
 68 170 l 2,18,19
 68 239 68 239 86.5 308.5 c 128,-1,20
 105 378 105 378 135 441 c 128,-1,21
 165 504 165 504 199 554 c 1,22,-1
 273 510 l 1,23,24
 235 453 235 453 208.5 395 c 128,-1,25
 182 337 182 337 168 279 c 128,-1,26
 154 221 154 221 154 163 c 2,27,-1
 154 150 l 2,28,29
 154 66 154 66 181 -5.5 c 128,-1,30
 208 -77 208 -77 264.5 -130.5 c 128,-1,31
 321 -184 321 -184 409.5 -214 c 128,-1,32
 498 -244 498 -244 622 -244 c 2,33,-1
 635 -244 l 2,34,35
 731 -244 731 -244 811.5 -224.5 c 128,-1,36
 892 -205 892 -205 950.5 -165 c 128,-1,37
 1009 -125 1009 -125 1041.5 -63 c 128,-1,38
 1074 -1 1074 -1 1074 84 c 0,39,40
 1074 138 1074 138 1061 174 c 128,-1,41
 1048 210 1048 210 1023.5 228.5 c 128,-1,42
 999 247 999 247 964 247 c 0,43,44
 934 247 934 247 908.5 234.5 c 128,-1,45
 883 222 883 222 862 207 c 1,46,-1
 863 281 l 1,47,48
 882 295 882 295 911.5 307 c 128,-1,49
 941 319 941 319 980 319 c 0,0,1
503 -12 m 0,50,51
 450 -12 450 -12 406.5 14 c 128,-1,52
 363 40 363 40 337 95.5 c 128,-1,53
 311 151 311 151 311 239 c 0,54,55
 311 316 311 316 336 373 c 128,-1,56
 361 430 361 430 404 468 c 0,57,58
 436 497 436 497 477 516 c 128,-1,59
 518 535 518 535 574 544.5 c 128,-1,60
 630 554 630 554 705 554 c 2,61,-1
 762 554 l 1,62,-1
 762 482 l 1,63,-1
 693 482 l 2,64,65
 629 482 629 482 586 474.5 c 128,-1,66
 543 467 543 467 515.5 454 c 128,-1,67
 488 441 488 441 468 423 c 0,68,69
 430 389 430 389 410 341 c 128,-1,70
 390 293 390 293 390 232 c 0,71,72
 390 170 390 170 405 131 c 128,-1,73
 420 92 420 92 447 74 c 128,-1,74
 474 56 474 56 508 56 c 0,75,76
 534 56 534 56 553 67.5 c 128,-1,77
 572 79 572 79 583 101 c 128,-1,78
 594 123 594 123 594 155 c 0,79,80
 594 205 594 205 567.5 231.5 c 128,-1,81
 541 258 541 258 500 258 c 0,82,83
 461 258 461 258 426 237 c 128,-1,84
 391 216 391 216 362 184 c 1,85,-1
 347 248 l 1,86,87
 377 283 377 283 421 305.5 c 128,-1,88
 465 328 465 328 514 328 c 0,89,90
 587 328 587 328 631.5 284 c 128,-1,91
 676 240 676 240 676 165 c 0,92,93
 676 110 676 110 655 70 c 128,-1,94
 634 30 634 30 595.5 9 c 128,-1,95
 557 -12 557 -12 503 -12 c 0,50,51
782 0 m 1,96,-1
 782 482 l 1,97,-1
 746 482 l 1,98,-1
 748 554 l 1,99,-1
 1038 554 l 1,100,-1
 1038 482 l 1,101,-1
 868 482 l 1,102,-1
 868 0 l 1,103,-1
 782 0 l 1,96,-1
EndSplineSet
EndChar

StartChar: ttatamil
Encoding: 2975 2975 23
Width: 693
GlyphClass: 2
Flags: W
AnchorPoint: "Anchor-2" 346 -78 basechar 0
AnchorPoint: "Anchor-1" 346 -29 basechar 0
AnchorPoint: "Anchor-0" 346 -29 basechar 0
LayerCount: 2
Fore
SplineSet
88 0 m 1,0,-1
 88 554 l 1,1,-1
 174 554 l 1,2,-1
 174 72 l 1,3,-1
 676 72 l 1,4,-1
 676 0 l 1,5,-1
 88 0 l 1,0,-1
EndSplineSet
EndChar

StartChar: nnatamil
Encoding: 2979 2979 24
Width: 1648
GlyphClass: 2
Flags: W
AnchorPoint: "Anchor-2" 824 -78 basechar 0
AnchorPoint: "Anchor-1" 824 -29 basechar 0
AnchorPoint: "Anchor-0" 824 -29 basechar 0
LayerCount: 2
Fore
SplineSet
249 -12 m 0,0,1
 196 -12 196 -12 152 14.5 c 128,-1,2
 108 41 108 41 82.5 97 c 128,-1,3
 57 153 57 153 57 243 c 0,4,5
 57 342 57 342 100.5 414.5 c 128,-1,6
 144 487 144 487 223 526.5 c 128,-1,7
 302 566 302 566 408 566 c 0,8,9
 456 566 456 566 499.5 558.5 c 128,-1,10
 543 551 543 551 583 535.5 c 128,-1,11
 623 520 623 520 662 495 c 1,12,-1
 703 459 l 2,13,14
 760 407 760 407 792.5 339.5 c 128,-1,15
 825 272 825 272 825 189 c 0,16,17
 825 122 825 122 805.5 77.5 c 128,-1,18
 786 33 786 33 749.5 10.5 c 128,-1,19
 713 -12 713 -12 663 -12 c 0,20,21
 605 -12 605 -12 568.5 14 c 128,-1,22
 532 40 532 40 514.5 84.5 c 128,-1,23
 497 129 497 129 497 186 c 0,24,25
 497 239 497 239 508 287 c 128,-1,26
 519 335 519 335 541 377 c 128,-1,27
 563 419 563 419 596 454 c 1,28,-1
 644 495 l 2,29,30
 691 530 691 530 746 548 c 128,-1,31
 801 566 801 566 866 566 c 0,32,33
 911 566 911 566 948.5 558.5 c 128,-1,34
 986 551 986 551 1019.5 535.5 c 128,-1,35
 1053 520 1053 520 1084 497 c 2,36,-1
 1130 457 l 2,37,38
 1164 424 1164 424 1188.5 382.5 c 128,-1,39
 1213 341 1213 341 1226.5 292.5 c 128,-1,40
 1240 244 1240 244 1240 189 c 0,41,42
 1240 122 1240 122 1220.5 77.5 c 128,-1,43
 1201 33 1201 33 1164.5 10.5 c 128,-1,44
 1128 -12 1128 -12 1077 -12 c 0,45,46
 1020 -12 1020 -12 983.5 14 c 128,-1,47
 947 40 947 40 929.5 84.5 c 128,-1,48
 912 129 912 129 912 186 c 0,49,50
 912 237 912 237 922.5 283 c 128,-1,51
 933 329 933 329 957 373 c 128,-1,52
 981 417 981 417 1020 458 c 1,53,-1
 1065 495 l 1,54,55
 1095 513 1095 513 1129 526 c 128,-1,56
 1163 539 1163 539 1211.5 546.5 c 128,-1,57
 1260 554 1260 554 1333 554 c 2,58,-1
 1631 554 l 1,59,-1
 1631 482 l 1,60,-1
 1461 482 l 1,61,-1
 1461 0 l 1,62,-1
 1375 0 l 1,63,-1
 1375 482 l 1,64,-1
 1310 482 l 2,65,66
 1277 482 1277 482 1248.5 480 c 128,-1,67
 1220 478 1220 478 1194.5 472.5 c 128,-1,68
 1169 467 1169 467 1145 457 c 128,-1,69
 1121 447 1121 447 1096 430 c 0,70,71
 1063 409 1063 409 1041 371.5 c 128,-1,72
 1019 334 1019 334 1007.5 287 c 128,-1,73
 996 240 996 240 996 189 c 0,74,75
 996 120 996 120 1017 88 c 128,-1,76
 1038 56 1038 56 1074 56 c 0,77,78
 1106 56 1106 56 1123.5 75 c 128,-1,79
 1141 94 1141 94 1148 123 c 128,-1,80
 1155 152 1155 152 1155 182 c 0,81,82
 1155 239 1155 239 1140 288 c 128,-1,83
 1125 337 1125 337 1100.5 374 c 128,-1,84
 1076 411 1076 411 1047 432 c 0,85,86
 1005 466 1005 466 959.5 479.5 c 128,-1,87
 914 493 914 493 868 493 c 0,88,89
 812 493 812 493 764.5 479 c 128,-1,90
 717 465 717 465 672 429 c 0,91,92
 639 401 639 401 619 361.5 c 128,-1,93
 599 322 599 322 590 277.5 c 128,-1,94
 581 233 581 233 581 189 c 0,95,96
 581 120 581 120 602 88 c 128,-1,97
 623 56 623 56 660 56 c 0,98,99
 691 56 691 56 708.5 75 c 128,-1,100
 726 94 726 94 733 123 c 128,-1,101
 740 152 740 152 740 182 c 0,102,103
 740 262 740 262 709.5 325 c 128,-1,104
 679 388 679 388 621 433 c 0,105,106
 574 466 574 466 518 479 c 128,-1,107
 462 492 462 492 398 492 c 0,108,109
 324 492 324 492 269 465 c 128,-1,110
 214 438 214 438 181.5 391 c 128,-1,111
 149 344 149 344 139 283 c 0,112,113
 138 268 138 268 137 254.5 c 128,-1,114
 136 241 136 241 136 233 c 0,115,116
 136 168 136 168 151.5 129 c 128,-1,117
 167 90 167 90 193.5 73 c 128,-1,118
 220 56 220 56 253 56 c 0,119,120
 280 56 280 56 299.5 67.5 c 128,-1,121
 319 79 319 79 329.5 101 c 128,-1,122
 340 123 340 123 340 155 c 0,123,124
 340 205 340 205 314 231.5 c 128,-1,125
 288 258 288 258 247 258 c 0,126,127
 207 258 207 258 172 237 c 128,-1,128
 137 216 137 216 108 184 c 1,129,-1
 93 248 l 1,130,131
 123 283 123 283 167.5 305.5 c 128,-1,132
 212 328 212 328 261 328 c 0,133,134
 333 328 333 328 377.5 284 c 128,-1,135
 422 240 422 240 422 165 c 0,136,137
 422 110 422 110 401 70 c 128,-1,138
 380 30 380 30 341.5 9 c 128,-1,139
 303 -12 303 -12 249 -12 c 0,0,1
EndSplineSet
EndChar

StartChar: tatamil
Encoding: 2980 2980 25
Width: 825
GlyphClass: 2
Flags: W
AnchorPoint: "Anchor-2" 412 -200 basechar 0
AnchorPoint: "Anchor-1" 412 -29 basechar 0
AnchorPoint: "Anchor-0" 412 -29 basechar 0
LayerCount: 2
Fore
SplineSet
261 -12 m 0,0,1
 201 -12 201 -12 153 7 c 128,-1,2
 105 26 105 26 77 63 c 128,-1,3
 49 100 49 100 49 152 c 0,4,5
 49 206 49 206 77.5 245.5 c 128,-1,6
 106 285 106 285 168 306.5 c 128,-1,7
 230 328 230 328 332 328 c 2,8,-1
 477 328 l 2,9,10
 564 328 564 328 632 306.5 c 128,-1,11
 700 285 700 285 738.5 235 c 128,-1,12
 777 185 777 185 777 98 c 0,13,14
 777 31 777 31 752 -14.5 c 128,-1,15
 727 -60 727 -60 681 -94 c 0,16,17
 648 -117 648 -117 606.5 -131 c 128,-1,18
 565 -145 565 -145 511 -150.5 c 128,-1,19
 457 -156 457 -156 385 -156 c 2,20,-1
 272 -156 l 2,21,22
 230 -156 230 -156 207 -162 c 128,-1,23
 184 -168 184 -168 167 -179 c 0,24,25
 151 -190 151 -190 142 -210 c 128,-1,26
 133 -230 133 -230 133 -263 c 0,27,28
 133 -278 133 -278 134 -291.5 c 128,-1,29
 135 -305 135 -305 136 -317 c 1,30,-1
 54 -321 l 1,31,32
 51 -303 51 -303 49 -281.5 c 128,-1,33
 47 -260 47 -260 47 -243 c 0,34,35
 47 -199 47 -199 63 -168.5 c 128,-1,36
 79 -138 79 -138 104 -119 c 0,37,38
 122 -106 122 -106 141.5 -98.5 c 128,-1,39
 161 -91 161 -91 186.5 -87.5 c 128,-1,40
 212 -84 212 -84 245 -84 c 2,41,-1
 354 -84 l 2,42,43
 443 -84 443 -84 500 -76.5 c 128,-1,44
 557 -69 557 -69 592 -53.5 c 128,-1,45
 627 -38 627 -38 650 -13 c 0,46,47
 670 9 670 9 680.5 38.5 c 128,-1,48
 691 68 691 68 691 105 c 0,49,50
 691 154 691 154 671.5 184 c 128,-1,51
 652 214 652 214 619.5 230 c 128,-1,52
 587 246 587 246 547.5 252 c 128,-1,53
 508 258 508 258 467 258 c 2,54,-1
 325 258 l 2,55,56
 274 258 274 258 238.5 252 c 128,-1,57
 203 246 203 246 178 232 c 0,58,59
 156 219 156 219 145.5 200.5 c 128,-1,60
 135 182 135 182 135 153 c 0,61,62
 135 107 135 107 173 83.5 c 128,-1,63
 211 60 211 60 269 60 c 0,64,65
 313 60 313 60 344.5 73.5 c 128,-1,66
 376 87 376 87 393.5 120.5 c 128,-1,67
 411 154 411 154 411 213 c 2,68,-1
 411 482 l 1,69,-1
 239 482 l 1,70,-1
 239 302 l 1,71,-1
 160 286 l 1,72,-1
 160 554 l 1,73,-1
 683 554 l 1,74,-1
 683 482 l 1,75,-1
 496 482 l 1,76,-1
 496 226 l 2,77,78
 496 159 496 159 484.5 121 c 128,-1,79
 473 83 473 83 452 57 c 0,80,81
 421 19 421 19 372.5 3.5 c 128,-1,82
 324 -12 324 -12 261 -12 c 0,0,1
EndSplineSet
EndChar

StartChar: natamil
Encoding: 2984 2984 26
Width: 789
GlyphClass: 2
Flags: W
AnchorPoint: "Anchor-2" 395 -200 basechar 0
AnchorPoint: "Anchor-1" 395 -29 basechar 0
AnchorPoint: "Anchor-0" 395 -29 basechar 0
LayerCount: 2
Fore
SplineSet
557 362 m 0,0,1
 608 362 608 362 649.5 336 c 128,-1,2
 691 310 691 310 716 259 c 128,-1,3
 741 208 741 208 741 134 c 0,4,5
 741 44 741 44 715 -8 c 128,-1,6
 689 -60 689 -60 642 -94 c 0,7,8
 610 -117 610 -117 568.5 -131 c 128,-1,9
 527 -145 527 -145 473 -150.5 c 128,-1,10
 419 -156 419 -156 347 -156 c 2,11,-1
 272 -156 l 2,12,13
 230 -156 230 -156 207 -162 c 128,-1,14
 184 -168 184 -168 167 -179 c 0,15,16
 151 -190 151 -190 142 -210 c 128,-1,17
 133 -230 133 -230 133 -263 c 0,18,19
 133 -278 133 -278 134 -291.5 c 128,-1,20
 135 -305 135 -305 136 -317 c 1,21,-1
 54 -321 l 1,22,23
 51 -303 51 -303 49 -281.5 c 128,-1,24
 47 -260 47 -260 47 -243 c 0,25,26
 47 -199 47 -199 63 -168.5 c 128,-1,27
 79 -138 79 -138 104 -119 c 0,28,29
 122 -106 122 -106 141.5 -98.5 c 128,-1,30
 161 -91 161 -91 186.5 -87.5 c 128,-1,31
 212 -84 212 -84 245 -84 c 2,32,-1
 338 -84 l 2,33,34
 420 -84 420 -84 471.5 -77 c 128,-1,35
 523 -70 523 -70 555 -54.5 c 128,-1,36
 587 -39 587 -39 610 -14 c 0,37,38
 630 8 630 8 642.5 43.5 c 128,-1,39
 655 79 655 79 655 131 c 256,40,41
 655 183 655 183 641.5 218 c 128,-1,42
 628 253 628 253 601.5 271 c 128,-1,43
 575 289 575 289 536 289 c 0,44,45
 508 289 508 289 479.5 276.5 c 128,-1,46
 451 264 451 264 430 247 c 1,47,-1
 427 322 l 1,48,49
 453 338 453 338 485 350 c 128,-1,50
 517 362 517 362 557 362 c 0,0,1
88 0 m 1,51,-1
 88 554 l 1,52,-1
 609 554 l 1,53,-1
 609 482 l 1,54,-1
 434 482 l 1,55,-1
 434 0 l 1,56,-1
 348 0 l 1,57,-1
 348 482 l 1,58,-1
 174 482 l 1,59,-1
 174 0 l 1,60,-1
 88 0 l 1,51,-1
EndSplineSet
EndChar

StartChar: nnnatamil
Encoding: 2985 2985 27
Width: 1234
GlyphClass: 2
Flags: W
AnchorPoint: "Anchor-2" 617 -78 basechar 0
AnchorPoint: "Anchor-1" 617 -29 basechar 0
AnchorPoint: "Anchor-0" 617 -29 basechar 0
LayerCount: 2
Fore
SplineSet
249 -12 m 0,0,1
 196 -12 196 -12 152 14.5 c 128,-1,2
 108 41 108 41 82.5 97 c 128,-1,3
 57 153 57 153 57 243 c 0,4,5
 57 342 57 342 100.5 414.5 c 128,-1,6
 144 487 144 487 223 526.5 c 128,-1,7
 302 566 302 566 408 566 c 0,8,9
 456 566 456 566 499.5 558.5 c 128,-1,10
 543 551 543 551 583 535.5 c 128,-1,11
 623 520 623 520 662 495 c 1,12,-1
 708 453 l 2,13,14
 761 406 761 406 793 338.5 c 128,-1,15
 825 271 825 271 825 189 c 0,16,17
 825 122 825 122 805.5 77.5 c 128,-1,18
 786 33 786 33 749.5 10.5 c 128,-1,19
 713 -12 713 -12 663 -12 c 0,20,21
 605 -12 605 -12 568.5 14 c 128,-1,22
 532 40 532 40 514.5 84.5 c 128,-1,23
 497 129 497 129 497 186 c 0,24,25
 497 239 497 239 508.5 286 c 128,-1,26
 520 333 520 333 543 375 c 128,-1,27
 566 417 566 417 600 454 c 1,28,-1
 650 495 l 1,29,30
 680 513 680 513 714 526 c 128,-1,31
 748 539 748 539 796.5 546.5 c 128,-1,32
 845 554 845 554 918 554 c 2,33,-1
 1217 554 l 1,34,-1
 1217 482 l 1,35,-1
 1047 482 l 1,36,-1
 1047 0 l 1,37,-1
 961 0 l 1,38,-1
 961 482 l 1,39,-1
 895 482 l 2,40,41
 862 482 862 482 833 479.5 c 128,-1,42
 804 477 804 477 778 471.5 c 128,-1,43
 752 466 752 466 728 456 c 128,-1,44
 704 446 704 446 681 430 c 0,45,46
 648 409 648 409 626 370.5 c 128,-1,47
 604 332 604 332 592.5 284.5 c 128,-1,48
 581 237 581 237 581 189 c 0,49,50
 581 120 581 120 602 88 c 128,-1,51
 623 56 623 56 660 56 c 0,52,53
 691 56 691 56 708.5 75 c 128,-1,54
 726 94 726 94 733 123 c 128,-1,55
 740 152 740 152 740 182 c 0,56,57
 740 261 740 261 709.5 324.5 c 128,-1,58
 679 388 679 388 621 433 c 0,59,60
 574 466 574 466 518 479 c 128,-1,61
 462 492 462 492 398 492 c 0,62,63
 324 492 324 492 269 465 c 128,-1,64
 214 438 214 438 181.5 391 c 128,-1,65
 149 344 149 344 139 283 c 0,66,67
 138 268 138 268 137 254.5 c 128,-1,68
 136 241 136 241 136 233 c 0,69,70
 136 168 136 168 151.5 129 c 128,-1,71
 167 90 167 90 193.5 73 c 128,-1,72
 220 56 220 56 253 56 c 0,73,74
 280 56 280 56 299.5 67.5 c 128,-1,75
 319 79 319 79 329.5 101 c 128,-1,76
 340 123 340 123 340 155 c 0,77,78
 340 205 340 205 314 231.5 c 128,-1,79
 288 258 288 258 247 258 c 0,80,81
 207 258 207 258 172 237 c 128,-1,82
 137 216 137 216 108 184 c 1,83,-1
 93 248 l 1,84,85
 123 283 123 283 167.5 305.5 c 128,-1,86
 212 328 212 328 261 328 c 0,87,88
 333 328 333 328 377.5 284 c 128,-1,89
 422 240 422 240 422 165 c 0,90,91
 422 110 422 110 401 70 c 128,-1,92
 380 30 380 30 341.5 9 c 128,-1,93
 303 -12 303 -12 249 -12 c 0,0,1
EndSplineSet
EndChar

StartChar: patamil
Encoding: 2986 2986 28
Width: 778
GlyphClass: 2
Flags: W
AnchorPoint: "Anchor-2" 389 -78 basechar 0
AnchorPoint: "Anchor-1" 389 -29 basechar 0
AnchorPoint: "Anchor-0" 389 -29 basechar 0
LayerCount: 2
Fore
SplineSet
88 0 m 1,0,-1
 88 554 l 1,1,-1
 174 554 l 1,2,-1
 174 72 l 1,3,-1
 604 72 l 1,4,-1
 604 554 l 1,5,-1
 690 554 l 1,6,-1
 690 0 l 1,7,-1
 88 0 l 1,0,-1
EndSplineSet
EndChar

StartChar: matamil
Encoding: 2990 2990 29
Width: 858
GlyphClass: 2
Flags: W
AnchorPoint: "Anchor-2" 429 -78 basechar 0
AnchorPoint: "Anchor-1" 429 -29 basechar 0
AnchorPoint: "Anchor-0" 429 -29 basechar 0
LayerCount: 2
Fore
SplineSet
580 566 m 0,0,1
 655 566 655 566 703 527.5 c 128,-1,2
 751 489 751 489 774 420.5 c 128,-1,3
 797 352 797 352 797 262 c 0,4,5
 797 192 797 192 782 142 c 128,-1,6
 767 92 767 92 734 60 c 0,7,8
 711 37 711 37 681 24 c 128,-1,9
 651 11 651 11 610.5 5.5 c 128,-1,10
 570 0 570 0 512 0 c 2,11,-1
 88 0 l 1,12,-1
 88 554 l 1,13,-1
 174 554 l 1,14,-1
 174 72 l 1,15,-1
 400 72 l 1,16,-1
 400 355 l 2,17,18
 400 417 400 417 411.5 453.5 c 128,-1,19
 423 490 423 490 445 515 c 0,20,21
 468 540 468 540 500 553 c 128,-1,22
 532 566 532 566 580 566 c 0,0,1
578 494 m 0,23,24
 561 494 561 494 545 488.5 c 128,-1,25
 529 483 529 483 518 471 c 0,26,27
 502 453 502 453 494 426.5 c 128,-1,28
 486 400 486 400 486 338 c 2,29,-1
 486 72 l 1,30,-1
 533 72 l 2,31,32
 601 72 601 72 639 91 c 128,-1,33
 677 110 677 110 693 153 c 128,-1,34
 709 196 709 196 709 267 c 0,35,36
 709 331 709 331 695.5 382 c 128,-1,37
 682 433 682 433 653.5 463.5 c 128,-1,38
 625 494 625 494 578 494 c 0,23,24
EndSplineSet
EndChar

StartChar: yatamil
Encoding: 2991 2991 30
Width: 963
GlyphClass: 2
Flags: W
AnchorPoint: "Anchor-2" 481 -78 basechar 0
AnchorPoint: "Anchor-1" 481 -29 basechar 0
AnchorPoint: "Anchor-0" 481 -29 basechar 0
LayerCount: 2
Fore
SplineSet
354 0 m 1,0,-1
 354 554 l 1,1,-1
 440 554 l 1,2,-1
 440 72 l 1,3,-1
 789 72 l 1,4,-1
 789 554 l 1,5,-1
 875 554 l 1,6,-1
 875 0 l 1,7,-1
 354 0 l 1,0,-1
240 -11 m 0,8,9
 203 -11 203 -11 175.5 1.5 c 128,-1,10
 148 14 148 14 129 36 c 0,11,12
 118 51 118 51 108.5 70 c 128,-1,13
 99 89 99 89 93.5 120 c 128,-1,14
 88 151 88 151 88 202 c 2,15,-1
 88 554 l 1,16,-1
 174 554 l 1,17,-1
 174 223 l 2,18,19
 174 177 174 177 178 139.5 c 128,-1,20
 182 102 182 102 202 82 c 0,21,22
 212 72 212 72 225.5 66.5 c 128,-1,23
 239 61 239 61 258 61 c 0,24,25
 287 61 287 61 312.5 76 c 128,-1,26
 338 91 338 91 360 125 c 1,27,-1
 358 39 l 1,28,29
 339 20 339 20 310 4.5 c 128,-1,30
 281 -11 281 -11 240 -11 c 0,8,9
EndSplineSet
EndChar

StartChar: ratamil
Encoding: 2992 2992 31
Width: 640
GlyphClass: 2
Flags: W
AnchorPoint: "Anchor-2" 320 -225 basechar 0
AnchorPoint: "Anchor-1" 320 -29 basechar 0
AnchorPoint: "Anchor-0" 320 -29 basechar 0
LayerCount: 2
Fore
SplineSet
231 -212 m 1,0,-1
 174 -159 l 1,1,-1
 367 24 l 1,2,-1
 367 482 l 1,3,-1
 174 482 l 1,4,-1
 174 0 l 1,5,-1
 88 0 l 1,6,-1
 88 554 l 1,7,-1
 623 554 l 1,8,-1
 623 482 l 1,9,-1
 453 482 l 1,10,-1
 453 0 l 1,11,-1
 231 -212 l 1,0,-1
EndSplineSet
EndChar

StartChar: rratamil
Encoding: 2993 2993 32
Width: 869
GlyphClass: 2
Flags: W
AnchorPoint: "Anchor-2" 435 -200 basechar 0
AnchorPoint: "Anchor-1" 434 -29 basechar 0
AnchorPoint: "Anchor-0" 434 -29 basechar 0
LayerCount: 2
Fore
SplineSet
570 566 m 0,0,1
 646 566 646 566 698.5 528 c 128,-1,2
 751 490 751 490 778 418.5 c 128,-1,3
 805 347 805 347 805 244 c 0,4,5
 805 122 805 122 774 44.5 c 128,-1,6
 743 -33 743 -33 690 -77 c 0,7,8
 652 -108 652 -108 604 -125.5 c 128,-1,9
 556 -143 556 -143 501.5 -149.5 c 128,-1,10
 447 -156 447 -156 388 -156 c 2,11,-1
 270 -156 l 2,12,13
 228 -156 228 -156 205 -162 c 128,-1,14
 182 -168 182 -168 165 -179 c 0,15,16
 149 -190 149 -190 140 -210 c 128,-1,17
 131 -230 131 -230 131 -263 c 0,18,19
 131 -278 131 -278 132 -291.5 c 128,-1,20
 133 -305 133 -305 134 -317 c 1,21,-1
 52 -321 l 1,22,23
 49 -303 49 -303 47 -281.5 c 128,-1,24
 45 -260 45 -260 45 -243 c 0,25,26
 45 -199 45 -199 61 -168.5 c 128,-1,27
 77 -138 77 -138 102 -119 c 0,28,29
 120 -106 120 -106 139.5 -98.5 c 128,-1,30
 159 -91 159 -91 184.5 -87.5 c 128,-1,31
 210 -84 210 -84 243 -84 c 2,32,-1
 366 -84 l 2,33,34
 459 -84 459 -84 525 -70.5 c 128,-1,35
 591 -57 591 -57 633.5 -22 c 128,-1,36
 676 13 676 13 696 78.5 c 128,-1,37
 716 144 716 144 716 247 c 0,38,39
 716 338 716 338 696.5 392 c 128,-1,40
 677 446 677 446 642.5 470 c 128,-1,41
 608 494 608 494 563 494 c 0,42,43
 537 494 537 494 514 485.5 c 128,-1,44
 491 477 491 477 474 458 c 0,45,46
 454 435 454 435 446 404 c 128,-1,47
 438 373 438 373 438 319 c 2,48,-1
 438 0 l 1,49,-1
 352 0 l 1,50,-1
 352 321 l 2,51,52
 352 370 352 370 347 404.5 c 128,-1,53
 342 439 342 439 327 461 c 0,54,55
 317 476 317 476 301 485 c 128,-1,56
 285 494 285 494 262 494 c 256,57,58
 239 494 239 494 223.5 485.5 c 128,-1,59
 208 477 208 477 197 463 c 0,60,61
 181 441 181 441 176.5 406 c 128,-1,62
 172 371 172 371 172 327 c 2,63,-1
 172 0 l 1,64,-1
 86 0 l 1,65,-1
 86 341 l 2,66,67
 86 390 86 390 90.5 423 c 128,-1,68
 95 456 95 456 107 480 c 128,-1,69
 119 504 119 504 139 524 c 0,70,71
 160 545 160 545 189 555.5 c 128,-1,72
 218 566 218 566 255 566 c 0,73,74
 294 566 294 566 324 552 c 128,-1,75
 354 538 354 538 376 510.5 c 128,-1,76
 398 483 398 483 411 443 c 1,77,-1
 390 450 l 1,78,79
 401 483 401 483 424.5 509.5 c 128,-1,80
 448 536 448 536 484.5 551 c 128,-1,81
 521 566 521 566 570 566 c 0,0,1
EndSplineSet
EndChar

StartChar: latamil
Encoding: 2994 2994 33
Width: 1013
GlyphClass: 2
Flags: W
AnchorPoint: "Anchor-2" 506 -78 basechar 0
AnchorPoint: "Anchor-1" 506 -29 basechar 0
AnchorPoint: "Anchor-0" 506 -29 basechar 0
LayerCount: 2
Fore
SplineSet
249 -12 m 0,0,1
 196 -12 196 -12 152 14 c 128,-1,2
 108 40 108 40 82.5 96.5 c 128,-1,3
 57 153 57 153 57 242 c 0,4,5
 57 323 57 323 81 384 c 128,-1,6
 105 445 105 445 147 485.5 c 128,-1,7
 189 526 189 526 243.5 546 c 128,-1,8
 298 566 298 566 359 566 c 0,9,10
 407 566 407 566 457 553 c 128,-1,11
 507 540 507 540 545 502 c 0,12,13
 573 475 573 475 588.5 440 c 128,-1,14
 604 405 604 405 610.5 359 c 128,-1,15
 617 313 617 313 617 252 c 0,16,17
 617 217 617 217 620.5 188 c 128,-1,18
 624 159 624 159 633 136 c 128,-1,19
 642 113 642 113 658 95 c 0,20,21
 673 79 673 79 694 70.5 c 128,-1,22
 715 62 715 62 744 62 c 0,23,24
 777 62 777 62 804 78 c 128,-1,25
 831 94 831 94 847 132 c 128,-1,26
 863 170 863 170 863 237 c 0,27,28
 863 303 863 303 847 359 c 128,-1,29
 831 415 831 415 802.5 461.5 c 128,-1,30
 774 508 774 508 738 547 c 1,31,-1
 816 600 l 1,32,33
 878 521 878 521 914 434 c 128,-1,34
 950 347 950 347 950 244 c 0,35,36
 950 159 950 159 925.5 102 c 128,-1,37
 901 45 901 45 854 16.5 c 128,-1,38
 807 -12 807 -12 737 -12 c 0,39,40
 694 -12 694 -12 658.5 0.5 c 128,-1,41
 623 13 623 13 597 38 c 0,42,43
 565 68 565 68 548 121 c 128,-1,44
 531 174 531 174 530 250 c 0,45,46
 530 286 530 286 526 324 c 128,-1,47
 522 362 522 362 510 396.5 c 128,-1,48
 498 431 498 431 472 455 c 0,49,50
 452 473 452 473 424 482.5 c 128,-1,51
 396 492 396 492 355 492 c 0,52,53
 286 492 286 492 237 458.5 c 128,-1,54
 188 425 188 425 162 366.5 c 128,-1,55
 136 308 136 308 136 232 c 0,56,57
 136 168 136 168 151.5 129 c 128,-1,58
 167 90 167 90 193.5 73 c 128,-1,59
 220 56 220 56 253 56 c 0,60,61
 280 56 280 56 299.5 67.5 c 128,-1,62
 319 79 319 79 329.5 101 c 128,-1,63
 340 123 340 123 340 155 c 0,64,65
 340 205 340 205 314 231.5 c 128,-1,66
 288 258 288 258 247 258 c 0,67,68
 207 258 207 258 172 237 c 128,-1,69
 137 216 137 216 108 184 c 1,70,-1
 93 248 l 1,71,72
 123 283 123 283 167.5 305.5 c 128,-1,73
 212 328 212 328 261 328 c 0,74,75
 333 328 333 328 377.5 284 c 128,-1,76
 422 240 422 240 422 165 c 0,77,78
 422 110 422 110 401 70 c 128,-1,79
 380 30 380 30 341.5 9 c 128,-1,80
 303 -12 303 -12 249 -12 c 0,0,1
EndSplineSet
EndChar

StartChar: llatamil
Encoding: 2995 2995 34
Width: 1070
GlyphClass: 2
Flags: W
AnchorPoint: "Anchor-2" 535 -78 basechar 0
AnchorPoint: "Anchor-1" 535 -29 basechar 0
AnchorPoint: "Anchor-0" 535 -29 basechar 0
LayerCount: 2
Fore
SplineSet
249 -12 m 0,0,1
 196 -12 196 -12 152 14.5 c 128,-1,2
 108 41 108 41 82.5 97 c 128,-1,3
 57 153 57 153 57 243 c 0,4,5
 57 325 57 325 81.5 385.5 c 128,-1,6
 106 446 106 446 149 486 c 128,-1,7
 192 526 192 526 246 546 c 128,-1,8
 300 566 300 566 358 566 c 0,9,10
 402 566 402 566 437 557.5 c 128,-1,11
 472 549 472 549 501 533.5 c 128,-1,12
 530 518 530 518 555 497 c 1,13,-1
 542 401 l 1,14,15
 507 445 507 445 462.5 468.5 c 128,-1,16
 418 492 418 492 355 492 c 0,17,18
 288 492 288 492 239 458.5 c 128,-1,19
 190 425 190 425 163 367.5 c 128,-1,20
 136 310 136 310 136 237 c 0,21,22
 136 170 136 170 151.5 130.5 c 128,-1,23
 167 91 167 91 193.5 73.5 c 128,-1,24
 220 56 220 56 253 56 c 0,25,26
 280 56 280 56 299.5 67.5 c 128,-1,27
 319 79 319 79 329.5 101 c 128,-1,28
 340 123 340 123 340 155 c 0,29,30
 340 205 340 205 314 231.5 c 128,-1,31
 288 258 288 258 247 258 c 0,32,33
 207 258 207 258 172 237 c 128,-1,34
 137 216 137 216 108 184 c 1,35,-1
 93 248 l 1,36,37
 123 283 123 283 167.5 305.5 c 128,-1,38
 212 328 212 328 261 328 c 0,39,40
 333 328 333 328 377.5 284 c 128,-1,41
 422 240 422 240 422 165 c 0,42,43
 422 110 422 110 401 70 c 128,-1,44
 380 30 380 30 341.5 9 c 128,-1,45
 303 -12 303 -12 249 -12 c 0,0,1
537 0 m 1,46,-1
 537 416 l 1,47,-1
 549 494 l 1,48,-1
 549 554 l 1,49,-1
 1053 554 l 1,50,-1
 1053 482 l 1,51,-1
 883 482 l 1,52,-1
 883 0 l 1,53,-1
 797 0 l 1,54,-1
 797 482 l 1,55,-1
 623 482 l 1,56,-1
 623 0 l 1,57,-1
 537 0 l 1,46,-1
EndSplineSet
EndChar

StartChar: lllatamil
Encoding: 2996 2996 35
Width: 858
GlyphClass: 2
Flags: W
AnchorPoint: "Anchor-2" 645 -239 basechar 0
AnchorPoint: "Anchor-1" 429 -29 basechar 0
AnchorPoint: "Anchor-0" 429 -29 basechar 0
LayerCount: 2
Fore
SplineSet
580 566 m 0,0,1
 655 566 655 566 703 527.5 c 128,-1,2
 751 489 751 489 774 420.5 c 128,-1,3
 797 352 797 352 797 262 c 0,4,5
 797 192 797 192 782 142 c 128,-1,6
 767 92 767 92 734 60 c 0,7,8
 711 37 711 37 681 24 c 128,-1,9
 651 11 651 11 610.5 5.5 c 128,-1,10
 570 0 570 0 512 0 c 2,11,-1
 88 0 l 1,12,-1
 88 554 l 1,13,-1
 174 554 l 1,14,-1
 174 72 l 1,15,-1
 400 72 l 1,16,-1
 400 355 l 2,17,18
 400 417 400 417 411.5 453.5 c 128,-1,19
 423 490 423 490 445 515 c 0,20,21
 468 540 468 540 500 553 c 128,-1,22
 532 566 532 566 580 566 c 0,0,1
578 494 m 0,23,24
 561 494 561 494 545 488.5 c 128,-1,25
 529 483 529 483 518 471 c 0,26,27
 502 453 502 453 494 426.5 c 128,-1,28
 486 400 486 400 486 338 c 2,29,-1
 486 72 l 1,30,-1
 533 72 l 2,31,32
 601 72 601 72 639 91 c 128,-1,33
 677 110 677 110 693 153 c 128,-1,34
 709 196 709 196 709 267 c 0,35,36
 709 331 709 331 695.5 382 c 128,-1,37
 682 433 682 433 653.5 463.5 c 128,-1,38
 625 494 625 494 578 494 c 0,23,24
220 -61 m 0,39,40
 237 -61 237 -61 255.5 -62.5 c 128,-1,41
 274 -64 274 -64 290 -66 c 1,42,-1
 282 -133 l 1,43,44
 272 -131 272 -131 260 -130.5 c 128,-1,45
 248 -130 248 -130 233 -130 c 0,46,47
 196 -130 196 -130 172.5 -142.5 c 128,-1,48
 149 -155 149 -155 149 -185 c 0,49,50
 149 -212 149 -212 168.5 -226.5 c 128,-1,51
 188 -241 188 -241 217.5 -246 c 128,-1,52
 247 -251 247 -251 276 -251 c 2,53,-1
 301 -251 l 2,54,55
 352 -251 352 -251 386 -239 c 128,-1,56
 420 -227 420 -227 442 -205 c 128,-1,57
 464 -183 464 -183 479 -152 c 0,58,59
 488 -135 488 -135 497 -124.5 c 128,-1,60
 506 -114 506 -114 522.5 -108.5 c 128,-1,61
 539 -103 539 -103 570 -101 c 1,62,-1
 645 -113 l 1,63,64
 602 -122 602 -122 582.5 -139.5 c 128,-1,65
 563 -157 563 -157 552 -182 c 0,66,67
 530 -224 530 -224 499.5 -255.5 c 128,-1,68
 469 -287 469 -287 420.5 -304 c 128,-1,69
 372 -321 372 -321 294 -321 c 2,70,-1
 269 -321 l 2,71,72
 223 -321 223 -321 180 -310.5 c 128,-1,73
 137 -300 137 -300 111 -282 c 0,74,75
 92 -268 92 -268 77.5 -244 c 128,-1,76
 63 -220 63 -220 63 -186 c 0,77,78
 63 -128 63 -128 106.5 -94.5 c 128,-1,79
 150 -61 150 -61 220 -61 c 0,39,40
549 -166 m 1,80,-1
 532 -157 l 1,81,82
 495 -149 495 -149 465.5 -131 c 128,-1,83
 436 -113 436 -113 419 -81 c 128,-1,84
 402 -49 402 -49 400 0 c 1,85,-1
 485 0 l 1,86,87
 486 -29 486 -29 495.5 -49.5 c 128,-1,88
 505 -70 505 -70 527 -81 c 0,89,90
 541 -87 541 -87 560.5 -90.5 c 128,-1,91
 580 -94 580 -94 611 -94 c 2,92,-1
 739 -94 l 1,93,-1
 739 -166 l 1,94,-1
 549 -166 l 1,80,-1
EndSplineSet
EndChar

StartChar: vatamil
Encoding: 2997 2997 36
Width: 1044
GlyphClass: 2
Flags: W
AnchorPoint: "Anchor-2" 522 -78 basechar 0
AnchorPoint: "Anchor-1" 522 -29 basechar 0
AnchorPoint: "Anchor-0" 522 -29 basechar 0
LayerCount: 2
Fore
SplineSet
249 -12 m 0,0,1
 196 -12 196 -12 152 14.5 c 128,-1,2
 108 41 108 41 82.5 97 c 128,-1,3
 57 153 57 153 57 243 c 0,4,5
 57 350 57 350 99.5 422 c 128,-1,6
 142 494 142 494 212 530 c 128,-1,7
 282 566 282 566 364 566 c 0,8,9
 440 566 440 566 494.5 543.5 c 128,-1,10
 549 521 549 521 583.5 481.5 c 128,-1,11
 618 442 618 442 634.5 390.5 c 128,-1,12
 651 339 651 339 651 280 c 0,13,14
 651 216 651 216 637 166 c 128,-1,15
 623 116 623 116 603 72 c 1,16,-1
 870 72 l 1,17,-1
 870 554 l 1,18,-1
 956 554 l 1,19,-1
 956 0 l 1,20,-1
 515 0 l 1,21,-1
 511 63 l 1,22,23
 534 98 534 98 548.5 149.5 c 128,-1,24
 563 201 563 201 563 269 c 0,25,26
 563 340 563 340 538 390 c 128,-1,27
 513 440 513 440 467.5 466 c 128,-1,28
 422 492 422 492 360 492 c 0,29,30
 290 492 290 492 240 458.5 c 128,-1,31
 190 425 190 425 163 367.5 c 128,-1,32
 136 310 136 310 136 237 c 0,33,34
 136 170 136 170 151.5 130.5 c 128,-1,35
 167 91 167 91 193.5 73.5 c 128,-1,36
 220 56 220 56 253 56 c 0,37,38
 279 56 279 56 298.5 67.5 c 128,-1,39
 318 79 318 79 329 101 c 128,-1,40
 340 123 340 123 340 155 c 0,41,42
 340 205 340 205 314 231.5 c 128,-1,43
 288 258 288 258 247 258 c 0,44,45
 207 258 207 258 172 237 c 128,-1,46
 137 216 137 216 108 184 c 1,47,-1
 93 248 l 1,48,49
 123 283 123 283 167.5 305.5 c 128,-1,50
 212 328 212 328 261 328 c 0,51,52
 333 328 333 328 377.5 284 c 128,-1,53
 422 240 422 240 422 165 c 0,54,55
 422 110 422 110 401 70 c 128,-1,56
 380 30 380 30 341.5 9 c 128,-1,57
 303 -12 303 -12 249 -12 c 0,0,1
EndSplineSet
EndChar

StartChar: shatamil
Encoding: 2998 2998 37
Width: 1172
GlyphClass: 2
Flags: W
AnchorPoint: "Anchor-2" 586 -78 basechar 0
AnchorPoint: "Anchor-1" 586 -29 basechar 0
AnchorPoint: "Anchor-0" 586 -29 basechar 0
LayerCount: 2
Fore
SplineSet
301 -12 m 0,0,1
 251 -12 251 -12 210 3 c 128,-1,2
 169 18 169 18 140 47 c 0,3,4
 113 76 113 76 99.5 119 c 128,-1,5
 86 162 86 162 86 229 c 2,6,-1
 86 554 l 1,7,-1
 172 554 l 1,8,-1
 172 245 l 2,9,10
 172 177 172 177 182 143.5 c 128,-1,11
 192 110 192 110 211 90 c 0,12,13
 227 74 227 74 249.5 67.5 c 128,-1,14
 272 61 272 61 301 61 c 0,15,16
 329 61 329 61 351.5 67.5 c 128,-1,17
 374 74 374 74 391 90 c 0,18,19
 411 110 411 110 420.5 143.5 c 128,-1,20
 430 177 430 177 430 245 c 2,21,-1
 430 554 l 1,22,-1
 1086 554 l 1,23,-1
 1086 233 l 2,24,25
 1086 169 1086 169 1072 122.5 c 128,-1,26
 1058 76 1058 76 1032 47 c 0,27,28
 1005 19 1005 19 964.5 3.5 c 128,-1,29
 924 -12 924 -12 871 -12 c 0,30,31
 821 -12 821 -12 780 3 c 128,-1,32
 739 18 739 18 710 47 c 0,33,34
 683 76 683 76 669.5 119.5 c 128,-1,35
 656 163 656 163 656 232 c 2,36,-1
 656 482 l 1,37,-1
 516 482 l 1,38,-1
 516 231 l 2,39,40
 516 163 516 163 502.5 119.5 c 128,-1,41
 489 76 489 76 462 47 c 0,42,43
 435 19 435 19 394.5 3.5 c 128,-1,44
 354 -12 354 -12 301 -12 c 0,0,1
871 61 m 0,45,46
 899 61 899 61 921 67.5 c 128,-1,47
 943 74 943 74 960 90 c 0,48,49
 980 110 980 110 990 143.5 c 128,-1,50
 1000 177 1000 177 1000 245 c 2,51,-1
 1000 482 l 1,52,-1
 742 482 l 1,53,-1
 742 245 l 2,54,55
 742 177 742 177 752 143.5 c 128,-1,56
 762 110 762 110 781 90 c 0,57,58
 797 74 797 74 819.5 67.5 c 128,-1,59
 842 61 842 61 871 61 c 0,45,46
EndSplineSet
EndChar

StartChar: ssatamil
Encoding: 2999 2999 38
Width: 1345
GlyphClass: 2
Flags: W
AnchorPoint: "Anchor-2" 610 -78 basechar 0
AnchorPoint: "Anchor-1" 673 -29 basechar 0
AnchorPoint: "Anchor-0" 673 -29 basechar 0
LayerCount: 2
Fore
SplineSet
909 566 m 0,0,1
 952 566 952 566 982.5 553.5 c 128,-1,2
 1013 541 1013 541 1032 518.5 c 128,-1,3
 1051 496 1051 496 1060 467 c 128,-1,4
 1069 438 1069 438 1069 406 c 0,5,6
 1069 368 1069 368 1062.5 327 c 128,-1,7
 1056 286 1056 286 1044 239 c 2,8,-1
 1032 191 l 1,9,-1
 912 -284 l 1,10,-1
 833 -262 l 1,11,-1
 901 8 l 1,12,-1
 915 64 l 1,13,-1
 957 230 l 2,14,15
 970 283 970 283 976 324.5 c 128,-1,16
 982 366 982 366 982 403 c 0,17,18
 982 447 982 447 963 470.5 c 128,-1,19
 944 494 944 494 909 494 c 0,20,21
 868 494 868 494 843 466 c 128,-1,22
 818 438 818 438 818 382 c 0,23,24
 818 337 818 337 839 308 c 128,-1,25
 860 279 860 279 897.5 265.5 c 128,-1,26
 935 252 935 252 984 252 c 2,27,-1
 1001 252 l 2,28,29
 1071 252 1071 252 1116 277.5 c 128,-1,30
 1161 303 1161 303 1188 328 c 1,31,-1
 1269 328 l 1,32,-1
 1269 0 l 1,33,-1
 780 0 l 1,34,-1
 798 72 l 1,35,-1
 1188 72 l 1,36,-1
 1188 153 l 2,37,38
 1188 176 1188 176 1189 201 c 128,-1,39
 1190 226 1190 226 1192 247 c 1,40,41
 1163 222 1163 222 1114 202 c 128,-1,42
 1065 182 1065 182 999 182 c 2,43,-1
 984 182 l 2,44,45
 930 182 930 182 885 194 c 128,-1,46
 840 206 840 206 806 231 c 128,-1,47
 772 256 772 256 753.5 294 c 128,-1,48
 735 332 735 332 735 384 c 0,49,50
 735 435 735 435 755.5 476 c 128,-1,51
 776 517 776 517 815 541.5 c 128,-1,52
 854 566 854 566 909 566 c 0,0,1
249 -12 m 0,53,54
 196 -12 196 -12 152 14.5 c 128,-1,55
 108 41 108 41 82.5 97 c 128,-1,56
 57 153 57 153 57 243 c 0,57,58
 57 350 57 350 99.5 422 c 128,-1,59
 142 494 142 494 212 530 c 128,-1,60
 282 566 282 566 364 566 c 0,61,62
 440 566 440 566 494.5 543.5 c 128,-1,63
 549 521 549 521 583.5 481.5 c 128,-1,64
 618 442 618 442 634.5 390.5 c 128,-1,65
 651 339 651 339 651 280 c 0,66,67
 651 216 651 216 637 166 c 128,-1,68
 623 116 623 116 603 72 c 1,69,-1
 869 72 l 1,70,-1
 867 0 l 1,71,-1
 515 0 l 1,72,-1
 511 63 l 1,73,74
 534 98 534 98 548.5 149.5 c 128,-1,75
 563 201 563 201 563 269 c 0,76,77
 563 340 563 340 538 390 c 128,-1,78
 513 440 513 440 467.5 466 c 128,-1,79
 422 492 422 492 360 492 c 0,80,81
 290 492 290 492 240 458.5 c 128,-1,82
 190 425 190 425 163 367.5 c 128,-1,83
 136 310 136 310 136 237 c 0,84,85
 136 170 136 170 151.5 130.5 c 128,-1,86
 167 91 167 91 193.5 73.5 c 128,-1,87
 220 56 220 56 253 56 c 0,88,89
 279 56 279 56 298.5 67.5 c 128,-1,90
 318 79 318 79 329 101 c 128,-1,91
 340 123 340 123 340 155 c 0,92,93
 340 205 340 205 314 231.5 c 128,-1,94
 288 258 288 258 247 258 c 0,95,96
 207 258 207 258 172 237 c 128,-1,97
 137 216 137 216 108 184 c 1,98,-1
 93 248 l 1,99,100
 123 283 123 283 167.5 305.5 c 128,-1,101
 212 328 212 328 261 328 c 0,102,103
 333 328 333 328 377.5 285.5 c 128,-1,104
 422 243 422 243 422 165 c 0,105,106
 422 110 422 110 401 70 c 128,-1,107
 380 30 380 30 341.5 9 c 128,-1,108
 303 -12 303 -12 249 -12 c 0,53,54
EndSplineSet
EndChar

StartChar: satamil
Encoding: 3000 3000 39
Width: 1285
GlyphClass: 2
Flags: W
AnchorPoint: "Anchor-2" 642 -78 basechar 0
AnchorPoint: "Anchor-1" 642 -29 basechar 0
AnchorPoint: "Anchor-0" 642 -29 basechar 0
LayerCount: 2
Fore
SplineSet
249 -12 m 0,0,1
 196 -12 196 -12 152 14 c 128,-1,2
 108 40 108 40 82.5 96.5 c 128,-1,3
 57 153 57 153 57 242 c 0,4,5
 57 323 57 323 81 384 c 128,-1,6
 105 445 105 445 147 485.5 c 128,-1,7
 189 526 189 526 243.5 546 c 128,-1,8
 298 566 298 566 359 566 c 0,9,10
 411 566 411 566 452.5 551.5 c 128,-1,11
 494 537 494 537 527.5 507 c 128,-1,12
 561 477 561 477 587 430 c 1,13,-1
 558 433 l 1,14,15
 567 468 567 468 588 498.5 c 128,-1,16
 609 529 609 529 641.5 547.5 c 128,-1,17
 674 566 674 566 719 566 c 0,18,19
 756 566 756 566 785.5 555 c 128,-1,20
 815 544 815 544 837 521 c 0,21,22
 863 494 863 494 876 452.5 c 128,-1,23
 889 411 889 411 889 343 c 2,24,-1
 889 255 l 2,25,26
 889 200 889 200 897 160.5 c 128,-1,27
 905 121 905 121 930 95 c 0,28,29
 945 79 945 79 966 70.5 c 128,-1,30
 987 62 987 62 1015 62 c 0,31,32
 1049 62 1049 62 1076 78 c 128,-1,33
 1103 94 1103 94 1119 132 c 128,-1,34
 1135 170 1135 170 1135 237 c 0,35,36
 1135 303 1135 303 1118.5 359 c 128,-1,37
 1102 415 1102 415 1074 461.5 c 128,-1,38
 1046 508 1046 508 1009 547 c 1,39,-1
 1087 600 l 1,40,41
 1149 521 1149 521 1185.5 434 c 128,-1,42
 1222 347 1222 347 1222 244 c 0,43,44
 1222 159 1222 159 1197.5 102 c 128,-1,45
 1173 45 1173 45 1126 16.5 c 128,-1,46
 1079 -12 1079 -12 1009 -12 c 0,47,48
 966 -12 966 -12 930.5 0.5 c 128,-1,49
 895 13 895 13 869 38 c 0,50,51
 848 58 848 58 833 88.5 c 128,-1,52
 818 119 818 119 810 159.5 c 128,-1,53
 802 200 802 200 802 250 c 2,54,-1
 802 288 l 2,55,56
 802 353 802 353 797.5 390 c 128,-1,57
 793 427 793 427 783 449 c 0,58,59
 773 473 773 473 755 483.5 c 128,-1,60
 737 494 737 494 714 494 c 0,61,62
 693 494 693 494 677.5 485 c 128,-1,63
 662 476 662 476 652 463 c 0,64,65
 637 444 637 444 630 417.5 c 128,-1,66
 623 391 623 391 623 351 c 2,67,-1
 623 0 l 1,68,-1
 537 0 l 1,69,-1
 537 293 l 2,70,71
 537 356 537 356 520 393.5 c 128,-1,72
 503 431 503 431 477 453 c 0,73,74
 449 476 449 476 420.5 484 c 128,-1,75
 392 492 392 492 355 492 c 0,76,77
 286 492 286 492 237 458.5 c 128,-1,78
 188 425 188 425 162 366.5 c 128,-1,79
 136 308 136 308 136 232 c 0,80,81
 136 168 136 168 151.5 129 c 128,-1,82
 167 90 167 90 193.5 73 c 128,-1,83
 220 56 220 56 253 56 c 0,84,85
 279 56 279 56 298.5 67.5 c 128,-1,86
 318 79 318 79 329 101 c 128,-1,87
 340 123 340 123 340 155 c 0,88,89
 340 205 340 205 314 231.5 c 128,-1,90
 288 258 288 258 247 258 c 0,91,92
 207 258 207 258 172 237 c 128,-1,93
 137 216 137 216 108 184 c 1,94,-1
 93 248 l 1,95,96
 123 283 123 283 167.5 305.5 c 128,-1,97
 212 328 212 328 261 328 c 0,98,99
 333 328 333 328 377.5 284 c 128,-1,100
 422 240 422 240 422 165 c 0,101,102
 422 110 422 110 401 70 c 128,-1,103
 380 30 380 30 341.5 9 c 128,-1,104
 303 -12 303 -12 249 -12 c 0,0,1
EndSplineSet
EndChar

StartChar: hatamil
Encoding: 3001 3001 40
Width: 1619
GlyphClass: 2
Flags: W
AnchorPoint: "Anchor-2" 812 -200 basechar 0
AnchorPoint: "Anchor-1" 812 -29 basechar 0
AnchorPoint: "Anchor-0" 812 -29 basechar 0
LayerCount: 2
Fore
SplineSet
1320 566 m 0,0,1
 1396 566 1396 566 1448.5 528 c 128,-1,2
 1501 490 1501 490 1528 418.5 c 128,-1,3
 1555 347 1555 347 1555 244 c 0,4,5
 1555 122 1555 122 1524 44.5 c 128,-1,6
 1493 -33 1493 -33 1440 -77 c 0,7,8
 1402 -108 1402 -108 1354 -125.5 c 128,-1,9
 1306 -143 1306 -143 1251.5 -149.5 c 128,-1,10
 1197 -156 1197 -156 1138 -156 c 2,11,-1
 272 -156 l 2,12,13
 230 -156 230 -156 207 -162 c 128,-1,14
 184 -168 184 -168 167 -179 c 0,15,16
 151 -190 151 -190 142 -210 c 128,-1,17
 133 -230 133 -230 133 -263 c 0,18,19
 133 -278 133 -278 134 -291.5 c 128,-1,20
 135 -305 135 -305 136 -317 c 1,21,-1
 54 -321 l 1,22,23
 51 -303 51 -303 49 -281.5 c 128,-1,24
 47 -260 47 -260 47 -243 c 0,25,26
 47 -199 47 -199 63 -168.5 c 128,-1,27
 79 -138 79 -138 104 -119 c 0,28,29
 122 -106 122 -106 141.5 -98.5 c 128,-1,30
 161 -91 161 -91 186.5 -87.5 c 128,-1,31
 212 -84 212 -84 245 -84 c 2,32,-1
 1116 -84 l 2,33,34
 1209 -84 1209 -84 1275 -70.5 c 128,-1,35
 1341 -57 1341 -57 1383.5 -22 c 128,-1,36
 1426 13 1426 13 1446 78.5 c 128,-1,37
 1466 144 1466 144 1466 247 c 0,38,39
 1466 338 1466 338 1446.5 392 c 128,-1,40
 1427 446 1427 446 1392.5 470 c 128,-1,41
 1358 494 1358 494 1314 494 c 0,42,43
 1287 494 1287 494 1264 485.5 c 128,-1,44
 1241 477 1241 477 1224 458 c 0,45,46
 1204 435 1204 435 1196 404 c 128,-1,47
 1188 373 1188 373 1188 319 c 2,48,-1
 1188 0 l 1,49,-1
 1102 0 l 1,50,-1
 1102 321 l 2,51,52
 1102 370 1102 370 1097 404.5 c 128,-1,53
 1092 439 1092 439 1077 461 c 0,54,55
 1067 476 1067 476 1051 485 c 128,-1,56
 1035 494 1035 494 1012 494 c 256,57,58
 989 494 989 494 973.5 485.5 c 128,-1,59
 958 477 958 477 947 463 c 0,60,61
 931 441 931 441 926.5 406.5 c 128,-1,62
 922 372 922 372 922 328 c 2,63,-1
 922 0 l 1,64,-1
 836 0 l 1,65,-1
 836 341 l 2,66,67
 836 390 836 390 840.5 423 c 128,-1,68
 845 456 845 456 857 480 c 128,-1,69
 869 504 869 504 889 524 c 0,70,71
 910 545 910 545 939 555.5 c 128,-1,72
 968 566 968 566 1005 566 c 0,73,74
 1044 566 1044 566 1074 552 c 128,-1,75
 1104 538 1104 538 1126 510.5 c 128,-1,76
 1148 483 1148 483 1161 443 c 1,77,-1
 1140 450 l 1,78,79
 1151 483 1151 483 1174.5 509.5 c 128,-1,80
 1198 536 1198 536 1234.5 551 c 128,-1,81
 1271 566 1271 566 1320 566 c 0,0,1
249 -12 m 0,82,83
 196 -12 196 -12 152 14.5 c 128,-1,84
 108 41 108 41 82.5 97 c 128,-1,85
 57 153 57 153 57 243 c 0,86,87
 57 350 57 350 99.5 422 c 128,-1,88
 142 494 142 494 212 530 c 128,-1,89
 282 566 282 566 364 566 c 0,90,91
 440 566 440 566 494.5 543.5 c 128,-1,92
 549 521 549 521 583.5 481.5 c 128,-1,93
 618 442 618 442 634.5 390.5 c 128,-1,94
 651 339 651 339 651 280 c 0,95,96
 651 216 651 216 637 166 c 128,-1,97
 623 116 623 116 603 72 c 1,98,-1
 869 72 l 1,99,-1
 867 0 l 1,100,-1
 515 0 l 1,101,-1
 511 63 l 1,102,103
 534 98 534 98 548.5 149.5 c 128,-1,104
 563 201 563 201 563 269 c 0,105,106
 563 340 563 340 538 390 c 128,-1,107
 513 440 513 440 467.5 466 c 128,-1,108
 422 492 422 492 360 492 c 0,109,110
 290 492 290 492 240 458.5 c 128,-1,111
 190 425 190 425 163 367.5 c 128,-1,112
 136 310 136 310 136 237 c 0,113,114
 136 170 136 170 151.5 130.5 c 128,-1,115
 167 91 167 91 193.5 73.5 c 128,-1,116
 220 56 220 56 253 56 c 0,117,118
 279 56 279 56 298.5 67.5 c 128,-1,119
 318 79 318 79 329 101 c 128,-1,120
 340 123 340 123 340 155 c 0,121,122
 340 205 340 205 314 231.5 c 128,-1,123
 288 258 288 258 247 258 c 0,124,125
 207 258 207 258 172 237 c 128,-1,126
 137 216 137 216 108 184 c 1,127,-1
 93 248 l 1,128,129
 123 283 123 283 167.5 305.5 c 128,-1,130
 212 328 212 328 261 328 c 0,131,132
 333 328 333 328 377.5 284 c 128,-1,133
 422 240 422 240 422 165 c 0,134,135
 422 110 422 110 401 70 c 128,-1,136
 380 30 380 30 341.5 9 c 128,-1,137
 303 -12 303 -12 249 -12 c 0,82,83
EndSplineSet
EndChar

StartChar: aavowelsigntamil
Encoding: 3006 3006 41
Width: 640
GlyphClass: 4
Flags: W
LayerCount: 2
Fore
SplineSet
88 0 m 1,0,-1
 88 554 l 1,1,-1
 623 554 l 1,2,-1
 623 482 l 1,3,-1
 453 482 l 1,4,-1
 453 0 l 1,5,-1
 367 0 l 1,6,-1
 367 482 l 1,7,-1
 174 482 l 1,8,-1
 174 0 l 1,9,-1
 88 0 l 1,0,-1
EndSplineSet
EndChar

StartChar: ivowelsigntamil
Encoding: 3007 3007 42
Width: 262
GlyphClass: 4
Flags: W
LayerCount: 2
Fore
SplineSet
-79 843 m 0,0,1
 -25 843 -25 843 19.5 825.5 c 128,-1,2
 64 808 64 808 98 773 c 0,3,4
 121 750 121 750 138 715.5 c 128,-1,5
 155 681 155 681 164.5 626.5 c 128,-1,6
 174 572 174 572 174 489 c 2,7,-1
 174 0 l 1,8,-1
 88 0 l 1,9,-1
 88 471 l 2,10,11
 88 543 88 543 81.5 590 c 128,-1,12
 75 637 75 637 63 667.5 c 128,-1,13
 51 698 51 698 34 718 c 0,14,15
 13 744 13 744 -16.5 756 c 128,-1,16
 -46 768 -46 768 -81 768 c 0,17,18
 -124 768 -124 768 -154 751.5 c 128,-1,19
 -184 735 -184 735 -199.5 705.5 c 128,-1,20
 -215 676 -215 676 -215 637 c 0,21,22
 -215 609 -215 609 -207 576.5 c 128,-1,23
 -199 544 -199 544 -182 515 c 1,24,-1
 -273 515 l 1,25,26
 -286 545 -286 545 -293.5 575 c 128,-1,27
 -301 605 -301 605 -301 636 c 0,28,29
 -301 690 -301 690 -283 729 c 128,-1,30
 -265 768 -265 768 -234 793 c 128,-1,31
 -203 818 -203 818 -163 830.5 c 128,-1,32
 -123 843 -123 843 -79 843 c 0,0,1
EndSplineSet
Substitution2: "Single Substitution lookup 9 subtable" ivowelsign4tamil
Substitution2: "Single Substitution lookup 8 subtable" ivowelsign3tamil
Substitution2: "Single Substitution lookup 7 subtable" ivowelsign1tamil
Substitution2: "Single Substitution lookup 6 subtable" ivowelsign2tamil
EndChar

StartChar: iivowelsigntamil
Encoding: 3008 3008 43
Width: 0
GlyphClass: 4
Flags: W
LayerCount: 2
Fore
SplineSet
-168 843 m 0,0,1
 -82 843 -82 843 -37 808.5 c 128,-1,2
 8 774 8 774 8 718 c 0,3,4
 8 655 8 655 -30 624.5 c 128,-1,5
 -68 594 -68 594 -123 594 c 0,6,7
 -181 594 -181 594 -216 623.5 c 128,-1,8
 -251 653 -251 653 -251 705 c 0,9,10
 -251 728 -251 728 -241.5 759 c 128,-1,11
 -232 790 -232 790 -205 818 c 1,12,-1
 -154 796 l 1,13,14
 -170 777 -170 777 -177.5 757.5 c 128,-1,15
 -185 738 -185 738 -185 719 c 0,16,17
 -185 697 -185 697 -177 683 c 128,-1,18
 -169 669 -169 669 -155 662.5 c 128,-1,19
 -141 656 -141 656 -123 656 c 0,20,21
 -94 656 -94 656 -78 672 c 128,-1,22
 -62 688 -62 688 -62 713 c 0,23,24
 -62 748 -62 748 -90 764 c 128,-1,25
 -118 780 -118 780 -162 780 c 0,26,27
 -170 780 -170 780 -181 779.5 c 128,-1,28
 -192 779 -192 779 -201 778 c 0,29,30
 -278 770 -278 770 -314 727.5 c 128,-1,31
 -350 685 -350 685 -350 626 c 0,32,33
 -350 598 -350 598 -343 575.5 c 128,-1,34
 -336 553 -336 553 -324 535 c 1,35,-1
 -408 529 l 1,36,37
 -417 549 -417 549 -422 573 c 128,-1,38
 -427 597 -427 597 -427 624 c 0,39,40
 -427 668 -427 668 -411.5 707.5 c 128,-1,41
 -396 747 -396 747 -364.5 777.5 c 128,-1,42
 -333 808 -333 808 -284 825.5 c 128,-1,43
 -235 843 -235 843 -168 843 c 0,0,1
EndSplineSet
EndChar

StartChar: uvowelsigntamil
Encoding: 3009 3009 44
Width: 502
GlyphClass: 4
Flags: W
LayerCount: 2
Fore
SplineSet
294 217 m 0,0,1
 236 217 236 217 198.5 235.5 c 128,-1,2
 161 254 161 254 140 283.5 c 128,-1,3
 119 313 119 313 110.5 348 c 128,-1,4
 102 383 102 383 102 416 c 0,5,6
 102 456 102 456 107 485.5 c 128,-1,7
 112 515 112 515 118 534 c 1,8,-1
 200 519 l 1,9,10
 194 497 194 497 190.5 474.5 c 128,-1,11
 187 452 187 452 187 419 c 0,12,13
 187 361 187 361 211 325.5 c 128,-1,14
 235 290 235 290 290 290 c 0,15,16
 320 290 320 290 339.5 301.5 c 128,-1,17
 359 313 359 313 368.5 333.5 c 128,-1,18
 378 354 378 354 378 379 c 256,19,20
 378 404 378 404 369 422.5 c 128,-1,21
 360 441 360 441 344 454 c 0,22,23
 328 468 328 468 301 475 c 128,-1,24
 274 482 274 482 210 482 c 2,25,-1
 -219 482 l 1,26,-1
 -219 554 l 1,27,-1
 228 554 l 2,28,29
 296 554 296 554 336.5 543 c 128,-1,30
 377 532 377 532 405 509 c 0,31,32
 431 487 431 487 447 455.5 c 128,-1,33
 463 424 463 424 463 378 c 0,34,35
 463 341 463 341 450.5 311 c 128,-1,36
 438 281 438 281 415.5 260 c 128,-1,37
 393 239 393 239 362 228 c 128,-1,38
 331 217 331 217 294 217 c 0,0,1
EndSplineSet
Substitution2: "Single Substitution lookup 6 subtable" uvowelsignalttamil
EndChar

StartChar: uuvowelsigntamil
Encoding: 3010 3010 45
Width: 844
GlyphClass: 4
Flags: W
LayerCount: 2
Fore
SplineSet
402 13 m 0,0,1
 333 13 333 13 272.5 26 c 128,-1,2
 212 39 212 39 163 60 c 128,-1,3
 114 81 114 81 78 105 c 1,4,-1
 120 174 l 1,5,6
 151 152 151 152 191.5 131.5 c 128,-1,7
 232 111 232 111 284 98.5 c 128,-1,8
 336 86 336 86 399 86 c 0,9,10
 464 86 464 86 518.5 103 c 128,-1,11
 573 120 573 120 614 157.5 c 128,-1,12
 655 195 655 195 677.5 257 c 128,-1,13
 700 319 700 319 700 408 c 0,14,15
 700 490 700 490 671.5 553 c 128,-1,16
 643 616 643 616 587.5 652.5 c 128,-1,17
 532 689 532 689 450 689 c 0,18,19
 386 689 386 689 338.5 667.5 c 128,-1,20
 291 646 291 646 261 609.5 c 128,-1,21
 231 573 231 573 219 529 c 1,22,-1
 216 503 l 2,23,24
 212 483 212 483 209.5 461.5 c 128,-1,25
 207 440 207 440 207 419 c 0,26,27
 207 352 207 352 234 321 c 128,-1,28
 261 290 261 290 310 290 c 0,29,30
 354 290 354 290 376 315.5 c 128,-1,31
 398 341 398 341 398 379 c 0,32,33
 398 404 398 404 389 422.5 c 128,-1,34
 380 441 380 441 364 454 c 0,35,36
 348 468 348 468 321 475 c 128,-1,37
 294 482 294 482 230 482 c 2,38,-1
 -219 482 l 1,39,-1
 -219 554 l 1,40,-1
 248 554 l 2,41,42
 316 554 316 554 356.5 543 c 128,-1,43
 397 532 397 532 425 509 c 0,44,45
 451 487 451 487 467 455.5 c 128,-1,46
 483 424 483 424 483 378 c 0,47,48
 483 341 483 341 470.5 311 c 128,-1,49
 458 281 458 281 435.5 260 c 128,-1,50
 413 239 413 239 382 228 c 128,-1,51
 351 217 351 217 314 217 c 0,52,53
 244 217 244 217 202 246.5 c 128,-1,54
 160 276 160 276 141 323.5 c 128,-1,55
 122 371 122 371 122 424 c 0,56,57
 122 444 122 444 124.5 464.5 c 128,-1,58
 127 485 127 485 131 505 c 2,59,-1
 132 534 l 1,60,61
 150 600 150 600 192.5 652 c 128,-1,62
 235 704 235 704 300.5 734 c 128,-1,63
 366 764 366 764 453 764 c 0,64,65
 533 764 533 764 595 738.5 c 128,-1,66
 657 713 657 713 699.5 665.5 c 128,-1,67
 742 618 742 618 764.5 553 c 128,-1,68
 787 488 787 488 787 408 c 0,69,70
 787 302 787 302 758 226.5 c 128,-1,71
 729 151 729 151 677 104 c 128,-1,72
 625 57 625 57 555 35 c 128,-1,73
 485 13 485 13 402 13 c 0,0,1
EndSplineSet
Substitution2: "Single Substitution lookup 6 subtable" uuvowelsignalttamil
EndChar

StartChar: evowelsigntamil
Encoding: 3014 3014 46
Width: 901
GlyphClass: 2
Flags: W
AnchorPoint: "Anchor-2" 450 -78 basechar 0
LayerCount: 2
Fore
SplineSet
400 -12 m 0,0,1
 325 -12 325 -12 262.5 17 c 128,-1,2
 200 46 200 46 153.5 99 c 128,-1,3
 107 152 107 152 82 227 c 128,-1,4
 57 302 57 302 57 393 c 0,5,6
 57 505 57 505 93.5 589 c 128,-1,7
 130 673 130 673 190.5 729.5 c 128,-1,8
 251 786 251 786 325 814.5 c 128,-1,9
 399 843 399 843 475 843 c 0,10,11
 555 843 555 843 611 823 c 128,-1,12
 667 803 667 803 707 768 c 0,13,14
 745 735 745 735 768 689.5 c 128,-1,15
 791 644 791 644 802 578 c 128,-1,16
 813 512 813 512 813 415 c 2,17,-1
 813 0 l 1,18,-1
 727 0 l 1,19,-1
 727 365 l 2,20,21
 727 457 727 457 720 522 c 128,-1,22
 713 587 713 587 696 632.5 c 128,-1,23
 679 678 679 678 648 709 c 0,24,25
 620 738 620 738 577 753 c 128,-1,26
 534 768 534 768 475 768 c 0,27,28
 424 768 424 768 366 748 c 128,-1,29
 308 728 308 728 257.5 683 c 128,-1,30
 207 638 207 638 175 565 c 128,-1,31
 143 492 143 492 143 385 c 0,32,33
 143 323 143 323 155.5 272.5 c 128,-1,34
 168 222 168 222 191 183 c 128,-1,35
 214 144 214 144 245 117 c 128,-1,36
 276 90 276 90 313 75 c 1,37,-1
 329 71 l 2,38,39
 349 64 349 64 369.5 61 c 128,-1,40
 390 58 390 58 411 58 c 0,41,42
 462 58 462 58 492.5 86.5 c 128,-1,43
 523 115 523 115 523 173 c 0,44,45
 523 218 523 218 498.5 247.5 c 128,-1,46
 474 277 474 277 430 277 c 0,47,48
 387 277 387 277 361 249 c 128,-1,49
 335 221 335 221 335 171 c 0,50,51
 335 135 335 135 347 102 c 128,-1,52
 359 69 359 69 384 43 c 1,53,-1
 326 27 l 1,54,55
 299 53 299 53 278 92.5 c 128,-1,56
 257 132 257 132 257 192 c 0,57,58
 257 234 257 234 276 269.5 c 128,-1,59
 295 305 295 305 334 327 c 128,-1,60
 373 349 373 349 432 349 c 0,61,62
 481 349 481 349 519 328.5 c 128,-1,63
 557 308 557 308 579.5 268.5 c 128,-1,64
 602 229 602 229 602 173 c 0,65,66
 602 108 602 108 574.5 67 c 128,-1,67
 547 26 547 26 501.5 7 c 128,-1,68
 456 -12 456 -12 400 -12 c 0,0,1
EndSplineSet
EndChar

StartChar: eevowelsigntamil
Encoding: 3015 3015 47
Width: 720
GlyphClass: 2
Flags: W
AnchorPoint: "Anchor-2" 360 -78 basechar 0
LayerCount: 2
Fore
SplineSet
451 -12 m 0,0,1
 370 -12 370 -12 298.5 15.5 c 128,-1,2
 227 43 227 43 172.5 97 c 128,-1,3
 118 151 118 151 87 231 c 128,-1,4
 56 311 56 311 56 415 c 256,5,6
 56 519 56 519 88.5 599 c 128,-1,7
 121 679 121 679 178.5 733.5 c 128,-1,8
 236 788 236 788 312 815.5 c 128,-1,9
 388 843 388 843 475 843 c 0,10,11
 535 843 535 843 584.5 825 c 128,-1,12
 634 807 634 807 663.5 768.5 c 128,-1,13
 693 730 693 730 693 667 c 0,14,15
 693 615 693 615 671 578.5 c 128,-1,16
 649 542 649 542 611 523 c 128,-1,17
 573 504 573 504 524 504 c 0,18,19
 473 504 473 504 437 523.5 c 128,-1,20
 401 543 401 543 382 577.5 c 128,-1,21
 363 612 363 612 363 656 c 256,22,23
 363 700 363 700 382 735 c 128,-1,24
 401 770 401 770 427 792 c 1,25,-1
 484 774 l 1,26,27
 462 749 462 749 452.5 722 c 128,-1,28
 443 695 443 695 443 665 c 0,29,30
 443 620 443 620 466 597 c 128,-1,31
 489 574 489 574 526 574 c 0,32,33
 567 574 567 574 589.5 600.5 c 128,-1,34
 612 627 612 627 612 667 c 0,35,36
 612 703 612 703 594.5 726 c 128,-1,37
 577 749 577 749 547.5 760.5 c 128,-1,38
 518 772 518 772 481 772 c 0,39,40
 470 772 470 772 455 772 c 128,-1,41
 440 772 440 772 424 770 c 0,42,43
 367 761 367 761 316.5 735.5 c 128,-1,44
 266 710 266 710 226.5 666 c 128,-1,45
 187 622 187 622 164.5 560.5 c 128,-1,46
 142 499 142 499 142 418 c 0,47,48
 142 339 142 339 162 277.5 c 128,-1,49
 182 216 182 216 217.5 171.5 c 128,-1,50
 253 127 253 127 299.5 100.5 c 128,-1,51
 346 74 346 74 400 63 c 0,52,53
 417 59 417 59 434 58.5 c 128,-1,54
 451 58 451 58 464 58 c 0,55,56
 504 58 504 58 534 70.5 c 128,-1,57
 564 83 564 83 581 108.5 c 128,-1,58
 598 134 598 134 598 173 c 0,59,60
 598 217 598 217 576.5 246.5 c 128,-1,61
 555 276 555 276 510 276 c 0,62,63
 471 276 471 276 445.5 249.5 c 128,-1,64
 420 223 420 223 420 171 c 0,65,66
 420 135 420 135 432 102 c 128,-1,67
 444 69 444 69 468 43 c 1,68,-1
 406 27 l 1,69,70
 379 53 379 53 359.5 91.5 c 128,-1,71
 340 130 340 130 340 185 c 0,72,73
 340 231 340 231 360 267.5 c 128,-1,74
 380 304 380 304 418 325 c 128,-1,75
 456 346 456 346 510 346 c 0,76,77
 559 346 559 346 597 326 c 128,-1,78
 635 306 635 306 657 267.5 c 128,-1,79
 679 229 679 229 679 173 c 0,80,81
 679 108 679 108 649 67 c 128,-1,82
 619 26 619 26 567.5 7 c 128,-1,83
 516 -12 516 -12 451 -12 c 0,0,1
EndSplineSet
EndChar

StartChar: aivowelsigntamil
Encoding: 3016 3016 48
Width: 1160
Flags: W
LayerCount: 2
Fore
SplineSet
249 -12 m 0,0,1
 196 -12 196 -12 152 14.5 c 128,-1,2
 108 41 108 41 82.5 97 c 128,-1,3
 57 153 57 153 57 243 c 0,4,5
 57 342 57 342 100.5 414.5 c 128,-1,6
 144 487 144 487 223 526.5 c 128,-1,7
 302 566 302 566 408 566 c 0,8,9
 456 566 456 566 499 558.5 c 128,-1,10
 542 551 542 551 582 536 c 128,-1,11
 622 521 622 521 659 497 c 1,12,-1
 695 466 l 2,13,14
 758 415 758 415 791.5 343 c 128,-1,15
 825 271 825 271 825 189 c 0,16,17
 825 122 825 122 805.5 77.5 c 128,-1,18
 786 33 786 33 749.5 10.5 c 128,-1,19
 713 -12 713 -12 663 -12 c 0,20,21
 605 -12 605 -12 568.5 14 c 128,-1,22
 532 40 532 40 514.5 84.5 c 128,-1,23
 497 129 497 129 497 186 c 0,24,25
 497 245 497 245 509.5 293.5 c 128,-1,26
 522 342 522 342 544.5 382.5 c 128,-1,27
 567 423 567 423 597 457 c 2,28,-1
 640 498 l 2,29,30
 680 531 680 531 727 548.5 c 128,-1,31
 774 566 774 566 828 566 c 0,32,33
 922 566 922 566 981 526.5 c 128,-1,34
 1040 487 1040 487 1068 422 c 128,-1,35
 1096 357 1096 357 1096 280 c 0,36,37
 1096 211 1096 211 1082.5 157.5 c 128,-1,38
 1069 104 1069 104 1048.5 62.5 c 128,-1,39
 1028 21 1028 21 1005 -12 c 1,40,-1
 933 32 l 1,41,42
 965 77 965 77 986.5 134.5 c 128,-1,43
 1008 192 1008 192 1008 276 c 0,44,45
 1008 342 1008 342 986 390.5 c 128,-1,46
 964 439 964 439 922.5 465.5 c 128,-1,47
 881 492 881 492 821 492 c 0,48,49
 775 492 775 492 741.5 480 c 128,-1,50
 708 468 708 468 673 439 c 1,51,52
 641 406 641 406 620.5 367 c 128,-1,53
 600 328 600 328 590.5 283.5 c 128,-1,54
 581 239 581 239 581 189 c 0,55,56
 581 120 581 120 602 88 c 128,-1,57
 623 56 623 56 660 56 c 0,58,59
 691 56 691 56 708.5 75 c 128,-1,60
 726 94 726 94 733 123 c 128,-1,61
 740 152 740 152 740 182 c 0,62,63
 740 262 740 262 709.5 325 c 128,-1,64
 679 388 679 388 621 433 c 0,65,66
 574 466 574 466 518 479 c 128,-1,67
 462 492 462 492 398 492 c 0,68,69
 324 492 324 492 269 465 c 128,-1,70
 214 438 214 438 181.5 391 c 128,-1,71
 149 344 149 344 139 283 c 0,72,73
 138 268 138 268 137 254.5 c 128,-1,74
 136 241 136 241 136 233 c 0,75,76
 136 168 136 168 151.5 129 c 128,-1,77
 167 90 167 90 194 73 c 128,-1,78
 221 56 221 56 254 56 c 0,79,80
 281 56 281 56 300 67.5 c 128,-1,81
 319 79 319 79 329.5 101 c 128,-1,82
 340 123 340 123 340 155 c 0,83,84
 340 205 340 205 314 231.5 c 128,-1,85
 288 258 288 258 247 258 c 0,86,87
 207 258 207 258 172 237 c 128,-1,88
 137 216 137 216 108 184 c 1,89,-1
 93 248 l 1,90,91
 123 283 123 283 167.5 305.5 c 128,-1,92
 212 328 212 328 261 328 c 0,93,94
 333 328 333 328 377.5 284 c 128,-1,95
 422 240 422 240 422 165 c 0,96,97
 422 110 422 110 401 70 c 128,-1,98
 380 30 380 30 341.5 9 c 128,-1,99
 303 -12 303 -12 249 -12 c 0,0,1
EndSplineSet
EndChar

StartChar: viramatamil
Encoding: 3021 3021 52
Width: 0
GlyphClass: 4
Flags: W
LayerCount: 2
Fore
SplineSet
-278 678 m 256,0,1
 -307 678 -307 678 -326 696.5 c 128,-1,2
 -345 715 -345 715 -345 745 c 0,3,4
 -345 774 -345 774 -326 793 c 128,-1,5
 -307 812 -307 812 -278 812 c 256,6,7
 -249 812 -249 812 -230 793 c 128,-1,8
 -211 774 -211 774 -211 745 c 0,9,10
 -211 715 -211 715 -230 696.5 c 128,-1,11
 -249 678 -249 678 -278 678 c 256,0,1
EndSplineSet
EndChar

StartChar: ohmsigntamil
Encoding: 3024 3024 53
Width: 1141
Flags: W
LayerCount: 2
Fore
SplineSet
582 566 m 0,0,1
 681 566 681 566 764 551.5 c 128,-1,2
 847 537 847 537 913.5 505 c 128,-1,3
 980 473 980 473 1027 419 c 0,4,5
 1056 386 1056 386 1072.5 345.5 c 128,-1,6
 1089 305 1089 305 1089 256 c 0,7,8
 1089 223 1089 223 1081.5 189 c 128,-1,9
 1074 155 1074 155 1055 126.5 c 128,-1,10
 1036 98 1036 98 1003.5 81 c 128,-1,11
 971 64 971 64 921 64 c 0,12,13
 879 64 879 64 843.5 78 c 128,-1,14
 808 92 808 92 787 123 c 128,-1,15
 766 154 766 154 766 203 c 0,16,17
 766 226 766 226 772.5 254 c 128,-1,18
 779 282 779 282 795 299 c 1,19,-1
 807 295 l 1,20,21
 754 266 754 266 728 225 c 128,-1,22
 702 184 702 184 702 134 c 0,23,24
 702 98 702 98 712 70.5 c 128,-1,25
 722 43 722 43 741 23 c 0,26,27
 761 2 761 2 788.5 -11.5 c 128,-1,28
 816 -25 816 -25 855.5 -31 c 128,-1,29
 895 -37 895 -37 951 -37 c 2,30,-1
 1032 -37 l 1,31,-1
 1032 -108 l 1,32,-1
 945 -108 l 2,33,34
 893 -108 893 -108 863 -104 c 128,-1,35
 833 -100 833 -100 811 -94 c 0,36,37
 740 -74 740 -74 698.5 -40.5 c 128,-1,38
 657 -7 657 -7 639 36 c 128,-1,39
 621 79 621 79 621 126 c 0,40,41
 621 175 621 175 640.5 218 c 128,-1,42
 660 261 660 261 696.5 297 c 128,-1,43
 733 333 733 333 782 358 c 1,44,-1
 863 319 l 1,45,46
 851 294 851 294 844.5 273.5 c 128,-1,47
 838 253 838 253 838 221 c 0,48,49
 838 186 838 186 855 160.5 c 128,-1,50
 872 135 872 135 921 135 c 0,51,52
 949 135 949 135 967 149.5 c 128,-1,53
 985 164 985 164 994 189 c 128,-1,54
 1003 214 1003 214 1003 245 c 0,55,56
 1003 323 1003 323 954.5 377.5 c 128,-1,57
 906 432 906 432 813 460.5 c 128,-1,58
 720 489 720 489 584 489 c 0,59,60
 451 489 451 489 363.5 470.5 c 128,-1,61
 276 452 276 452 225.5 423.5 c 128,-1,62
 175 395 175 395 151 364 c 1,63,64
 141 344 141 344 136 321.5 c 128,-1,65
 131 299 131 299 131 267 c 0,66,67
 131 228 131 228 145 202.5 c 128,-1,68
 159 177 159 177 182 164.5 c 128,-1,69
 205 152 205 152 230 152 c 0,70,71
 257 152 257 152 276 162.5 c 128,-1,72
 295 173 295 173 305 192.5 c 128,-1,73
 315 212 315 212 315 240 c 0,74,75
 315 284 315 284 291.5 308 c 128,-1,76
 268 332 268 332 230 332 c 0,77,78
 201 332 201 332 174.5 318 c 128,-1,79
 148 304 148 304 125 281 c 1,80,-1
 134 356 l 1,81,82
 156 376 156 376 186 389 c 128,-1,83
 216 402 216 402 256 402 c 0,84,85
 297 402 297 402 329 384 c 128,-1,86
 361 366 361 366 379 332 c 128,-1,87
 397 298 397 298 397 249 c 0,88,89
 397 198 397 198 377 161 c 128,-1,90
 357 124 357 124 319 104 c 128,-1,91
 281 84 281 84 225 84 c 0,92,93
 182 84 182 84 142.5 105.5 c 128,-1,94
 103 127 103 127 77.5 169.5 c 128,-1,95
 52 212 52 212 52 274 c 0,96,97
 52 332 52 332 76.5 378 c 128,-1,98
 101 424 101 424 143 458 c 0,99,100
 199 503 199 503 267.5 526 c 128,-1,101
 336 549 336 549 415 557.5 c 128,-1,102
 494 566 494 566 582 566 c 0,0,1
89 -131 m 0,103,104
 89 -102 89 -102 101.5 -59 c 128,-1,105
 114 -16 114 -16 141 21 c 1,106,-1
 210 -14 l 1,107,108
 187 -48 187 -48 179 -78.5 c 128,-1,109
 171 -109 171 -109 171 -132 c 0,110,111
 171 -179 171 -179 202 -204.5 c 128,-1,112
 233 -230 233 -230 288 -239.5 c 128,-1,113
 343 -249 343 -249 413 -249 c 0,114,115
 494 -249 494 -249 549 -241 c 128,-1,116
 604 -233 604 -233 642 -213 c 128,-1,117
 680 -193 680 -193 708 -158.5 c 128,-1,118
 736 -124 736 -124 762 -70 c 1,119,-1
 846 -99 l 1,120,-1
 827 -133 l 2,121,122
 796 -190 796 -190 760 -227 c 128,-1,123
 724 -264 724 -264 676.5 -284.5 c 128,-1,124
 629 -305 629 -305 564.5 -313 c 128,-1,125
 500 -321 500 -321 413 -321 c 2,126,-1
 410 -321 l 2,127,128
 253 -321 253 -321 171 -277 c 128,-1,129
 89 -233 89 -233 89 -131 c 0,103,104
508 49 m 0,130,131
 534 49 534 49 555.5 39 c 128,-1,132
 577 29 577 29 592 9 c 0,133,134
 607 -10 607 -10 614.5 -32.5 c 128,-1,135
 622 -55 622 -55 622 -81 c 0,136,137
 622 -111 622 -111 612.5 -131 c 128,-1,138
 603 -151 603 -151 589 -162 c 0,139,140
 573 -175 573 -175 552 -180.5 c 128,-1,141
 531 -186 531 -186 495 -186 c 2,142,-1
 279 -186 l 1,143,-1
 279 42 l 1,144,-1
 340 42 l 1,145,-1
 340 -139 l 1,146,-1
 423 -139 l 1,147,-1
 423 -49 l 2,148,149
 423 -13 423 -13 430 5 c 128,-1,150
 437 23 437 23 454 35 c 0,151,152
 465 42 465 42 478 45.5 c 128,-1,153
 491 49 491 49 508 49 c 0,130,131
508 0 m 0,154,155
 496 0 496 0 489.5 -7.5 c 128,-1,156
 483 -15 483 -15 483 -30 c 2,157,-1
 483 -139 l 1,158,-1
 511 -139 l 2,159,160
 540 -139 540 -139 550.5 -124 c 128,-1,161
 561 -109 561 -109 561 -80 c 0,162,163
 561 -56 561 -56 554.5 -38 c 128,-1,164
 548 -20 548 -20 536 -10 c 128,-1,165
 524 0 524 0 508 0 c 0,154,155
490 94 m 0,166,167
 471 94 471 94 458.5 106.5 c 128,-1,168
 446 119 446 119 446 138 c 0,169,170
 446 158 446 158 458.5 170.5 c 128,-1,171
 471 183 471 183 490 183 c 0,172,173
 510 183 510 183 522.5 170.5 c 128,-1,174
 535 158 535 158 535 138 c 0,175,176
 535 119 535 119 522.5 106.5 c 128,-1,177
 510 94 510 94 490 94 c 0,166,167
EndSplineSet
EndChar

StartChar: zerotamil
Encoding: 3046 3046 55
Width: 650
GlyphClass: 2
Flags: W
AnchorPoint: "Anchor-1" 325 -29 basechar 0
LayerCount: 2
Fore
SplineSet
327 -12 m 0,0,1
 247 -12 247 -12 186.5 24 c 128,-1,2
 126 60 126 60 92.5 125.5 c 128,-1,3
 59 191 59 191 59 279 c 256,4,5
 59 367 59 367 93 431 c 128,-1,6
 127 495 127 495 187 530.5 c 128,-1,7
 247 566 247 566 326 566 c 0,8,9
 413 566 413 566 472 526 c 128,-1,10
 531 486 531 486 561 421 c 128,-1,11
 591 356 591 356 591 279 c 0,12,13
 591 192 591 192 557.5 126.5 c 128,-1,14
 524 61 524 61 465 24.5 c 128,-1,15
 406 -12 406 -12 327 -12 c 0,0,1
326 493 m 0,16,17
 270 493 270 493 230 467 c 128,-1,18
 190 441 190 441 169 392.5 c 128,-1,19
 148 344 148 344 148 278 c 256,20,21
 148 212 148 212 168.5 163.5 c 128,-1,22
 189 115 189 115 229 88 c 128,-1,23
 269 61 269 61 325 61 c 0,24,25
 380 61 380 61 419.5 87 c 128,-1,26
 459 113 459 113 480.5 161.5 c 128,-1,27
 502 210 502 210 502 278 c 0,28,29
 502 345 502 345 480.5 393 c 128,-1,30
 459 441 459 441 420 467 c 128,-1,31
 381 493 381 493 326 493 c 0,16,17
EndSplineSet
EndChar

StartChar: twotamil
Encoding: 3048 3048 57
Width: 1067
GlyphClass: 2
Flags: W
AnchorPoint: "Anchor-1" 533 -29 basechar 0
LayerCount: 2
Fore
SplineSet
323 566 m 0,0,1
 394 566 394 566 446 549 c 128,-1,2
 498 532 498 532 533 502 c 128,-1,3
 568 472 568 472 585 432.5 c 128,-1,4
 602 393 602 393 602 349 c 0,5,6
 602 291 602 291 581 252.5 c 128,-1,7
 560 214 560 214 521 190.5 c 128,-1,8
 482 167 482 167 428 154.5 c 128,-1,9
 374 142 374 142 309 135 c 2,10,-1
 229 127 l 2,11,12
 174 122 174 122 160 115 c 128,-1,13
 146 108 146 108 146 95 c 0,14,15
 146 83 146 83 154.5 77.5 c 128,-1,16
 163 72 163 72 182 72 c 2,17,-1
 1050 72 l 1,18,-1
 1050 0 l 1,19,-1
 191 0 l 2,20,21
 144 0 144 0 115.5 12.5 c 128,-1,22
 87 25 87 25 74.5 46.5 c 128,-1,23
 62 68 62 68 62 94 c 0,24,25
 62 124 62 124 78 145 c 128,-1,26
 94 166 94 166 130 179 c 128,-1,27
 166 192 166 192 226 198 c 2,28,-1
 303 205 l 2,29,30
 394 214 394 214 439.5 235.5 c 128,-1,31
 485 257 485 257 500.5 287 c 128,-1,32
 516 317 516 317 516 349 c 0,33,34
 516 391 516 391 493 423.5 c 128,-1,35
 470 456 470 456 428 474.5 c 128,-1,36
 386 493 386 493 328 493 c 0,37,38
 244 493 244 493 201 458 c 128,-1,39
 158 423 158 423 158 362 c 0,40,41
 158 326 158 326 174 292 c 128,-1,42
 190 258 190 258 220 230 c 128,-1,43
 250 202 250 202 290 183 c 1,44,-1
 223 148 l 1,45,46
 173 175 173 175 139 209.5 c 128,-1,47
 105 244 105 244 88 283 c 128,-1,48
 71 322 71 322 71 362 c 0,49,50
 71 424 71 424 100.5 470 c 128,-1,51
 130 516 130 516 186 541 c 128,-1,52
 242 566 242 566 323 566 c 0,0,1
EndSplineSet
EndChar

StartChar: threetamil
Encoding: 3049 3049 58
Width: 985
GlyphClass: 2
Flags: W
AnchorPoint: "Anchor-1" 493 -29 basechar 0
LayerCount: 2
Fore
SplineSet
88 0 m 1,0,-1
 88 554 l 1,1,-1
 604 554 l 1,2,-1
 604 482 l 1,3,-1
 430 482 l 1,4,-1
 430 324 l 1,5,6
 450 336 450 336 482 349 c 128,-1,7
 514 362 514 362 558 362 c 0,8,9
 608 362 608 362 644 343 c 128,-1,10
 680 324 680 324 699 288 c 128,-1,11
 718 252 718 252 718 201 c 0,12,13
 718 165 718 165 708 132 c 128,-1,14
 698 99 698 99 682 72 c 1,15,-1
 968 72 l 1,16,-1
 968 0 l 1,17,-1
 344 0 l 1,18,-1
 344 72 l 1,19,-1
 595 72 l 1,20,21
 612 97 612 97 622 127.5 c 128,-1,22
 632 158 632 158 632 192 c 0,23,24
 632 245 632 245 607 267 c 128,-1,25
 582 289 582 289 543 289 c 0,26,27
 511 289 511 289 481.5 276 c 128,-1,28
 452 263 452 263 430 246 c 1,29,-1
 430 144 l 1,30,-1
 344 144 l 1,31,-1
 344 482 l 1,32,-1
 174 482 l 1,33,-1
 174 0 l 1,34,-1
 88 0 l 1,0,-1
EndSplineSet
EndChar

StartChar: fourtamil
Encoding: 3050 3050 59
Width: 941
GlyphClass: 2
Flags: W
AnchorPoint: "Anchor-1" 470 -29 basechar 0
LayerCount: 2
Fore
SplineSet
261 -12 m 0,0,1
 201 -12 201 -12 153 7 c 128,-1,2
 105 26 105 26 77 63 c 128,-1,3
 49 100 49 100 49 152 c 0,4,5
 49 206 49 206 77.5 245.5 c 128,-1,6
 106 285 106 285 168 306.5 c 128,-1,7
 230 328 230 328 332 328 c 2,8,-1
 724 328 l 1,9,-1
 724 258 l 1,10,-1
 325 258 l 2,11,12
 277 258 277 258 240 252 c 128,-1,13
 203 246 203 246 178 232 c 0,14,15
 156 219 156 219 145.5 200.5 c 128,-1,16
 135 182 135 182 135 153 c 0,17,18
 135 107 135 107 173 83.5 c 128,-1,19
 211 60 211 60 269 60 c 0,20,21
 313 60 313 60 344.5 73.5 c 128,-1,22
 376 87 376 87 393.5 120.5 c 128,-1,23
 411 154 411 154 411 213 c 2,24,-1
 411 482 l 1,25,-1
 239 482 l 1,26,-1
 239 302 l 1,27,-1
 160 286 l 1,28,-1
 160 554 l 1,29,-1
 663 554 l 1,30,-1
 663 482 l 1,31,-1
 496 482 l 1,32,-1
 496 226 l 2,33,34
 496 159 496 159 484.5 121 c 128,-1,35
 473 83 473 83 452 57 c 0,36,37
 421 19 421 19 372.5 3.5 c 128,-1,38
 324 -12 324 -12 261 -12 c 0,0,1
698 258 m 1,39,-1
 698 328 l 1,40,-1
 777 328 l 1,41,-1
 777 554 l 1,42,-1
 863 554 l 1,43,-1
 863 258 l 1,44,-1
 698 258 l 1,39,-1
EndSplineSet
EndChar

StartChar: fivetamil
Encoding: 3051 3051 60
Width: 1051
GlyphClass: 2
Flags: W
AnchorPoint: "Anchor-1" 525 -29 basechar 0
LayerCount: 2
Fore
SplineSet
559 -321 m 2,0,1
 431 -321 431 -321 338 -278 c 128,-1,2
 245 -235 245 -235 185 -159 c 128,-1,3
 125 -83 125 -83 96.5 17 c 128,-1,4
 68 117 68 117 68 231 c 2,5,-1
 68 279 l 2,6,7
 68 352 68 352 85.5 430.5 c 128,-1,8
 103 509 103 509 141 582.5 c 128,-1,9
 179 656 179 656 240 715 c 128,-1,10
 301 774 301 774 387 808.5 c 128,-1,11
 473 843 473 843 587 843 c 0,12,13
 674 843 674 843 742.5 827 c 128,-1,14
 811 811 811 811 870 784 c 128,-1,15
 929 757 929 757 985 724 c 1,16,-1
 939 652 l 1,17,18
 904 676 904 676 866 697 c 128,-1,19
 828 718 828 718 785 734 c 128,-1,20
 742 750 742 750 692 759 c 128,-1,21
 642 768 642 768 583 768 c 0,22,23
 495 768 495 768 417.5 736 c 128,-1,24
 340 704 340 704 280.5 639.5 c 128,-1,25
 221 575 221 575 187.5 479.5 c 128,-1,26
 154 384 154 384 154 256 c 2,27,-1
 154 244 l 2,28,29
 154 102 154 102 196.5 -8.5 c 128,-1,30
 239 -119 239 -119 328.5 -181.5 c 128,-1,31
 418 -244 418 -244 559 -244 c 2,32,-1
 570 -244 l 2,33,34
 672 -244 672 -244 749.5 -208 c 128,-1,35
 827 -172 827 -172 870.5 -99.5 c 128,-1,36
 914 -27 914 -27 914 84 c 0,37,38
 914 137 914 137 901.5 173.5 c 128,-1,39
 889 210 889 210 864.5 228.5 c 128,-1,40
 840 247 840 247 805 247 c 0,41,42
 777 247 777 247 752.5 236 c 128,-1,43
 728 225 728 225 708 211 c 1,44,-1
 708 284 l 1,45,46
 727 298 727 298 755 308.5 c 128,-1,47
 783 319 783 319 820 319 c 0,48,49
 874 319 874 319 915 290.5 c 128,-1,50
 956 262 956 262 979 209 c 128,-1,51
 1002 156 1002 156 1002 84 c 0,52,53
 1002 -22 1002 -22 966.5 -98.5 c 128,-1,54
 931 -175 931 -175 870 -224.5 c 128,-1,55
 809 -274 809 -274 731.5 -297.5 c 128,-1,56
 654 -321 654 -321 570 -321 c 2,57,-1
 559 -321 l 2,0,1
361 0 m 1,58,-1
 361 554 l 1,59,-1
 883 554 l 1,60,-1
 883 482 l 1,61,-1
 708 482 l 1,62,-1
 708 0 l 1,63,-1
 622 0 l 1,64,-1
 622 482 l 1,65,-1
 447 482 l 1,66,-1
 447 0 l 1,67,-1
 361 0 l 1,58,-1
EndSplineSet
EndChar

StartChar: sixtamil
Encoding: 3052 3052 61
Width: 1006
GlyphClass: 2
Flags: W
AnchorPoint: "Anchor-1" 503 -29 basechar 0
LayerCount: 2
Fore
SplineSet
261 -12 m 0,0,1
 201 -12 201 -12 153 7 c 128,-1,2
 105 26 105 26 77 63 c 128,-1,3
 49 100 49 100 49 152 c 0,4,5
 49 206 49 206 77.5 245.5 c 128,-1,6
 106 285 106 285 168 306.5 c 128,-1,7
 230 328 230 328 332 328 c 2,8,-1
 985 328 l 1,9,-1
 985 258 l 1,10,-1
 325 258 l 2,11,12
 274 258 274 258 238.5 252 c 128,-1,13
 203 246 203 246 178 232 c 0,14,15
 156 219 156 219 145.5 200.5 c 128,-1,16
 135 182 135 182 135 153 c 0,17,18
 135 107 135 107 173 83.5 c 128,-1,19
 211 60 211 60 269 60 c 0,20,21
 313 60 313 60 344.5 73.5 c 128,-1,22
 376 87 376 87 393.5 120.5 c 128,-1,23
 411 154 411 154 411 213 c 2,24,-1
 411 482 l 1,25,-1
 239 482 l 1,26,-1
 239 302 l 1,27,-1
 160 286 l 1,28,-1
 160 554 l 1,29,-1
 683 554 l 1,30,-1
 683 482 l 1,31,-1
 496 482 l 1,32,-1
 496 226 l 2,33,34
 496 159 496 159 484.5 121 c 128,-1,35
 473 83 473 83 452 57 c 0,36,37
 421 19 421 19 372.5 3.5 c 128,-1,38
 324 -12 324 -12 261 -12 c 0,0,1
615 0 m 1,39,-1
 615 275 l 1,40,-1
 696 267 l 1,41,-1
 696 0 l 1,42,-1
 615 0 l 1,39,-1
815 0 m 1,43,-1
 815 275 l 1,44,-1
 896 267 l 1,45,-1
 896 0 l 1,46,-1
 815 0 l 1,43,-1
EndSplineSet
EndChar

StartChar: eighttamil
Encoding: 3054 3054 63
Width: 1121
GlyphClass: 2
Flags: W
AnchorPoint: "Anchor-1" 560 -29 basechar 0
LayerCount: 2
Fore
SplineSet
321 -124 m 2,0,1
 224 -124 224 -124 159 -100.5 c 128,-1,2
 94 -77 94 -77 61.5 -35.5 c 128,-1,3
 29 6 29 6 29 60 c 0,4,5
 29 85 29 85 40 109 c 128,-1,6
 51 133 51 133 74 149 c 0,7,8
 87 158 87 158 102 164 c 128,-1,9
 117 170 117 170 141.5 173 c 128,-1,10
 166 176 166 176 206 176 c 2,11,-1
 953 176 l 1,12,-1
 956 104 l 1,13,-1
 217 104 l 2,14,15
 186 104 186 104 169.5 103 c 128,-1,16
 153 102 153 102 145 99 c 128,-1,17
 137 96 137 96 129 90 c 0,18,19
 114 78 114 78 114 56 c 0,20,21
 114 7 114 7 167 -22 c 128,-1,22
 220 -51 220 -51 327 -51 c 2,23,-1
 344 -51 l 2,24,25
 445 -51 445 -51 518 -27.5 c 128,-1,26
 591 -4 591 -4 638.5 37 c 128,-1,27
 686 78 686 78 710 130 c 1,28,-1
 713 150 l 1,29,30
 723 175 723 175 726.5 200.5 c 128,-1,31
 730 226 730 226 730 251 c 0,32,33
 730 322 730 322 704 376.5 c 128,-1,34
 678 431 678 431 631.5 462 c 128,-1,35
 585 493 585 493 522 493 c 0,36,37
 485 493 485 493 454 479 c 128,-1,38
 423 465 423 465 404 436.5 c 128,-1,39
 385 408 385 408 385 362 c 256,40,41
 385 316 385 316 404.5 278 c 128,-1,42
 424 240 424 240 455.5 210.5 c 128,-1,43
 487 181 487 181 521 159 c 1,44,-1
 471 112 l 1,45,46
 425 142 425 142 385.5 179 c 128,-1,47
 346 216 346 216 321.5 262.5 c 128,-1,48
 297 309 297 309 297 366 c 0,49,50
 297 426 297 426 324 471 c 128,-1,51
 351 516 351 516 401.5 541 c 128,-1,52
 452 566 452 566 523 566 c 0,53,54
 595 566 595 566 649.5 541 c 128,-1,55
 704 516 704 516 741 472.5 c 128,-1,56
 778 429 778 429 797 372.5 c 128,-1,57
 816 316 816 316 816 252 c 0,58,59
 816 224 816 224 813.5 199 c 128,-1,60
 811 174 811 174 804 150 c 2,61,-1
 799 128 l 1,62,63
 771 46 771 46 705.5 -10 c 128,-1,64
 640 -66 640 -66 546.5 -95 c 128,-1,65
 453 -124 453 -124 340 -124 c 2,66,-1
 321 -124 l 2,0,1
947 -154 m 1,67,-1
 947 554 l 1,68,-1
 1033 554 l 1,69,-1
 1033 -154 l 1,70,-1
 947 -154 l 1,67,-1
EndSplineSet
EndChar

StartChar: ninetamil
Encoding: 3055 3055 64
Width: 1155
GlyphClass: 2
Flags: W
AnchorPoint: "Anchor-1" 577 -29 basechar 0
LayerCount: 2
Fore
SplineSet
261 -12 m 0,0,1
 201 -12 201 -12 153 7 c 128,-1,2
 105 26 105 26 77 63 c 128,-1,3
 49 100 49 100 49 152 c 0,4,5
 49 206 49 206 77.5 245.5 c 128,-1,6
 106 285 106 285 168 306.5 c 128,-1,7
 230 328 230 328 332 328 c 2,8,-1
 586 328 l 1,9,-1
 582 258 l 1,10,-1
 325 258 l 2,11,12
 274 258 274 258 238.5 252 c 128,-1,13
 203 246 203 246 178 232 c 0,14,15
 156 219 156 219 145.5 200.5 c 128,-1,16
 135 182 135 182 135 153 c 0,17,18
 135 107 135 107 173 83.5 c 128,-1,19
 211 60 211 60 269 60 c 0,20,21
 313 60 313 60 344.5 73.5 c 128,-1,22
 376 87 376 87 393.5 120.5 c 128,-1,23
 411 154 411 154 411 213 c 2,24,-1
 411 482 l 1,25,-1
 239 482 l 1,26,-1
 239 302 l 1,27,-1
 160 286 l 1,28,-1
 160 554 l 1,29,-1
 683 554 l 1,30,-1
 683 482 l 1,31,-1
 496 482 l 1,32,-1
 496 226 l 2,33,34
 496 159 496 159 484.5 121 c 128,-1,35
 473 83 473 83 452 57 c 0,36,37
 421 19 421 19 372.5 3.5 c 128,-1,38
 324 -12 324 -12 261 -12 c 0,0,1
765 -12 m 0,39,40
 722 -12 722 -12 685 4.5 c 128,-1,41
 648 21 648 21 626 57.5 c 128,-1,42
 604 94 604 94 604 152 c 0,43,44
 604 183 604 183 613 210.5 c 128,-1,45
 622 238 622 238 637 261 c 1,46,-1
 641 276 l 1,47,48
 664 310 664 310 698.5 334.5 c 128,-1,49
 733 359 733 359 776 372.5 c 128,-1,50
 819 386 819 386 867 386 c 0,51,52
 928 386 928 386 973 370.5 c 128,-1,53
 1018 355 1018 355 1047.5 326.5 c 128,-1,54
 1077 298 1077 298 1091.5 260.5 c 128,-1,55
 1106 223 1106 223 1106 179 c 0,56,57
 1106 123 1106 123 1089 79 c 128,-1,58
 1072 35 1072 35 1040 -12 c 1,59,-1
 971 31 l 1,60,61
 997 66 997 66 1008.5 100 c 128,-1,62
 1020 134 1020 134 1020 173 c 0,63,64
 1020 221 1020 221 1000 252.5 c 128,-1,65
 980 284 980 284 945.5 300 c 128,-1,66
 911 316 911 316 865 316 c 0,67,68
 825 316 825 316 791 308 c 128,-1,69
 757 300 757 300 731 278 c 1,70,-1
 726 267 l 1,71,72
 704 247 704 247 691.5 216.5 c 128,-1,73
 679 186 679 186 679 145 c 0,74,75
 679 97 679 97 703 76.5 c 128,-1,76
 727 56 727 56 764 56 c 0,77,78
 799 56 799 56 815 78 c 128,-1,79
 831 100 831 100 831 137 c 0,80,81
 831 181 831 181 808.5 207.5 c 128,-1,82
 786 234 786 234 752.5 246 c 128,-1,83
 719 258 719 258 685 258 c 2,84,-1
 566 258 l 1,85,-1
 567 328 l 1,86,-1
 661 328 l 2,87,88
 676 328 676 328 689 327 c 128,-1,89
 702 326 702 326 718 324 c 1,90,-1
 723 318 l 1,91,92
 762 313 762 313 795.5 300 c 128,-1,93
 829 287 829 287 854.5 265.5 c 128,-1,94
 880 244 880 244 894 212.5 c 128,-1,95
 908 181 908 181 908 140 c 0,96,97
 908 73 908 73 874 30.5 c 128,-1,98
 840 -12 840 -12 765 -12 c 0,39,40
EndSplineSet
EndChar

StartChar: tentamil
Encoding: 3056 3056 65
Width: 875
Flags: W
LayerCount: 2
Fore
SplineSet
257 -12 m 0,0,1
 220 -12 220 -12 191 -1.5 c 128,-1,2
 162 9 162 9 141 30 c 0,3,4
 121 51 121 51 109 74.5 c 128,-1,5
 97 98 97 98 92.5 131.5 c 128,-1,6
 88 165 88 165 88 213 c 2,7,-1
 88 554 l 1,8,-1
 174 554 l 1,9,-1
 174 227 l 2,10,11
 174 183 174 183 178.5 148.5 c 128,-1,12
 183 114 183 114 199 91 c 0,13,14
 210 77 210 77 225.5 68.5 c 128,-1,15
 241 60 241 60 264 60 c 256,16,17
 287 60 287 60 303 69 c 128,-1,18
 319 78 319 78 329 93 c 0,19,20
 344 116 344 116 349 150.5 c 128,-1,21
 354 185 354 185 354 234 c 2,22,-1
 354 554 l 1,23,-1
 440 554 l 1,24,-1
 440 236 l 2,25,26
 440 183 440 183 448 151 c 128,-1,27
 456 119 456 119 476 96 c 0,28,29
 493 77 493 77 515 68.5 c 128,-1,30
 537 60 537 60 559 60 c 0,31,32
 595 60 595 60 624.5 76.5 c 128,-1,33
 654 93 654 93 675.5 131 c 128,-1,34
 697 169 697 169 708.5 232.5 c 128,-1,35
 720 296 720 296 720 390 c 0,36,37
 720 504 720 504 701 577.5 c 128,-1,38
 682 651 682 651 649 692.5 c 128,-1,39
 616 734 616 734 572.5 751 c 128,-1,40
 529 768 529 768 481 768 c 0,41,42
 450 768 450 768 421 762 c 128,-1,43
 392 756 392 756 366 746 c 128,-1,44
 340 736 340 736 319 724 c 1,45,-1
 294 795 l 1,46,47
 323 810 323 810 355 820.5 c 128,-1,48
 387 831 387 831 421 837 c 128,-1,49
 455 843 455 843 489 843 c 0,50,51
 530 843 530 843 573 833.5 c 128,-1,52
 616 824 616 824 654 799 c 0,53,54
 700 770 700 770 734 719.5 c 128,-1,55
 768 669 768 669 787.5 589.5 c 128,-1,56
 807 510 807 510 807 392 c 2,57,-1
 807 390 l 2,58,59
 807 288 807 288 791 212 c 128,-1,60
 775 136 775 136 743.5 86.5 c 128,-1,61
 712 37 712 37 666 12.5 c 128,-1,62
 620 -12 620 -12 560 -12 c 0,63,64
 517 -12 517 -12 482 4 c 128,-1,65
 447 20 447 20 423.5 47 c 128,-1,66
 400 74 400 74 389 107 c 1,67,-1
 412 113 l 1,68,69
 399 73 399 73 377.5 45 c 128,-1,70
 356 17 356 17 326 2.5 c 128,-1,71
 296 -12 296 -12 257 -12 c 0,0,1
EndSplineSet
EndChar

StartChar: hundredtamil
Encoding: 3057 3057 66
Width: 887
Flags: W
LayerCount: 2
Fore
SplineSet
354 0 m 1,0,-1
 354 554 l 1,1,-1
 870 554 l 1,2,-1
 870 482 l 1,3,-1
 700 482 l 1,4,-1
 700 0 l 1,5,-1
 614 0 l 1,6,-1
 614 482 l 1,7,-1
 440 482 l 1,8,-1
 440 0 l 1,9,-1
 354 0 l 1,0,-1
240 565 m 0,10,11
 281 565 281 565 310 549.5 c 128,-1,12
 339 534 339 534 358 515 c 1,13,-1
 360 429 l 1,14,15
 338 463 338 463 312.5 478 c 128,-1,16
 287 493 287 493 258 493 c 0,17,18
 239 493 239 493 225.5 487.5 c 128,-1,19
 212 482 212 482 202 472 c 0,20,21
 182 452 182 452 178 415 c 128,-1,22
 174 378 174 378 174 331 c 2,23,-1
 174 0 l 1,24,-1
 88 0 l 1,25,-1
 88 352 l 2,26,27
 88 403 88 403 93.5 434 c 128,-1,28
 99 465 99 465 108.5 484.5 c 128,-1,29
 118 504 118 504 129 518 c 0,30,31
 148 541 148 541 175.5 553 c 128,-1,32
 203 565 203 565 240 565 c 0,10,11
EndSplineSet
EndChar

StartChar: thousandtamil
Encoding: 3058 3058 67
Width: 965
Flags: W
LayerCount: 2
Fore
SplineSet
817 174 m 0,0,1
 857 174 857 174 888 155.5 c 128,-1,2
 919 137 919 137 937 105.5 c 128,-1,3
 955 74 955 74 955 33 c 0,4,5
 955 -13 955 -13 941 -45 c 128,-1,6
 927 -77 927 -77 903 -99 c 0,7,8
 866 -132 866 -132 809 -144 c 128,-1,9
 752 -156 752 -156 673 -156 c 2,10,-1
 272 -156 l 2,11,12
 230 -156 230 -156 207 -162 c 128,-1,13
 184 -168 184 -168 167 -179 c 0,14,15
 151 -190 151 -190 142 -210 c 128,-1,16
 133 -230 133 -230 133 -263 c 0,17,18
 133 -278 133 -278 134 -291.5 c 128,-1,19
 135 -305 135 -305 136 -317 c 1,20,-1
 54 -321 l 1,21,22
 51 -303 51 -303 49 -281.5 c 128,-1,23
 47 -260 47 -260 47 -243 c 0,24,25
 47 -199 47 -199 63 -168.5 c 128,-1,26
 79 -138 79 -138 104 -119 c 0,27,28
 122 -106 122 -106 141.5 -98.5 c 128,-1,29
 161 -91 161 -91 186.5 -87.5 c 128,-1,30
 212 -84 212 -84 245 -84 c 2,31,-1
 665 -84 l 2,32,33
 744 -84 744 -84 781.5 -75.5 c 128,-1,34
 819 -67 819 -67 840 -49 c 0,35,36
 856 -35 856 -35 862.5 -17 c 128,-1,37
 869 1 869 1 869 26 c 0,38,39
 869 55 869 55 851.5 81.5 c 128,-1,40
 834 108 834 108 791 108 c 0,41,42
 766 108 766 108 747 100 c 128,-1,43
 728 92 728 92 711 81 c 1,44,-1
 707 145 l 1,45,46
 733 159 733 159 756.5 166.5 c 128,-1,47
 780 174 780 174 817 174 c 0,0,1
261 -12 m 0,48,49
 201 -12 201 -12 153 7 c 128,-1,50
 105 26 105 26 77 63 c 128,-1,51
 49 100 49 100 49 152 c 0,52,53
 49 206 49 206 77.5 245.5 c 128,-1,54
 106 285 106 285 168 306.5 c 128,-1,55
 230 328 230 328 332 328 c 2,56,-1
 843 328 l 1,57,-1
 843 258 l 1,58,-1
 325 258 l 2,59,60
 274 258 274 258 238.5 252 c 128,-1,61
 203 246 203 246 178 232 c 0,62,63
 156 219 156 219 145.5 200.5 c 128,-1,64
 135 182 135 182 135 153 c 0,65,66
 135 107 135 107 173 83.5 c 128,-1,67
 211 60 211 60 269 60 c 0,68,69
 313 60 313 60 344.5 73.5 c 128,-1,70
 376 87 376 87 393.5 120.5 c 128,-1,71
 411 154 411 154 411 213 c 2,72,-1
 411 482 l 1,73,-1
 239 482 l 1,74,-1
 239 302 l 1,75,-1
 160 286 l 1,76,-1
 160 554 l 1,77,-1
 683 554 l 1,78,-1
 683 482 l 1,79,-1
 496 482 l 1,80,-1
 496 226 l 2,81,82
 496 159 496 159 484.5 121 c 128,-1,83
 473 83 473 83 452 57 c 0,84,85
 421 19 421 19 372.5 3.5 c 128,-1,86
 324 -12 324 -12 261 -12 c 0,48,49
632 0 m 1,87,-1
 632 275 l 1,88,-1
 714 267 l 1,89,-1
 714 0 l 1,90,-1
 632 0 l 1,87,-1
EndSplineSet
EndChar

StartChar: daysigntamil
Encoding: 3059 3059 68
Width: 985
Flags: W
LayerCount: 2
Fore
SplineSet
249 -12 m 0,0,1
 196 -12 196 -12 152 14.5 c 128,-1,2
 108 41 108 41 82.5 97 c 128,-1,3
 57 153 57 153 57 243 c 0,4,5
 57 350 57 350 99.5 422 c 128,-1,6
 142 494 142 494 212 530 c 128,-1,7
 282 566 282 566 364 566 c 0,8,9
 440 566 440 566 494.5 543.5 c 128,-1,10
 549 521 549 521 583.5 481.5 c 128,-1,11
 618 442 618 442 634.5 390.5 c 128,-1,12
 651 339 651 339 651 280 c 0,13,14
 651 216 651 216 637 166 c 128,-1,15
 623 116 623 116 603 72 c 1,16,-1
 968 72 l 1,17,-1
 968 0 l 1,18,-1
 515 0 l 1,19,-1
 511 63 l 1,20,21
 534 98 534 98 548.5 149.5 c 128,-1,22
 563 201 563 201 563 269 c 0,23,24
 563 340 563 340 538 390 c 128,-1,25
 513 440 513 440 467.5 466 c 128,-1,26
 422 492 422 492 360 492 c 0,27,28
 290 492 290 492 240 458.5 c 128,-1,29
 190 425 190 425 163 367.5 c 128,-1,30
 136 310 136 310 136 237 c 0,31,32
 136 170 136 170 151.5 130.5 c 128,-1,33
 167 91 167 91 193.5 73.5 c 128,-1,34
 220 56 220 56 253 56 c 0,35,36
 279 56 279 56 298.5 67.5 c 128,-1,37
 318 79 318 79 329 101 c 128,-1,38
 340 123 340 123 340 155 c 0,39,40
 340 205 340 205 314 231.5 c 128,-1,41
 288 258 288 258 247 258 c 0,42,43
 207 258 207 258 172 237 c 128,-1,44
 137 216 137 216 108 184 c 1,45,-1
 93 248 l 1,46,47
 123 283 123 283 167.5 305.5 c 128,-1,48
 212 328 212 328 261 328 c 0,49,50
 333 328 333 328 377.5 284 c 128,-1,51
 422 240 422 240 422 165 c 0,52,53
 422 110 422 110 401 70 c 128,-1,54
 380 30 380 30 341.5 9 c 128,-1,55
 303 -12 303 -12 249 -12 c 0,0,1
EndSplineSet
EndChar

StartChar: monthsigntamil
Encoding: 3060 3060 69
Width: 1268
Flags: W
LayerCount: 2
Fore
SplineSet
580 566 m 0,0,1
 655 566 655 566 703 527.5 c 128,-1,2
 751 489 751 489 774 420.5 c 128,-1,3
 797 352 797 352 797 262 c 0,4,5
 797 192 797 192 782 142 c 128,-1,6
 767 92 767 92 734 60 c 0,7,8
 711 37 711 37 681 24 c 128,-1,9
 651 11 651 11 610.5 5.5 c 128,-1,10
 570 0 570 0 512 0 c 2,11,-1
 88 0 l 1,12,-1
 88 554 l 1,13,-1
 174 554 l 1,14,-1
 174 72 l 1,15,-1
 400 72 l 1,16,-1
 400 355 l 2,17,18
 400 417 400 417 411.5 453.5 c 128,-1,19
 423 490 423 490 445 515 c 0,20,21
 468 540 468 540 500 553 c 128,-1,22
 532 566 532 566 580 566 c 0,0,1
578 494 m 0,23,24
 561 494 561 494 545 488.5 c 128,-1,25
 529 483 529 483 518 471 c 0,26,27
 502 453 502 453 494 426.5 c 128,-1,28
 486 400 486 400 486 338 c 2,29,-1
 486 72 l 1,30,-1
 533 72 l 2,31,32
 601 72 601 72 639 91 c 128,-1,33
 677 110 677 110 693 153 c 128,-1,34
 709 196 709 196 709 267 c 0,35,36
 709 331 709 331 695.5 382 c 128,-1,37
 682 433 682 433 653.5 463.5 c 128,-1,38
 625 494 625 494 578 494 c 0,23,24
853 494 m 0,39,40
 817 494 817 494 787.5 510 c 128,-1,41
 758 526 758 526 741 559 c 128,-1,42
 724 592 724 592 724 642 c 0,43,44
 724 653 724 653 724.5 663.5 c 128,-1,45
 725 674 725 674 727 684 c 0,46,47
 737 739 737 739 768.5 774 c 128,-1,48
 800 809 800 809 843.5 826 c 128,-1,49
 887 843 887 843 933 843 c 0,50,51
 998 843 998 843 1043 821 c 128,-1,52
 1088 799 1088 799 1111.5 760 c 128,-1,53
 1135 721 1135 721 1135 669 c 0,54,55
 1135 640 1135 640 1128 608 c 128,-1,56
 1121 576 1121 576 1105 549 c 1,57,-1
 1077 554 l 1,58,-1
 1251 554 l 1,59,-1
 1251 496 l 1,60,-1
 1026 496 l 1,61,-1
 1026 534 l 1,62,63
 1042 562 1042 562 1051 590 c 128,-1,64
 1060 618 1060 618 1060 658 c 0,65,66
 1060 696 1060 696 1045 724.5 c 128,-1,67
 1030 753 1030 753 1002.5 768.5 c 128,-1,68
 975 784 975 784 935 784 c 0,69,70
 889 784 889 784 848.5 762.5 c 128,-1,71
 808 741 808 741 793 690 c 0,72,73
 790 680 790 680 788.5 667 c 128,-1,74
 787 654 787 654 787 640 c 0,75,76
 787 597 787 597 802 575 c 128,-1,77
 817 553 817 553 850 553 c 0,78,79
 872 553 872 553 887 564 c 128,-1,80
 902 575 902 575 902 600 c 0,81,82
 902 616 902 616 897 626.5 c 128,-1,83
 892 637 892 637 881 643 c 0,84,85
 871 649 871 649 856 651.5 c 128,-1,86
 841 654 841 654 816 654 c 2,87,-1
 774 654 l 2,88,89
 736 654 736 654 711.5 641.5 c 128,-1,90
 687 629 687 629 675 605 c 128,-1,91
 663 581 663 581 663 548 c 2,92,-1
 663 526 l 1,93,-1
 597 554 l 1,94,95
 600 591 600 591 614 620 c 128,-1,96
 628 649 628 649 653 668.5 c 128,-1,97
 678 688 678 688 714 698.5 c 128,-1,98
 750 709 750 709 795 709 c 2,99,-1
 822 709 l 2,100,101
 866 709 866 709 890.5 702 c 128,-1,102
 915 695 915 695 933 680 c 0,103,104
 948 667 948 667 956 648 c 128,-1,105
 964 629 964 629 964 602 c 0,106,107
 964 568 964 568 949.5 544 c 128,-1,108
 935 520 935 520 910 507 c 128,-1,109
 885 494 885 494 853 494 c 0,39,40
EndSplineSet
EndChar

StartChar: yearsigntamil
Encoding: 3061 3061 70
Width: 2223
Flags: W
LayerCount: 2
Fore
SplineSet
946 766 m 0,0,1
 791 766 791 766 665.5 747 c 128,-1,2
 540 728 540 728 444.5 689.5 c 128,-1,3
 349 651 349 651 285 592 c 128,-1,4
 221 533 221 533 188.5 453 c 128,-1,5
 156 373 156 373 156 271 c 2,6,-1
 156 259 l 2,7,8
 156 188 156 188 173 123 c 128,-1,9
 190 58 190 58 226.5 2 c 128,-1,10
 263 -54 263 -54 322 -99.5 c 128,-1,11
 381 -145 381 -145 465 -177 c 128,-1,12
 549 -209 549 -209 660 -226.5 c 128,-1,13
 771 -244 771 -244 913 -244 c 2,14,-1
 933 -244 l 2,15,16
 1050 -244 1050 -244 1148 -232 c 128,-1,17
 1246 -220 1246 -220 1323 -194.5 c 128,-1,18
 1400 -169 1400 -169 1453.5 -128.5 c 128,-1,19
 1507 -88 1507 -88 1535 -31 c 128,-1,20
 1563 26 1563 26 1563 100 c 0,21,22
 1563 142 1563 142 1550 175 c 128,-1,23
 1537 208 1537 208 1513 227.5 c 128,-1,24
 1489 247 1489 247 1454 247 c 0,25,26
 1436 247 1436 247 1419.5 242.5 c 128,-1,27
 1403 238 1403 238 1389 230 c 1,28,-1
 1389 0 l 1,29,-1
 1303 0 l 1,30,-1
 1303 482 l 1,31,-1
 1143 482 l 1,32,-1
 1143 0 l 1,33,-1
 1057 0 l 1,34,-1
 1057 554 l 1,35,-1
 1548 554 l 1,36,-1
 1548 482 l 1,37,-1
 1389 482 l 1,38,-1
 1389 302 l 1,39,40
 1406 310 1406 310 1425.5 314.5 c 128,-1,41
 1445 319 1445 319 1469 319 c 0,42,43
 1513 319 1513 319 1546.5 302 c 128,-1,44
 1580 285 1580 285 1603.5 255 c 128,-1,45
 1627 225 1627 225 1639 186.5 c 128,-1,46
 1651 148 1651 148 1651 105 c 0,47,48
 1651 27 1651 27 1626.5 -35.5 c 128,-1,49
 1602 -98 1602 -98 1556 -145 c 128,-1,50
 1510 -192 1510 -192 1446 -225.5 c 128,-1,51
 1382 -259 1382 -259 1303 -280 c 128,-1,52
 1224 -301 1224 -301 1132.5 -311 c 128,-1,53
 1041 -321 1041 -321 941 -321 c 2,54,-1
 907 -321 l 2,55,56
 757 -321 757 -321 636.5 -302 c 128,-1,57
 516 -283 516 -283 423 -246.5 c 128,-1,58
 330 -210 330 -210 263 -159.5 c 128,-1,59
 196 -109 196 -109 152.5 -46 c 128,-1,60
 109 17 109 17 88.5 91 c 128,-1,61
 68 165 68 165 68 246 c 2,62,-1
 68 283 l 2,63,64
 68 373 68 373 95.5 456 c 128,-1,65
 123 539 123 539 183.5 609.5 c 128,-1,66
 244 680 244 680 344 732.5 c 128,-1,67
 444 785 444 785 588 814 c 128,-1,68
 732 843 732 843 927 843 c 2,69,-1
 982 843 l 2,70,71
 1110 843 1110 843 1213 832 c 128,-1,72
 1316 821 1316 821 1397 801 c 128,-1,73
 1478 781 1478 781 1540 753.5 c 128,-1,74
 1602 726 1602 726 1648 693 c 0,75,76
 1710 648 1710 648 1746 595 c 128,-1,77
 1782 542 1782 542 1799 485 c 128,-1,78
 1816 428 1816 428 1821.5 371 c 128,-1,79
 1827 314 1827 314 1827 261 c 0,80,81
 1827 222 1827 222 1830.5 191 c 128,-1,82
 1834 160 1834 160 1843 136.5 c 128,-1,83
 1852 113 1852 113 1868 95 c 0,84,85
 1883 79 1883 79 1904 70.5 c 128,-1,86
 1925 62 1925 62 1954 62 c 0,87,88
 1987 62 1987 62 2014 78 c 128,-1,89
 2041 94 2041 94 2057 132 c 128,-1,90
 2073 170 2073 170 2073 237 c 0,91,92
 2073 303 2073 303 2057 359 c 128,-1,93
 2041 415 2041 415 2012.5 461.5 c 128,-1,94
 1984 508 1984 508 1948 547 c 1,95,-1
 2026 600 l 1,96,97
 2088 521 2088 521 2124 434 c 128,-1,98
 2160 347 2160 347 2160 244 c 0,99,100
 2160 159 2160 159 2135.5 102 c 128,-1,101
 2111 45 2111 45 2064 16.5 c 128,-1,102
 2017 -12 2017 -12 1947 -12 c 0,103,104
 1904 -12 1904 -12 1868.5 0.5 c 128,-1,105
 1833 13 1833 13 1807 38 c 0,106,107
 1775 68 1775 68 1757.5 121.5 c 128,-1,108
 1740 175 1740 175 1740 244 c 0,109,110
 1740 343 1740 343 1722.5 417.5 c 128,-1,111
 1705 492 1705 492 1667.5 548.5 c 128,-1,112
 1630 605 1630 605 1570 646 c 0,113,114
 1523 678 1523 678 1461.5 700.5 c 128,-1,115
 1400 723 1400 723 1323 737.5 c 128,-1,116
 1246 752 1246 752 1152 759 c 128,-1,117
 1058 766 1058 766 946 766 c 0,0,1
504 -12 m 0,118,119
 451 -12 451 -12 407 14.5 c 128,-1,120
 363 41 363 41 337.5 97 c 128,-1,121
 312 153 312 153 312 243 c 0,122,123
 312 350 312 350 354.5 422 c 128,-1,124
 397 494 397 494 467 530 c 128,-1,125
 537 566 537 566 619 566 c 0,126,127
 695 566 695 566 749.5 543.5 c 128,-1,128
 804 521 804 521 838.5 481.5 c 128,-1,129
 873 442 873 442 889.5 390.5 c 128,-1,130
 906 339 906 339 906 280 c 0,131,132
 906 216 906 216 892.5 166 c 128,-1,133
 879 116 879 116 858 72 c 1,134,-1
 1077 72 l 1,135,-1
 1077 0 l 1,136,-1
 770 0 l 1,137,-1
 766 63 l 1,138,139
 789 98 789 98 803.5 149.5 c 128,-1,140
 818 201 818 201 818 269 c 0,141,142
 818 340 818 340 793 390 c 128,-1,143
 768 440 768 440 722.5 466 c 128,-1,144
 677 492 677 492 615 492 c 0,145,146
 545 492 545 492 495 458.5 c 128,-1,147
 445 425 445 425 418 367.5 c 128,-1,148
 391 310 391 310 391 237 c 0,149,150
 391 170 391 170 406.5 130.5 c 128,-1,151
 422 91 422 91 449 73.5 c 128,-1,152
 476 56 476 56 508 56 c 0,153,154
 534 56 534 56 553.5 67.5 c 128,-1,155
 573 79 573 79 584 101 c 128,-1,156
 595 123 595 123 595 155 c 0,157,158
 595 205 595 205 569 231.5 c 128,-1,159
 543 258 543 258 501 258 c 0,160,161
 462 258 462 258 427 237 c 128,-1,162
 392 216 392 216 363 184 c 1,163,-1
 348 248 l 1,164,165
 378 283 378 283 422.5 305.5 c 128,-1,166
 467 328 467 328 516 328 c 0,167,168
 588 328 588 328 632.5 284 c 128,-1,169
 677 240 677 240 677 165 c 0,170,171
 677 110 677 110 656 70 c 128,-1,172
 635 30 635 30 596.5 9 c 128,-1,173
 558 -12 558 -12 504 -12 c 0,118,119
EndSplineSet
EndChar

StartChar: debitsigntamil
Encoding: 3062 3062 71
Width: 1027
Flags: W
LayerCount: 2
Fore
SplineSet
271 -321 m 0,0,1
 198 -321 198 -321 146 -302.5 c 128,-1,2
 94 -284 94 -284 66 -249.5 c 128,-1,3
 38 -215 38 -215 38 -167 c 0,4,5
 38 -145 38 -145 46 -129 c 128,-1,6
 54 -113 54 -113 69 -103 c 0,7,8
 83 -93 83 -93 102.5 -88.5 c 128,-1,9
 122 -84 122 -84 165 -84 c 2,10,-1
 853 -84 l 1,11,-1
 853 554 l 1,12,-1
 939 554 l 1,13,-1
 939 -156 l 1,14,-1
 603 -156 l 1,15,-1
 556 -156 l 1,16,-1
 159 -156 l 2,17,18
 142 -156 142 -156 131.5 -161 c 128,-1,19
 121 -166 121 -166 121 -180 c 0,20,21
 121 -199 121 -199 138.5 -215 c 128,-1,22
 156 -231 156 -231 190 -240 c 128,-1,23
 224 -249 224 -249 272 -249 c 0,24,25
 373 -249 373 -249 445.5 -219 c 128,-1,26
 518 -189 518 -189 557 -136 c 1,27,-1
 568 -102 l 1,28,29
 580 -78 580 -78 586 -50.5 c 128,-1,30
 592 -23 592 -23 592 8 c 2,31,-1
 592 137 l 1,32,-1
 678 168 l 1,33,-1
 678 23 l 2,34,35
 678 -9 678 -9 673.5 -39 c 128,-1,36
 669 -69 669 -69 659 -97 c 2,37,-1
 646 -137 l 1,38,39
 616 -193 616 -193 563.5 -234.5 c 128,-1,40
 511 -276 511 -276 438 -298.5 c 128,-1,41
 365 -321 365 -321 271 -321 c 0,0,1
615 0 m 1,42,-1
 88 0 l 1,43,-1
 88 554 l 1,44,-1
 174 554 l 1,45,-1
 174 72 l 1,46,-1
 616 72 l 1,47,-1
 615 0 l 1,42,-1
678 554 m 1,48,-1
 678 99 l 1,49,-1
 592 71 l 1,50,-1
 592 554 l 1,51,-1
 678 554 l 1,48,-1
EndSplineSet
EndChar

StartChar: creditsigntamil
Encoding: 3063 3063 72
Width: 1328
Flags: W
LayerCount: 2
Fore
SplineSet
249 -12 m 0,0,1
 196 -12 196 -12 152 14 c 128,-1,2
 108 40 108 40 82.5 95.5 c 128,-1,3
 57 151 57 151 57 239 c 0,4,5
 57 316 57 316 82 373 c 128,-1,6
 107 430 107 430 150 468 c 0,7,8
 182 497 182 497 223 516 c 128,-1,9
 264 535 264 535 320 544.5 c 128,-1,10
 376 554 376 554 451 554 c 2,11,-1
 508 554 l 1,12,-1
 508 482 l 1,13,-1
 439 482 l 2,14,15
 375 482 375 482 332 474.5 c 128,-1,16
 289 467 289 467 261.5 454 c 128,-1,17
 234 441 234 441 214 423 c 0,18,19
 176 389 176 389 156 341 c 128,-1,20
 136 293 136 293 136 232 c 0,21,22
 136 168 136 168 151.5 129 c 128,-1,23
 167 90 167 90 193.5 73 c 128,-1,24
 220 56 220 56 253 56 c 0,25,26
 280 56 280 56 299.5 67.5 c 128,-1,27
 319 79 319 79 329.5 101 c 128,-1,28
 340 123 340 123 340 155 c 0,29,30
 340 205 340 205 314 231.5 c 128,-1,31
 288 258 288 258 247 258 c 0,32,33
 207 258 207 258 172 237 c 128,-1,34
 137 216 137 216 108 184 c 1,35,-1
 93 248 l 1,36,37
 123 283 123 283 167.5 305.5 c 128,-1,38
 212 328 212 328 261 328 c 0,39,40
 333 328 333 328 377.5 284 c 128,-1,41
 422 240 422 240 422 165 c 0,42,43
 422 110 422 110 401 70 c 128,-1,44
 380 30 380 30 341.5 9 c 128,-1,45
 303 -12 303 -12 249 -12 c 0,0,1
528 0 m 1,46,-1
 528 482 l 1,47,-1
 492 482 l 1,48,-1
 494 554 l 1,49,-1
 784 554 l 1,50,-1
 784 482 l 1,51,-1
 614 482 l 1,52,-1
 614 0 l 1,53,-1
 528 0 l 1,46,-1
833 -3 m 0,54,55
 799 -3 799 -3 769.5 13 c 128,-1,56
 740 29 740 29 722 62 c 128,-1,57
 704 95 704 95 704 146 c 0,58,59
 704 161 704 161 705.5 175 c 128,-1,60
 707 189 707 189 709 201 c 0,61,62
 722 251 722 251 753.5 283.5 c 128,-1,63
 785 316 785 316 827.5 332 c 128,-1,64
 870 348 870 348 914 348 c 0,65,66
 979 348 979 348 1024 325.5 c 128,-1,67
 1069 303 1069 303 1092.5 264 c 128,-1,68
 1116 225 1116 225 1116 173 c 0,69,70
 1116 144 1116 144 1108.5 110.5 c 128,-1,71
 1101 77 1101 77 1083 50 c 1,72,-1
 1067 59 l 1,73,-1
 1311 59 l 1,74,-1
 1311 0 l 1,75,-1
 1006 0 l 1,76,-1
 1006 38 l 1,77,78
 1022 66 1022 66 1031.5 94 c 128,-1,79
 1041 122 1041 122 1041 162 c 0,80,81
 1041 200 1041 200 1026 228.5 c 128,-1,82
 1011 257 1011 257 983.5 272.5 c 128,-1,83
 956 288 956 288 916 288 c 0,84,85
 870 288 870 288 830 267 c 128,-1,86
 790 246 790 246 775 196 c 0,87,88
 772 185 772 185 770 172 c 128,-1,89
 768 159 768 159 768 144 c 0,90,91
 768 101 768 101 783 78.5 c 128,-1,92
 798 56 798 56 831 56 c 0,93,94
 852 56 852 56 867 67.5 c 128,-1,95
 882 79 882 79 882 104 c 0,96,97
 882 120 882 120 877 130.5 c 128,-1,98
 872 141 872 141 861 147 c 0,99,100
 851 153 851 153 836.5 155.5 c 128,-1,101
 822 158 822 158 797 158 c 2,102,-1
 611 158 l 1,103,-1
 605 214 l 1,104,-1
 806 214 l 2,105,106
 844 214 844 214 866.5 208 c 128,-1,107
 889 202 889 202 905 191 c 0,108,109
 926 178 926 178 935.5 157 c 128,-1,110
 945 136 945 136 945 107 c 0,111,112
 945 72 945 72 930 47 c 128,-1,113
 915 22 915 22 890 9.5 c 128,-1,114
 865 -3 865 -3 833 -3 c 0,54,55
EndSplineSet
EndChar

StartChar: asabovesigntamil
Encoding: 3064 3064 73
Width: 1965
Flags: W
LayerCount: 2
Fore
SplineSet
400 -12 m 0,0,1
 325 -12 325 -12 262.5 16.5 c 128,-1,2
 200 45 200 45 153.5 97.5 c 128,-1,3
 107 150 107 150 82 222.5 c 128,-1,4
 57 295 57 295 57 383 c 0,5,6
 57 494 57 494 93.5 580 c 128,-1,7
 130 666 130 666 194.5 724.5 c 128,-1,8
 259 783 259 783 344.5 813 c 128,-1,9
 430 843 430 843 528 843 c 0,10,11
 637 843 637 843 728 809 c 128,-1,12
 819 775 819 775 887 711.5 c 128,-1,13
 955 648 955 648 994 561 c 1,14,-1
 1015 502 l 2,15,16
 1030 459 1030 459 1037 413.5 c 128,-1,17
 1044 368 1044 368 1044 321 c 0,18,19
 1044 215 1044 215 997.5 153 c 128,-1,20
 951 91 951 91 855 91 c 0,21,22
 810 91 810 91 769.5 110 c 128,-1,23
 729 129 729 129 703 172 c 128,-1,24
 677 215 677 215 677 285 c 0,25,26
 677 342 677 342 694.5 388 c 128,-1,27
 712 434 712 434 743.5 468.5 c 128,-1,28
 775 503 775 503 816 526 c 128,-1,29
 857 549 857 549 903 559 c 0,30,31
 923 562 923 562 942.5 564 c 128,-1,32
 962 566 962 566 981 566 c 0,33,34
 1084 566 1084 566 1148 527.5 c 128,-1,35
 1212 489 1212 489 1241.5 424 c 128,-1,36
 1271 359 1271 359 1271 280 c 0,37,38
 1271 216 1271 216 1257 166 c 128,-1,39
 1243 116 1243 116 1223 72 c 1,40,-1
 1496 72 l 1,41,-1
 1478 0 l 1,42,-1
 1135 0 l 1,43,-1
 1131 63 l 1,44,45
 1154 98 1154 98 1168.5 149.5 c 128,-1,46
 1183 201 1183 201 1183 269 c 256,47,48
 1183 337 1183 337 1161.5 385.5 c 128,-1,49
 1140 434 1140 434 1101.5 462.5 c 128,-1,50
 1063 491 1063 491 1010 497 c 1,51,-1
 934 495 l 1,52,53
 880 487 880 487 841.5 458.5 c 128,-1,54
 803 430 803 430 783 385 c 128,-1,55
 763 340 763 340 763 282 c 0,56,57
 763 218 763 218 788 188.5 c 128,-1,58
 813 159 813 159 855 159 c 0,59,60
 891 159 891 159 913.5 179 c 128,-1,61
 936 199 936 199 947 235.5 c 128,-1,62
 958 272 958 272 958 321 c 0,63,64
 958 369 958 369 948.5 415.5 c 128,-1,65
 939 462 939 462 923 499 c 2,66,-1
 900 551 l 1,67,68
 864 613 864 613 813.5 662 c 128,-1,69
 763 711 763 711 691 739.5 c 128,-1,70
 619 768 619 768 520 768 c 0,71,72
 450 768 450 768 383.5 745 c 128,-1,73
 317 722 317 722 263.5 673.5 c 128,-1,74
 210 625 210 625 178 551 c 128,-1,75
 146 477 146 477 146 375 c 0,76,77
 146 320 146 320 157 273.5 c 128,-1,78
 168 227 168 227 188 190 c 128,-1,79
 208 153 208 153 236 126 c 128,-1,80
 264 99 264 99 297 82 c 1,81,-1
 361 62 l 2,82,83
 373 60 373 60 385.5 59 c 128,-1,84
 398 58 398 58 411 58 c 0,85,86
 462 58 462 58 492.5 86.5 c 128,-1,87
 523 115 523 115 523 173 c 0,88,89
 523 217 523 217 498.5 247 c 128,-1,90
 474 277 474 277 430 277 c 0,91,92
 387 277 387 277 361 249 c 128,-1,93
 335 221 335 221 335 171 c 0,94,95
 335 139 335 139 344.5 108.5 c 128,-1,96
 354 78 354 78 374 55 c 1,97,-1
 295 62 l 1,98,99
 278 91 278 91 267.5 120 c 128,-1,100
 257 149 257 149 257 192 c 0,101,102
 257 234 257 234 276.5 269.5 c 128,-1,103
 296 305 296 305 335 327 c 128,-1,104
 374 349 374 349 432 349 c 0,105,106
 481 349 481 349 519 328.5 c 128,-1,107
 557 308 557 308 579.5 268.5 c 128,-1,108
 602 229 602 229 602 173 c 0,109,110
 602 108 602 108 574.5 67 c 128,-1,111
 547 26 547 26 501.5 7 c 128,-1,112
 456 -12 456 -12 400 -12 c 0,0,1
1529 566 m 0,113,114
 1572 566 1572 566 1602.5 553.5 c 128,-1,115
 1633 541 1633 541 1652 518.5 c 128,-1,116
 1671 496 1671 496 1680 467 c 128,-1,117
 1689 438 1689 438 1689 406 c 0,118,119
 1689 368 1689 368 1682.5 327 c 128,-1,120
 1676 286 1676 286 1664 239 c 2,121,-1
 1652 191 l 1,122,-1
 1532 -284 l 1,123,-1
 1453 -262 l 1,124,-1
 1521 8 l 1,125,-1
 1535 64 l 1,126,-1
 1577 230 l 2,127,128
 1590 283 1590 283 1596 324.5 c 128,-1,129
 1602 366 1602 366 1602 403 c 0,130,131
 1602 447 1602 447 1583 470.5 c 128,-1,132
 1564 494 1564 494 1529 494 c 0,133,134
 1488 494 1488 494 1463 466 c 128,-1,135
 1438 438 1438 438 1438 382 c 0,136,137
 1438 337 1438 337 1459 308 c 128,-1,138
 1480 279 1480 279 1517.5 265.5 c 128,-1,139
 1555 252 1555 252 1604 252 c 2,140,-1
 1621 252 l 2,141,142
 1691 252 1691 252 1736 277.5 c 128,-1,143
 1781 303 1781 303 1808 328 c 1,144,-1
 1889 328 l 1,145,-1
 1889 0 l 1,146,-1
 1400 0 l 1,147,-1
 1418 72 l 1,148,-1
 1808 72 l 1,149,-1
 1808 153 l 2,150,151
 1808 176 1808 176 1809 201 c 128,-1,152
 1810 226 1810 226 1812 247 c 1,153,154
 1783 222 1783 222 1734 202 c 128,-1,155
 1685 182 1685 182 1619 182 c 2,156,-1
 1604 182 l 2,157,158
 1550 182 1550 182 1505 194 c 128,-1,159
 1460 206 1460 206 1426 231 c 128,-1,160
 1392 256 1392 256 1373.5 294 c 128,-1,161
 1355 332 1355 332 1355 384 c 0,162,163
 1355 435 1355 435 1375.5 476 c 128,-1,164
 1396 517 1396 517 1435 541.5 c 128,-1,165
 1474 566 1474 566 1529 566 c 0,113,114
EndSplineSet
EndChar

StartChar: rupeesigntamil
Encoding: 3065 3065 74
Width: 1050
Flags: W
LayerCount: 2
Fore
SplineSet
820 299 m 0,0,1
 874 299 874 299 915 271.5 c 128,-1,2
 956 244 956 244 979 192 c 128,-1,3
 1002 140 1002 140 1002 68 c 0,4,5
 1002 -36 1002 -36 966 -110 c 128,-1,6
 930 -184 930 -184 868 -230.5 c 128,-1,7
 806 -277 806 -277 726 -299 c 128,-1,8
 646 -321 646 -321 559 -321 c 2,9,-1
 539 -321 l 2,10,11
 414 -321 414 -321 324.5 -280.5 c 128,-1,12
 235 -240 235 -240 178.5 -170 c 128,-1,13
 122 -100 122 -100 95 -11.5 c 128,-1,14
 68 77 68 77 68 174 c 2,15,-1
 68 199 l 2,16,17
 68 294 68 294 91 380.5 c 128,-1,18
 114 467 114 467 157 538.5 c 128,-1,19
 200 610 200 610 260 661 c 128,-1,20
 320 712 320 712 393 735 c 1,21,-1
 383 660 l 1,22,23
 317 626 317 626 265 556 c 128,-1,24
 213 486 213 486 183.5 393.5 c 128,-1,25
 154 301 154 301 154 197 c 2,26,-1
 154 176 l 2,27,28
 154 89 154 89 176.5 13 c 128,-1,29
 199 -63 199 -63 246.5 -120.5 c 128,-1,30
 294 -178 294 -178 368.5 -211 c 128,-1,31
 443 -244 443 -244 546 -244 c 2,32,-1
 557 -244 l 2,33,34
 666 -244 666 -244 746 -210.5 c 128,-1,35
 826 -177 826 -177 870 -107 c 128,-1,36
 914 -37 914 -37 914 71 c 0,37,38
 914 148 914 148 886 187.5 c 128,-1,39
 858 227 858 227 805 227 c 0,40,41
 775 227 775 227 749 215 c 128,-1,42
 723 203 723 203 703 189 c 1,43,-1
 704 261 l 1,44,45
 723 275 723 275 752 287 c 128,-1,46
 781 299 781 299 820 299 c 0,0,1
361 0 m 1,47,-1
 361 515 l 1,48,-1
 883 515 l 1,49,-1
 883 443 l 1,50,-1
 708 443 l 1,51,-1
 708 0 l 1,52,-1
 622 0 l 1,53,-1
 622 443 l 1,54,-1
 447 443 l 1,55,-1
 447 0 l 1,56,-1
 361 0 l 1,47,-1
499 551 m 0,57,58
 458 551 458 551 431 568 c 128,-1,59
 404 585 404 585 391.5 615.5 c 128,-1,60
 379 646 379 646 379 686 c 0,61,62
 381 727 381 727 400.5 756.5 c 128,-1,63
 420 786 420 786 449.5 805.5 c 128,-1,64
 479 825 479 825 513.5 834 c 128,-1,65
 548 843 548 843 579 843 c 0,66,67
 680 843 680 843 727 803.5 c 128,-1,68
 774 764 774 764 774 702 c 0,69,70
 774 676 774 676 767.5 651 c 128,-1,71
 761 626 761 626 744 604 c 1,72,-1
 725 615 l 1,73,-1
 881 615 l 1,74,-1
 881 558 l 1,75,-1
 667 558 l 1,76,-1
 667 588 l 1,77,78
 683 610 683 610 693 632.5 c 128,-1,79
 703 655 703 655 703 686 c 0,80,81
 703 730 703 730 674.5 757 c 128,-1,82
 646 784 646 784 581 784 c 0,83,84
 535 784 535 784 503.5 769 c 128,-1,85
 472 754 472 754 453 733 c 1,86,-1
 443 705 l 2,87,88
 442 701 442 701 441 694 c 128,-1,89
 440 687 440 687 440 679 c 0,90,91
 440 642 440 642 454.5 625 c 128,-1,92
 469 608 469 608 497 608 c 0,93,94
 518 608 518 608 531.5 618 c 128,-1,95
 545 628 545 628 545 648 c 0,96,97
 545 669 545 669 530.5 681 c 128,-1,98
 516 693 516 693 490 693 c 0,99,100
 474 693 474 693 458.5 690 c 128,-1,101
 443 687 443 687 428 682 c 1,102,-1
 446 740 l 1,103,104
 456 744 456 744 469.5 746 c 128,-1,105
 483 748 483 748 499 748 c 0,106,107
 536 748 536 748 560 734.5 c 128,-1,108
 584 721 584 721 596 699 c 128,-1,109
 608 677 608 677 608 652 c 0,110,111
 608 619 608 619 594 596.5 c 128,-1,112
 580 574 580 574 555.5 562.5 c 128,-1,113
 531 551 531 551 499 551 c 0,57,58
EndSplineSet
EndChar

StartChar: numsigntamil
Encoding: 3066 3066 75
Width: 1214
Flags: W
LayerCount: 2
Fore
SplineSet
557 362 m 0,0,1
 608 362 608 362 649.5 336 c 128,-1,2
 691 310 691 310 716 259.5 c 128,-1,3
 741 209 741 209 741 134 c 0,4,5
 741 44 741 44 715 -8 c 128,-1,6
 689 -60 689 -60 642 -94 c 0,7,8
 610 -117 610 -117 568.5 -131 c 128,-1,9
 527 -145 527 -145 473 -150.5 c 128,-1,10
 419 -156 419 -156 347 -156 c 2,11,-1
 272 -156 l 2,12,13
 230 -156 230 -156 207 -162 c 128,-1,14
 184 -168 184 -168 167 -179 c 0,15,16
 151 -190 151 -190 142 -210 c 128,-1,17
 133 -230 133 -230 133 -263 c 0,18,19
 133 -278 133 -278 134 -291.5 c 128,-1,20
 135 -305 135 -305 136 -317 c 1,21,-1
 54 -321 l 1,22,23
 51 -303 51 -303 49 -281.5 c 128,-1,24
 47 -260 47 -260 47 -243 c 0,25,26
 47 -199 47 -199 63 -168.5 c 128,-1,27
 79 -138 79 -138 104 -119 c 0,28,29
 122 -106 122 -106 141.5 -98.5 c 128,-1,30
 161 -91 161 -91 186.5 -87.5 c 128,-1,31
 212 -84 212 -84 245 -84 c 2,32,-1
 338 -84 l 2,33,34
 420 -84 420 -84 471.5 -77 c 128,-1,35
 523 -70 523 -70 555 -54.5 c 128,-1,36
 587 -39 587 -39 610 -14 c 0,37,38
 630 8 630 8 642.5 43.5 c 128,-1,39
 655 79 655 79 655 131 c 256,40,41
 655 183 655 183 641.5 218 c 128,-1,42
 628 253 628 253 601.5 271 c 128,-1,43
 575 289 575 289 536 289 c 0,44,45
 508 289 508 289 479.5 276.5 c 128,-1,46
 451 264 451 264 430 247 c 1,47,-1
 427 322 l 1,48,49
 453 338 453 338 485 350 c 128,-1,50
 517 362 517 362 557 362 c 0,0,1
88 0 m 1,51,-1
 88 554 l 1,52,-1
 609 554 l 1,53,-1
 609 482 l 1,54,-1
 434 482 l 1,55,-1
 434 0 l 1,56,-1
 348 0 l 1,57,-1
 348 482 l 1,58,-1
 174 482 l 1,59,-1
 174 0 l 1,60,-1
 88 0 l 1,51,-1
799 494 m 0,61,62
 763 494 763 494 733.5 510 c 128,-1,63
 704 526 704 526 687 559 c 128,-1,64
 670 592 670 592 670 642 c 0,65,66
 670 653 670 653 670.5 663.5 c 128,-1,67
 671 674 671 674 673 684 c 0,68,69
 683 739 683 739 714.5 774 c 128,-1,70
 746 809 746 809 789.5 826 c 128,-1,71
 833 843 833 843 879 843 c 0,72,73
 944 843 944 843 989 821 c 128,-1,74
 1034 799 1034 799 1057.5 760 c 128,-1,75
 1081 721 1081 721 1081 669 c 0,76,77
 1081 640 1081 640 1074 608 c 128,-1,78
 1067 576 1067 576 1051 549 c 1,79,-1
 1023 554 l 1,80,-1
 1197 554 l 1,81,-1
 1197 496 l 1,82,-1
 972 496 l 1,83,-1
 972 534 l 1,84,85
 988 562 988 562 997 590 c 128,-1,86
 1006 618 1006 618 1006 658 c 0,87,88
 1006 696 1006 696 991 724.5 c 128,-1,89
 976 753 976 753 948.5 768.5 c 128,-1,90
 921 784 921 784 881 784 c 0,91,92
 835 784 835 784 794.5 762.5 c 128,-1,93
 754 741 754 741 739 690 c 0,94,95
 736 680 736 680 734.5 667 c 128,-1,96
 733 654 733 654 733 640 c 0,97,98
 733 597 733 597 748 575 c 128,-1,99
 763 553 763 553 796 553 c 0,100,101
 818 553 818 553 833 564 c 128,-1,102
 848 575 848 575 848 600 c 0,103,104
 848 616 848 616 843 626.5 c 128,-1,105
 838 637 838 637 827 643 c 0,106,107
 817 649 817 649 802 651.5 c 128,-1,108
 787 654 787 654 762 654 c 2,109,-1
 720 654 l 2,110,111
 682 654 682 654 657.5 641.5 c 128,-1,112
 633 629 633 629 621 605 c 128,-1,113
 609 581 609 581 609 548 c 2,114,-1
 609 537 l 1,115,-1
 543 554 l 1,116,117
 546 591 546 591 560 620 c 128,-1,118
 574 649 574 649 599 668.5 c 128,-1,119
 624 688 624 688 660 698.5 c 128,-1,120
 696 709 696 709 741 709 c 2,121,-1
 768 709 l 2,122,123
 812 709 812 709 836.5 702 c 128,-1,124
 861 695 861 695 879 680 c 0,125,126
 894 667 894 667 902 648 c 128,-1,127
 910 629 910 629 910 602 c 0,128,129
 910 568 910 568 895.5 544 c 128,-1,130
 881 520 881 520 856 507 c 128,-1,131
 831 494 831 494 799 494 c 0,61,62
EndSplineSet
EndChar

StartChar: tchatamil
Encoding: 1114113 -1 76
Width: 1851
GlyphClass: 3
Flags: W
LayerCount: 2
Fore
SplineSet
1415 566 m 0,0,1
 1458 566 1458 566 1488.5 553.5 c 128,-1,2
 1519 541 1519 541 1538 518.5 c 128,-1,3
 1557 496 1557 496 1566 467 c 128,-1,4
 1575 438 1575 438 1575 406 c 0,5,6
 1575 368 1575 368 1568.5 327 c 128,-1,7
 1562 286 1562 286 1550 239 c 2,8,-1
 1538 191 l 1,9,-1
 1418 -284 l 1,10,-1
 1339 -262 l 1,11,-1
 1407 8 l 1,12,-1
 1421 64 l 1,13,-1
 1463 230 l 2,14,15
 1476 283 1476 283 1482 324.5 c 128,-1,16
 1488 366 1488 366 1488 403 c 0,17,18
 1488 447 1488 447 1469 470.5 c 128,-1,19
 1450 494 1450 494 1415 494 c 0,20,21
 1374 494 1374 494 1349 466 c 128,-1,22
 1324 438 1324 438 1324 382 c 0,23,24
 1324 337 1324 337 1345 308 c 128,-1,25
 1366 279 1366 279 1403.5 265.5 c 128,-1,26
 1441 252 1441 252 1490 252 c 2,27,-1
 1507 252 l 2,28,29
 1577 252 1577 252 1622 277.5 c 128,-1,30
 1667 303 1667 303 1694 328 c 1,31,-1
 1775 328 l 1,32,-1
 1775 0 l 1,33,-1
 1286 0 l 1,34,-1
 1304 72 l 1,35,-1
 1694 72 l 1,36,-1
 1694 153 l 2,37,38
 1694 176 1694 176 1695 201 c 128,-1,39
 1696 226 1696 226 1698 247 c 1,40,41
 1669 222 1669 222 1620 202 c 128,-1,42
 1571 182 1571 182 1505 182 c 2,43,-1
 1490 182 l 2,44,45
 1436 182 1436 182 1391 194 c 128,-1,46
 1346 206 1346 206 1312 231 c 128,-1,47
 1278 256 1278 256 1259.5 294 c 128,-1,48
 1241 332 1241 332 1241 384 c 0,49,50
 1241 435 1241 435 1261.5 476 c 128,-1,51
 1282 517 1282 517 1321 541.5 c 128,-1,52
 1360 566 1360 566 1415 566 c 0,0,1
261 -12 m 0,53,54
 201 -12 201 -12 153 7 c 128,-1,55
 105 26 105 26 77 63 c 128,-1,56
 49 100 49 100 49 152 c 0,57,58
 49 206 49 206 77.5 245.5 c 128,-1,59
 106 285 106 285 168 306.5 c 128,-1,60
 230 328 230 328 332 328 c 2,61,-1
 625 328 l 1,62,-1
 625 258 l 1,63,-1
 325 258 l 2,64,65
 274 258 274 258 238.5 252 c 128,-1,66
 203 246 203 246 178 232 c 0,67,68
 156 219 156 219 145.5 200.5 c 128,-1,69
 135 182 135 182 135 153 c 0,70,71
 135 107 135 107 173 83.5 c 128,-1,72
 211 60 211 60 269 60 c 0,73,74
 313 60 313 60 344.5 73.5 c 128,-1,75
 376 87 376 87 393.5 120.5 c 128,-1,76
 411 154 411 154 411 213 c 2,77,-1
 411 482 l 1,78,-1
 239 482 l 1,79,-1
 239 302 l 1,80,-1
 160 286 l 1,81,-1
 160 554 l 1,82,-1
 683 554 l 1,83,-1
 683 482 l 1,84,-1
 496 482 l 1,85,-1
 496 226 l 2,86,87
 496 159 496 159 484.5 121 c 128,-1,88
 473 83 473 83 452 57 c 0,89,90
 421 19 421 19 372.5 3.5 c 128,-1,91
 324 -12 324 -12 261 -12 c 0,53,54
801 -12 m 0,92,93
 760 -12 760 -12 724 7.5 c 128,-1,94
 688 27 688 27 665.5 70.5 c 128,-1,95
 643 114 643 114 643 185 c 0,96,97
 643 247 643 247 662.5 297.5 c 128,-1,98
 682 348 682 348 718.5 385 c 128,-1,99
 755 422 755 422 805.5 442 c 128,-1,100
 856 462 856 462 917 462 c 0,101,102
 981 462 981 462 1027.5 444 c 128,-1,103
 1074 426 1074 426 1104.5 394 c 128,-1,104
 1135 362 1135 362 1149.5 321 c 128,-1,105
 1164 280 1164 280 1164 234 c 0,106,107
 1164 185 1164 185 1151 142.5 c 128,-1,108
 1138 100 1138 100 1121 72 c 1,109,-1
 1325 72 l 1,110,-1
 1307 0 l 1,111,-1
 1036 0 l 1,112,-1
 1032 63 l 1,113,114
 1045 80 1045 80 1055 104 c 128,-1,115
 1065 128 1065 128 1071.5 157 c 128,-1,116
 1078 186 1078 186 1078 219 c 0,117,118
 1078 300 1078 300 1031.5 345 c 128,-1,119
 985 390 985 390 910 390 c 0,120,121
 855 390 855 390 814.5 370 c 128,-1,122
 774 350 774 350 745 302 c 1,123,-1
 738 280 l 2,124,125
 728 250 728 250 723 226 c 128,-1,126
 718 202 718 202 718 169 c 0,127,128
 718 108 718 108 745 82 c 128,-1,129
 772 56 772 56 809 56 c 0,130,131
 844 56 844 56 861 79.5 c 128,-1,132
 878 103 878 103 878 137 c 0,133,134
 878 182 878 182 858.5 208.5 c 128,-1,135
 839 235 839 235 805.5 246.5 c 128,-1,136
 772 258 772 258 730 258 c 2,137,-1
 593 258 l 1,138,-1
 593 328 l 1,139,-1
 694 328 l 2,140,141
 752 328 752 328 789 322.5 c 128,-1,142
 826 317 826 317 850.5 306.5 c 128,-1,143
 875 296 875 296 895 282 c 0,144,145
 924 261 924 261 941 227.5 c 128,-1,146
 958 194 958 194 958 150 c 0,147,148
 958 75 958 75 920.5 31.5 c 128,-1,149
 883 -12 883 -12 801 -12 c 0,92,93
EndSplineSet
Ligature2: "'akhn' Akhand in Tamil2 lookup 2 subtable" katamil viramatamil ssatamil
EndChar

StartChar: kauvowelsigntamil
Encoding: 1114139 -1 102
Width: 1062
GlyphClass: 2
Flags: W
AnchorPoint: "Anchor-2" 554 -59 basechar 0
AnchorPoint: "Anchor-1" 531 -29 basechar 0
AnchorPoint: "Anchor-0" 531 -29 basechar 0
LayerCount: 2
Fore
SplineSet
499 -12 m 0,0,1
 438 -12 438 -12 390 7 c 128,-1,2
 342 26 342 26 314 63 c 128,-1,3
 286 100 286 100 286 152 c 0,4,5
 286 206 286 206 314.5 245.5 c 128,-1,6
 343 285 343 285 405.5 306.5 c 128,-1,7
 468 328 468 328 569 328 c 2,8,-1
 694 328 l 2,9,10
 781 328 781 328 842 304 c 128,-1,11
 903 280 903 280 941 239 c 128,-1,12
 979 198 979 198 996.5 146.5 c 128,-1,13
 1014 95 1014 95 1014 40 c 0,14,15
 1014 -40 1014 -40 989.5 -100 c 128,-1,16
 965 -160 965 -160 922 -202.5 c 128,-1,17
 879 -245 879 -245 822 -271 c 128,-1,18
 765 -297 765 -297 699.5 -309 c 128,-1,19
 634 -321 634 -321 566 -321 c 2,20,-1
 537 -321 l 2,21,22
 431 -321 431 -321 352 -294.5 c 128,-1,23
 273 -268 273 -268 218.5 -222.5 c 128,-1,24
 164 -177 164 -177 131 -119 c 128,-1,25
 98 -61 98 -61 83 3 c 128,-1,26
 68 67 68 67 68 130 c 2,27,-1
 68 151 l 2,28,29
 68 233 68 233 88 305 c 128,-1,30
 108 377 108 377 140 439.5 c 128,-1,31
 172 502 172 502 207 554 c 1,32,-1
 280 510 l 1,33,34
 240 454 240 454 212 394.5 c 128,-1,35
 184 335 184 335 169 273.5 c 128,-1,36
 154 212 154 212 154 150 c 2,37,-1
 154 131 l 2,38,39
 154 56 154 56 176.5 -11.5 c 128,-1,40
 199 -79 199 -79 246 -131.5 c 128,-1,41
 293 -184 293 -184 368 -214 c 128,-1,42
 443 -244 443 -244 548 -244 c 2,43,-1
 560 -244 l 2,44,45
 645 -244 645 -244 712.5 -226 c 128,-1,46
 780 -208 780 -208 827.5 -172.5 c 128,-1,47
 875 -137 875 -137 900.5 -83.5 c 128,-1,48
 926 -30 926 -30 926 41 c 0,49,50
 926 116 926 116 895 164 c 128,-1,51
 864 212 864 212 809.5 235 c 128,-1,52
 755 258 755 258 686 258 c 2,53,-1
 562 258 l 2,54,55
 511 258 511 258 475.5 252 c 128,-1,56
 440 246 440 246 415 232 c 0,57,58
 393 219 393 219 382.5 200.5 c 128,-1,59
 372 182 372 182 372 153 c 0,60,61
 372 107 372 107 410 83.5 c 128,-1,62
 448 60 448 60 506 60 c 0,63,64
 550 60 550 60 581.5 73.5 c 128,-1,65
 613 87 613 87 630.5 120.5 c 128,-1,66
 648 154 648 154 648 213 c 2,67,-1
 648 482 l 1,68,-1
 476 482 l 1,69,-1
 476 302 l 1,70,-1
 397 286 l 1,71,-1
 397 554 l 1,72,-1
 920 554 l 1,73,-1
 920 482 l 1,74,-1
 733 482 l 1,75,-1
 733 226 l 2,76,77
 733 159 733 159 721.5 121 c 128,-1,78
 710 83 710 83 689 57 c 0,79,80
 658 19 658 19 609.5 3.5 c 128,-1,81
 561 -12 561 -12 499 -12 c 0,0,1
EndSplineSet
Ligature2: "'psts' Post Base Substitutions in Tamil2 lookup 4 subtable" katamil uvowelsigntamil
EndChar

StartChar: kauuvowelsigntamil
Encoding: 1114140 -1 103
Width: 1332
GlyphClass: 2
Flags: W
AnchorPoint: "Anchor-2" 666 -78 basechar 0
AnchorPoint: "Anchor-1" 666 -29 basechar 0
AnchorPoint: "Anchor-0" 666 -29 basechar 0
LayerCount: 2
Fore
SplineSet
801 -12 m 0,0,1
 760 -12 760 -12 724 7.5 c 128,-1,2
 688 27 688 27 665.5 70.5 c 128,-1,3
 643 114 643 114 643 185 c 0,4,5
 643 268 643 268 677.5 330 c 128,-1,6
 712 392 712 392 773.5 427 c 128,-1,7
 835 462 835 462 917 462 c 0,8,9
 981 462 981 462 1027.5 444 c 128,-1,10
 1074 426 1074 426 1104.5 394 c 128,-1,11
 1135 362 1135 362 1149.5 321 c 128,-1,12
 1164 280 1164 280 1164 234 c 0,13,14
 1164 185 1164 185 1151 142.5 c 128,-1,15
 1138 100 1138 100 1121 72 c 1,16,-1
 1315 72 l 1,17,-1
 1315 0 l 1,18,-1
 1036 0 l 1,19,-1
 1032 63 l 1,20,21
 1045 80 1045 80 1055 104 c 128,-1,22
 1065 128 1065 128 1071.5 157 c 128,-1,23
 1078 186 1078 186 1078 219 c 0,24,25
 1078 300 1078 300 1031.5 345 c 128,-1,26
 985 390 985 390 910 390 c 0,27,28
 855 390 855 390 814.5 370 c 128,-1,29
 774 350 774 350 745 302 c 1,30,-1
 738 280 l 2,31,32
 728 250 728 250 723 226 c 128,-1,33
 718 202 718 202 718 169 c 0,34,35
 718 108 718 108 745 82 c 128,-1,36
 772 56 772 56 809 56 c 0,37,38
 844 56 844 56 861 79.5 c 128,-1,39
 878 103 878 103 878 137 c 0,40,41
 878 182 878 182 858.5 208.5 c 128,-1,42
 839 235 839 235 805.5 246.5 c 128,-1,43
 772 258 772 258 730 258 c 2,44,-1
 593 258 l 1,45,-1
 593 328 l 1,46,-1
 694 328 l 2,47,48
 752 328 752 328 789 322.5 c 128,-1,49
 826 317 826 317 850.5 306.5 c 128,-1,50
 875 296 875 296 895 282 c 0,51,52
 924 261 924 261 941 227.5 c 128,-1,53
 958 194 958 194 958 150 c 0,54,55
 958 75 958 75 920.5 31.5 c 128,-1,56
 883 -12 883 -12 801 -12 c 0,0,1
261 -12 m 0,57,58
 201 -12 201 -12 153 7 c 128,-1,59
 105 26 105 26 77 63 c 128,-1,60
 49 100 49 100 49 152 c 0,61,62
 49 206 49 206 77.5 245.5 c 128,-1,63
 106 285 106 285 168 306.5 c 128,-1,64
 230 328 230 328 332 328 c 2,65,-1
 626 328 l 1,66,-1
 626 258 l 1,67,-1
 325 258 l 2,68,69
 274 258 274 258 238.5 252 c 128,-1,70
 203 246 203 246 178 232 c 0,71,72
 156 219 156 219 145.5 200.5 c 128,-1,73
 135 182 135 182 135 153 c 0,74,75
 135 107 135 107 173 83.5 c 128,-1,76
 211 60 211 60 269 60 c 0,77,78
 313 60 313 60 344.5 73.5 c 128,-1,79
 376 87 376 87 393.5 120.5 c 128,-1,80
 411 154 411 154 411 213 c 2,81,-1
 411 482 l 1,82,-1
 239 482 l 1,83,-1
 239 302 l 1,84,-1
 160 286 l 1,85,-1
 160 554 l 1,86,-1
 683 554 l 1,87,-1
 683 482 l 1,88,-1
 496 482 l 1,89,-1
 496 226 l 2,90,91
 496 159 496 159 484.5 121 c 128,-1,92
 473 83 473 83 452 57 c 0,93,94
 421 19 421 19 372.5 3.5 c 128,-1,95
 324 -12 324 -12 261 -12 c 0,57,58
EndSplineSet
Ligature2: "'psts' Post Base Substitutions in Tamil2 lookup 4 subtable" katamil uuvowelsigntamil
EndChar

StartChar: ngaiivowelsigntamil
Encoding: 1114141 -1 104
Width: 1044
GlyphClass: 2
Flags: W
AnchorPoint: "Anchor-2" 522 -78 basechar 0
AnchorPoint: "Anchor-1" 522 -29 basechar 0
AnchorPoint: "Anchor-0" 522 -29 basechar 0
LayerCount: 2
Fore
SplineSet
88 0 m 1,0,-1
 88 554 l 1,1,-1
 576 554 l 1,2,-1
 576 482 l 1,3,-1
 430 482 l 1,4,-1
 430 324 l 1,5,6
 450 336 450 336 482 349 c 128,-1,7
 514 362 514 362 558 362 c 0,8,9
 608 362 608 362 644 343 c 128,-1,10
 680 324 680 324 699 288 c 128,-1,11
 718 252 718 252 718 201 c 0,12,13
 718 165 718 165 708 132 c 128,-1,14
 698 99 698 99 682 72 c 1,15,-1
 904 72 l 1,16,-1
 904 0 l 1,17,-1
 344 0 l 1,18,-1
 344 72 l 1,19,-1
 595 72 l 1,20,21
 612 97 612 97 622 127.5 c 128,-1,22
 632 158 632 158 632 192 c 0,23,24
 632 245 632 245 607 267 c 128,-1,25
 582 289 582 289 543 289 c 0,26,27
 511 289 511 289 481.5 276 c 128,-1,28
 452 263 452 263 430 246 c 1,29,-1
 430 144 l 1,30,-1
 344 144 l 1,31,-1
 344 482 l 1,32,-1
 174 482 l 1,33,-1
 174 0 l 1,34,-1
 88 0 l 1,0,-1
870 0 m 1,35,-1
 870 554 l 1,36,-1
 956 554 l 1,37,-1
 956 0 l 1,38,-1
 870 0 l 1,35,-1
872 843 m 0,39,40
 957 843 957 843 1001.5 808.5 c 128,-1,41
 1046 774 1046 774 1046 718 c 0,42,43
 1046 655 1046 655 1007.5 624.5 c 128,-1,44
 969 594 969 594 915 594 c 0,45,46
 857 594 857 594 822 623.5 c 128,-1,47
 787 653 787 653 787 705 c 0,48,49
 787 728 787 728 796.5 759 c 128,-1,50
 806 790 806 790 833 818 c 1,51,-1
 884 796 l 1,52,53
 868 777 868 777 860.5 757.5 c 128,-1,54
 853 738 853 738 853 719 c 0,55,56
 853 697 853 697 861 683 c 128,-1,57
 869 669 869 669 883 662.5 c 128,-1,58
 897 656 897 656 915 656 c 0,59,60
 944 656 944 656 960 672 c 128,-1,61
 976 688 976 688 976 713 c 0,62,63
 976 748 976 748 948 764 c 128,-1,64
 920 780 920 780 876 780 c 0,65,66
 869 780 869 780 858.5 779.5 c 128,-1,67
 848 779 848 779 840 778 c 0,68,69
 764 770 764 770 728.5 727.5 c 128,-1,70
 693 685 693 685 693 626 c 0,71,72
 693 582 693 582 709 551.5 c 128,-1,73
 725 521 725 521 751 502.5 c 128,-1,74
 777 484 777 484 808 474 c 128,-1,75
 839 464 839 464 870 461 c 1,76,-1
 870 390 l 1,77,78
 818 395 818 395 771.5 411.5 c 128,-1,79
 725 428 725 428 690.5 457 c 128,-1,80
 656 486 656 486 636 527 c 128,-1,81
 616 568 616 568 616 623 c 0,82,83
 616 667 616 667 631 706.5 c 128,-1,84
 646 746 646 746 677.5 777 c 128,-1,85
 709 808 709 808 757.5 825.5 c 128,-1,86
 806 843 806 843 872 843 c 0,39,40
EndSplineSet
Ligature2: "'abvs' Above Base Substitutions in Tamil2 lookup 1 subtable" ngatamil iivowelsigntamil
EndChar

StartChar: ngauvowelsigntamil
Encoding: 1114142 -1 105
Width: 1044
GlyphClass: 2
Flags: W
AnchorPoint: "Anchor-2" 522 -78 basechar 0
AnchorPoint: "Anchor-1" 522 -29 basechar 0
AnchorPoint: "Anchor-0" 522 -29 basechar 0
LayerCount: 2
Fore
SplineSet
88 0 m 1,0,-1
 88 554 l 1,1,-1
 604 554 l 1,2,-1
 604 482 l 1,3,-1
 430 482 l 1,4,-1
 430 324 l 1,5,6
 450 336 450 336 482 349 c 128,-1,7
 514 362 514 362 558 362 c 0,8,9
 608 362 608 362 644 343 c 128,-1,10
 680 324 680 324 699 288 c 128,-1,11
 718 252 718 252 718 201 c 0,12,13
 718 165 718 165 708 132 c 128,-1,14
 698 99 698 99 682 72 c 1,15,-1
 892 72 l 1,16,-1
 892 0 l 1,17,-1
 344 0 l 1,18,-1
 344 72 l 1,19,-1
 595 72 l 1,20,21
 612 97 612 97 622 127.5 c 128,-1,22
 632 158 632 158 632 192 c 0,23,24
 632 245 632 245 607 267 c 128,-1,25
 582 289 582 289 543 289 c 0,26,27
 511 289 511 289 481.5 276 c 128,-1,28
 452 263 452 263 430 246 c 1,29,-1
 430 144 l 1,30,-1
 344 144 l 1,31,-1
 344 482 l 1,32,-1
 174 482 l 1,33,-1
 174 0 l 1,34,-1
 88 0 l 1,0,-1
870 -283 m 1,35,-1
 870 554 l 1,36,-1
 956 554 l 1,37,-1
 956 -283 l 1,38,-1
 870 -283 l 1,35,-1
EndSplineSet
Ligature2: "'psts' Post Base Substitutions in Tamil2 lookup 4 subtable" ngatamil uvowelsigntamil
EndChar

StartChar: ngauuvowelsigntamil
Encoding: 1114143 -1 106
Width: 1214
GlyphClass: 2
Flags: W
AnchorPoint: "Anchor-2" 607 -59 basechar 0
AnchorPoint: "Anchor-1" 607 -29 basechar 0
AnchorPoint: "Anchor-0" 607 -29 basechar 0
LayerCount: 2
Fore
SplineSet
1058 101 m 0,0,1
 1098 101 1098 101 1132.5 85 c 128,-1,2
 1167 69 1167 69 1188 35.5 c 128,-1,3
 1209 2 1209 2 1209 -49 c 0,4,5
 1209 -116 1209 -116 1177 -164 c 128,-1,6
 1145 -212 1145 -212 1083 -244 c 0,7,8
 1031 -271 1031 -271 958.5 -288 c 128,-1,9
 886 -305 886 -305 795 -313 c 128,-1,10
 704 -321 704 -321 596 -321 c 2,11,-1
 545 -321 l 2,12,13
 473 -321 473 -321 414.5 -318 c 128,-1,14
 356 -315 356 -315 309 -309 c 128,-1,15
 262 -303 262 -303 226.5 -294 c 128,-1,16
 191 -285 191 -285 165 -274 c 0,17,18
 120 -254 120 -254 101.5 -227.5 c 128,-1,19
 83 -201 83 -201 83 -168 c 0,20,21
 83 -140 83 -140 99.5 -115 c 128,-1,22
 116 -90 116 -90 154.5 -74 c 128,-1,23
 193 -58 193 -58 258 -58 c 0,24,25
 305 -58 305 -58 345 -64 c 128,-1,26
 385 -70 385 -70 419 -78 c 1,27,-1
 404 -150 l 1,28,29
 372 -142 372 -142 334.5 -135.5 c 128,-1,30
 297 -129 297 -129 262 -129 c 0,31,32
 210 -129 210 -129 189.5 -139.5 c 128,-1,33
 169 -150 169 -150 169 -170 c 0,34,35
 169 -184 169 -184 186 -198 c 128,-1,36
 203 -212 203 -212 247 -223.5 c 128,-1,37
 291 -235 291 -235 370 -241.5 c 128,-1,38
 449 -248 449 -248 572 -248 c 2,39,-1
 585 -248 l 2,40,41
 659 -248 659 -248 722.5 -244.5 c 128,-1,42
 786 -241 786 -241 839.5 -234 c 128,-1,43
 893 -227 893 -227 936.5 -216.5 c 128,-1,44
 980 -206 980 -206 1013 -192 c 0,45,46
 1069 -168 1069 -168 1097 -133 c 128,-1,47
 1125 -98 1125 -98 1125 -51 c 0,48,49
 1125 -7 1125 -7 1103 12 c 128,-1,50
 1081 31 1081 31 1042 31 c 0,51,52
 1014 31 1014 31 990.5 20 c 128,-1,53
 967 9 967 9 952 -4 c 1,54,-1
 951 69 l 1,55,56
 970 83 970 83 997 92 c 128,-1,57
 1024 101 1024 101 1058 101 c 0,0,1
88 0 m 1,58,-1
 88 554 l 1,59,-1
 604 554 l 1,60,-1
 604 482 l 1,61,-1
 430 482 l 1,62,-1
 430 324 l 1,63,64
 450 336 450 336 482 349 c 128,-1,65
 514 362 514 362 558 362 c 0,66,67
 608 362 608 362 644 343 c 128,-1,68
 680 324 680 324 699 288 c 128,-1,69
 718 252 718 252 718 201 c 0,70,71
 718 165 718 165 708 132 c 128,-1,72
 698 99 698 99 682 72 c 1,73,-1
 892 72 l 1,74,-1
 892 0 l 1,75,-1
 344 0 l 1,76,-1
 344 72 l 1,77,-1
 595 72 l 1,78,79
 612 97 612 97 622 127.5 c 128,-1,80
 632 158 632 158 632 192 c 0,81,82
 632 245 632 245 607 267 c 128,-1,83
 582 289 582 289 543 289 c 0,84,85
 511 289 511 289 481.5 276 c 128,-1,86
 452 263 452 263 430 246 c 1,87,-1
 430 144 l 1,88,-1
 344 144 l 1,89,-1
 344 482 l 1,90,-1
 174 482 l 1,91,-1
 174 0 l 1,92,-1
 88 0 l 1,58,-1
870 -148 m 1,93,-1
 870 554 l 1,94,-1
 956 554 l 1,95,-1
 956 -148 l 1,96,-1
 870 -148 l 1,93,-1
EndSplineSet
Ligature2: "'psts' Post Base Substitutions in Tamil2 lookup 4 subtable" ngatamil uuvowelsigntamil
EndChar

StartChar: cauvowelsigntamil
Encoding: 1114145 -1 108
Width: 867
GlyphClass: 2
Flags: W
AnchorPoint: "Anchor-2" 434 -78 basechar 0
AnchorPoint: "Anchor-1" 434 -29 basechar 0
AnchorPoint: "Anchor-0" 434 -29 basechar 0
LayerCount: 2
Fore
SplineSet
261 -12 m 0,0,1
 201 -12 201 -12 153 7 c 128,-1,2
 105 26 105 26 77 63 c 128,-1,3
 49 100 49 100 49 152 c 0,4,5
 49 206 49 206 77.5 245.5 c 128,-1,6
 106 285 106 285 168 306.5 c 128,-1,7
 230 328 230 328 332 328 c 2,8,-1
 843 328 l 1,9,-1
 843 258 l 1,10,-1
 325 258 l 2,11,12
 274 258 274 258 238.5 252 c 128,-1,13
 203 246 203 246 178 232 c 0,14,15
 156 219 156 219 145.5 200.5 c 128,-1,16
 135 182 135 182 135 153 c 0,17,18
 135 107 135 107 173 83.5 c 128,-1,19
 211 60 211 60 269 60 c 0,20,21
 313 60 313 60 344.5 73.5 c 128,-1,22
 376 87 376 87 393.5 120.5 c 128,-1,23
 411 154 411 154 411 213 c 2,24,-1
 411 482 l 1,25,-1
 239 482 l 1,26,-1
 239 302 l 1,27,-1
 160 286 l 1,28,-1
 160 554 l 1,29,-1
 683 554 l 1,30,-1
 683 482 l 1,31,-1
 496 482 l 1,32,-1
 496 226 l 2,33,34
 496 159 496 159 484.5 121 c 128,-1,35
 473 83 473 83 452 57 c 0,36,37
 421 19 421 19 372.5 3.5 c 128,-1,38
 324 -12 324 -12 261 -12 c 0,0,1
632 0 m 1,39,-1
 632 275 l 1,40,-1
 715 267 l 1,41,-1
 715 0 l 1,42,-1
 632 0 l 1,39,-1
EndSplineSet
Ligature2: "'psts' Post Base Substitutions in Tamil2 lookup 4 subtable" catamil uvowelsigntamil
EndChar

StartChar: cauuvowelsigntamil
Encoding: 1114146 -1 109
Width: 1195
GlyphClass: 2
Flags: W
AnchorPoint: "Anchor-2" 626 -59 basechar 0
AnchorPoint: "Anchor-1" 597 -29 basechar 0
AnchorPoint: "Anchor-0" 597 -29 basechar 0
LayerCount: 2
Fore
SplineSet
1034 174 m 0,0,1
 1074 174 1074 174 1106.5 154.5 c 128,-1,2
 1139 135 1139 135 1158.5 97.5 c 128,-1,3
 1178 60 1178 60 1178 5 c 0,4,5
 1178 -65 1178 -65 1149.5 -118.5 c 128,-1,6
 1121 -172 1121 -172 1070.5 -210.5 c 128,-1,7
 1020 -249 1020 -249 953 -273.5 c 128,-1,8
 886 -298 886 -298 808 -309.5 c 128,-1,9
 730 -321 730 -321 647 -321 c 2,10,-1
 625 -321 l 2,11,12
 475 -321 475 -321 373 -285 c 128,-1,13
 271 -249 271 -249 206 -191 c 0,14,15
 131 -124 131 -124 99.5 -37 c 128,-1,16
 68 50 68 50 68 135 c 2,17,-1
 68 160 l 2,18,19
 68 242 68 242 88 312 c 128,-1,20
 108 382 108 382 140 442 c 128,-1,21
 172 502 172 502 206 554 c 1,22,-1
 280 510 l 1,23,24
 240 455 240 455 212 397 c 128,-1,25
 184 339 184 339 169 280 c 128,-1,26
 154 221 154 221 154 160 c 2,27,-1
 154 141 l 2,28,29
 154 63 154 63 179.5 -6.5 c 128,-1,30
 205 -76 205 -76 261 -129.5 c 128,-1,31
 317 -183 317 -183 408 -213.5 c 128,-1,32
 499 -244 499 -244 629 -244 c 2,33,-1
 644 -244 l 2,34,35
 724 -244 724 -244 792.5 -234 c 128,-1,36
 861 -224 861 -224 916 -204 c 128,-1,37
 971 -184 971 -184 1010 -154 c 128,-1,38
 1049 -124 1049 -124 1069.5 -84.5 c 128,-1,39
 1090 -45 1090 -45 1090 5 c 0,40,41
 1090 52 1090 52 1067 80 c 128,-1,42
 1044 108 1044 108 1006 108 c 0,43,44
 985 108 985 108 966.5 100 c 128,-1,45
 948 92 948 92 932 81 c 1,46,-1
 932 144 l 1,47,48
 950 156 950 156 976 165 c 128,-1,49
 1002 174 1002 174 1034 174 c 0,0,1
498 -12 m 0,50,51
 438 -12 438 -12 390 7 c 128,-1,52
 342 26 342 26 314 63 c 128,-1,53
 286 100 286 100 286 152 c 0,54,55
 286 206 286 206 314.5 245.5 c 128,-1,56
 343 285 343 285 405.5 306.5 c 128,-1,57
 468 328 468 328 569 328 c 2,58,-1
 1081 328 l 1,59,-1
 1081 258 l 1,60,-1
 562 258 l 2,61,62
 511 258 511 258 475.5 252 c 128,-1,63
 440 246 440 246 415 232 c 0,64,65
 393 219 393 219 382.5 200.5 c 128,-1,66
 372 182 372 182 372 153 c 0,67,68
 372 107 372 107 410.5 83.5 c 128,-1,69
 449 60 449 60 506 60 c 0,70,71
 550 60 550 60 581.5 73.5 c 128,-1,72
 613 87 613 87 630.5 120.5 c 128,-1,73
 648 154 648 154 648 213 c 2,74,-1
 648 482 l 1,75,-1
 476 482 l 1,76,-1
 476 302 l 1,77,-1
 397 286 l 1,78,-1
 397 554 l 1,79,-1
 920 554 l 1,80,-1
 920 482 l 1,81,-1
 733 482 l 1,82,-1
 733 226 l 2,83,84
 733 159 733 159 721.5 121 c 128,-1,85
 710 83 710 83 689 57 c 0,86,87
 658 19 658 19 609.5 3.5 c 128,-1,88
 561 -12 561 -12 498 -12 c 0,50,51
869 0 m 1,89,-1
 869 275 l 1,90,-1
 952 267 l 1,91,-1
 952 0 l 1,92,-1
 869 0 l 1,89,-1
EndSplineSet
Ligature2: "'psts' Post Base Substitutions in Tamil2 lookup 4 subtable" catamil uuvowelsigntamil
EndChar

StartChar: nyauvowelsigntamil
Encoding: 1114149 -1 112
Width: 1226
GlyphClass: 2
Flags: W
AnchorPoint: "Anchor-2" 833 -242 basechar 0
AnchorPoint: "Anchor-1" 613 -29 basechar 0
AnchorPoint: "Anchor-0" 613 -29 basechar 0
LayerCount: 2
Fore
SplineSet
1138 554 m 1,0,-1
 1138 -156 l 1,1,-1
 814 -156 l 1,2,-1
 729 -156 l 1,3,-1
 500 -156 l 1,4,-1
 500 -84 l 1,5,-1
 1052 -84 l 1,6,-1
 1052 554 l 1,7,-1
 1138 554 l 1,0,-1
726 319 m 0,8,9
 780 319 780 319 821 292 c 128,-1,10
 862 265 862 265 885 213.5 c 128,-1,11
 908 162 908 162 908 89 c 0,12,13
 908 37 908 37 896.5 -7.5 c 128,-1,14
 885 -52 885 -52 863 -90 c 2,15,-1
 826 -151 l 1,16,17
 775 -210 775 -210 698.5 -248 c 128,-1,18
 622 -286 622 -286 530.5 -303.5 c 128,-1,19
 439 -321 439 -321 342 -321 c 2,20,-1
 320 -321 l 2,21,22
 266 -321 266 -321 215.5 -312.5 c 128,-1,23
 165 -304 165 -304 125 -285.5 c 128,-1,24
 85 -267 85 -267 61.5 -237.5 c 128,-1,25
 38 -208 38 -208 38 -167 c 0,26,27
 38 -145 38 -145 46 -129 c 128,-1,28
 54 -113 54 -113 69 -103 c 0,29,30
 83 -93 83 -93 102.5 -88.5 c 128,-1,31
 122 -84 122 -84 165 -84 c 2,32,-1
 541 -84 l 1,33,-1
 534 -156 l 1,34,-1
 156 -156 l 2,35,36
 144 -156 144 -156 132.5 -159.5 c 128,-1,37
 121 -163 121 -163 121 -180 c 0,38,39
 121 -209 121 -209 173.5 -229 c 128,-1,40
 226 -249 226 -249 327 -249 c 2,41,-1
 343 -249 l 2,42,43
 425 -249 425 -249 492.5 -238.5 c 128,-1,44
 560 -228 560 -228 616 -206.5 c 128,-1,45
 672 -185 672 -185 717 -152 c 1,46,-1
 766 -90 l 2,47,48
 793 -54 793 -54 806.5 -8.5 c 128,-1,49
 820 37 820 37 820 93 c 0,50,51
 820 143 820 143 807 177 c 128,-1,52
 794 211 794 211 769.5 229 c 128,-1,53
 745 247 745 247 710 247 c 0,54,55
 680 247 680 247 654.5 234.5 c 128,-1,56
 629 222 629 222 608 207 c 1,57,-1
 609 281 l 1,58,59
 628 295 628 295 657.5 307 c 128,-1,60
 687 319 687 319 726 319 c 0,8,9
528 0 m 1,61,-1
 528 482 l 1,62,-1
 492 482 l 1,63,-1
 494 554 l 1,64,-1
 784 554 l 1,65,-1
 784 482 l 1,66,-1
 614 482 l 1,67,-1
 614 0 l 1,68,-1
 528 0 l 1,61,-1
249 -12 m 0,69,70
 196 -12 196 -12 152.5 14 c 128,-1,71
 109 40 109 40 83 95.5 c 128,-1,72
 57 151 57 151 57 239 c 0,73,74
 57 316 57 316 82 373 c 128,-1,75
 107 430 107 430 150 468 c 0,76,77
 182 497 182 497 223 516 c 128,-1,78
 264 535 264 535 320 544.5 c 128,-1,79
 376 554 376 554 451 554 c 2,80,-1
 508 554 l 1,81,-1
 508 482 l 1,82,-1
 439 482 l 2,83,84
 375 482 375 482 332 474.5 c 128,-1,85
 289 467 289 467 261.5 454 c 128,-1,86
 234 441 234 441 214 423 c 0,87,88
 176 389 176 389 156 341 c 128,-1,89
 136 293 136 293 136 232 c 0,90,91
 136 170 136 170 151 131 c 128,-1,92
 166 92 166 92 192.5 74 c 128,-1,93
 219 56 219 56 253 56 c 0,94,95
 279 56 279 56 298.5 67.5 c 128,-1,96
 318 79 318 79 329 101 c 128,-1,97
 340 123 340 123 340 155 c 0,98,99
 340 205 340 205 314 231.5 c 128,-1,100
 288 258 288 258 246 258 c 0,101,102
 207 258 207 258 172 237 c 128,-1,103
 137 216 137 216 108 184 c 1,104,-1
 93 248 l 1,105,106
 123 283 123 283 167.5 305.5 c 128,-1,107
 212 328 212 328 261 328 c 0,108,109
 333 328 333 328 377.5 284 c 128,-1,110
 422 240 422 240 422 165 c 0,111,112
 422 110 422 110 401 70 c 128,-1,113
 380 30 380 30 341.5 9 c 128,-1,114
 303 -12 303 -12 249 -12 c 0,69,70
EndSplineSet
Ligature2: "'psts' Post Base Substitutions in Tamil2 lookup 4 subtable" nyatamil uvowelsigntamil
EndChar

StartChar: nyauuvowelsigntamil
Encoding: 1114150 -1 113
Width: 1589
GlyphClass: 2
Flags: W
AnchorPoint: "Anchor-2" 833 -242 basechar 0
AnchorPoint: "Anchor-1" 794 -29 basechar 0
AnchorPoint: "Anchor-0" 794 -29 basechar 0
LayerCount: 2
Fore
SplineSet
249 -12 m 0,0,1
 196 -12 196 -12 152.5 14 c 128,-1,2
 109 40 109 40 83 95.5 c 128,-1,3
 57 151 57 151 57 239 c 0,4,5
 57 316 57 316 82 373 c 128,-1,6
 107 430 107 430 150 468 c 0,7,8
 182 497 182 497 223 516 c 128,-1,9
 264 535 264 535 320 544.5 c 128,-1,10
 376 554 376 554 451 554 c 2,11,-1
 508 554 l 1,12,-1
 508 482 l 1,13,-1
 439 482 l 2,14,15
 375 482 375 482 332 474.5 c 128,-1,16
 289 467 289 467 261.5 454 c 128,-1,17
 234 441 234 441 214 423 c 0,18,19
 176 389 176 389 156 341 c 128,-1,20
 136 293 136 293 136 232 c 0,21,22
 136 170 136 170 151 131 c 128,-1,23
 166 92 166 92 192.5 74 c 128,-1,24
 219 56 219 56 253 56 c 0,25,26
 279 56 279 56 298.5 67.5 c 128,-1,27
 318 79 318 79 329 101 c 128,-1,28
 340 123 340 123 340 155 c 0,29,30
 340 205 340 205 314 231.5 c 128,-1,31
 288 258 288 258 247 258 c 0,32,33
 207 258 207 258 172 237 c 128,-1,34
 137 216 137 216 108 184 c 1,35,-1
 93 248 l 1,36,37
 123 283 123 283 167.5 305.5 c 128,-1,38
 212 328 212 328 261 328 c 0,39,40
 333 328 333 328 377.5 285.5 c 128,-1,41
 422 243 422 243 422 165 c 0,42,43
 422 110 422 110 401 70 c 128,-1,44
 380 30 380 30 341.5 9 c 128,-1,45
 303 -12 303 -12 249 -12 c 0,0,1
528 0 m 1,46,-1
 528 482 l 1,47,-1
 492 482 l 1,48,-1
 494 554 l 1,49,-1
 784 554 l 1,50,-1
 784 482 l 1,51,-1
 614 482 l 1,52,-1
 614 0 l 1,53,-1
 528 0 l 1,46,-1
726 319 m 0,54,55
 780 319 780 319 821 292 c 128,-1,56
 862 265 862 265 885 213.5 c 128,-1,57
 908 162 908 162 908 89 c 0,58,59
 908 37 908 37 896.5 -7.5 c 128,-1,60
 885 -52 885 -52 863 -90 c 2,61,-1
 826 -151 l 1,62,63
 775 -210 775 -210 698.5 -248 c 128,-1,64
 622 -286 622 -286 530.5 -303.5 c 128,-1,65
 439 -321 439 -321 342 -321 c 2,66,-1
 320 -321 l 2,67,68
 266 -321 266 -321 215.5 -312.5 c 128,-1,69
 165 -304 165 -304 125 -285.5 c 128,-1,70
 85 -267 85 -267 61.5 -237.5 c 128,-1,71
 38 -208 38 -208 38 -167 c 0,72,73
 38 -145 38 -145 46 -129 c 128,-1,74
 54 -113 54 -113 69 -103 c 0,75,76
 83 -93 83 -93 102.5 -88.5 c 128,-1,77
 122 -84 122 -84 165 -84 c 2,78,-1
 541 -84 l 1,79,-1
 534 -156 l 1,80,-1
 156 -156 l 2,81,82
 144 -156 144 -156 132.5 -159.5 c 128,-1,83
 121 -163 121 -163 121 -180 c 0,84,85
 121 -209 121 -209 173.5 -229 c 128,-1,86
 226 -249 226 -249 327 -249 c 2,87,-1
 343 -249 l 2,88,89
 425 -249 425 -249 492.5 -238.5 c 128,-1,90
 560 -228 560 -228 616 -206.5 c 128,-1,91
 672 -185 672 -185 717 -152 c 1,92,-1
 766 -90 l 2,93,94
 793 -54 793 -54 806.5 -8.5 c 128,-1,95
 820 37 820 37 820 93 c 0,96,97
 820 143 820 143 807 177 c 128,-1,98
 794 211 794 211 769.5 229 c 128,-1,99
 745 247 745 247 710 247 c 0,100,101
 680 247 680 247 654 234.5 c 128,-1,102
 628 222 628 222 608 207 c 1,103,-1
 609 281 l 1,104,105
 628 295 628 295 657.5 307 c 128,-1,106
 687 319 687 319 726 319 c 0,54,55
1572 554 m 1,107,-1
 1572 481 l 1,108,-1
 1398 481 l 1,109,-1
 1398 -156 l 1,110,-1
 1312 -156 l 1,111,-1
 1312 481 l 1,112,-1
 1138 481 l 1,113,-1
 1138 -156 l 1,114,-1
 812 -156 l 1,115,-1
 729 -156 l 1,116,-1
 500 -156 l 1,117,-1
 500 -84 l 1,118,-1
 1052 -84 l 1,119,-1
 1052 554 l 1,120,-1
 1572 554 l 1,107,-1
EndSplineSet
Ligature2: "'psts' Post Base Substitutions in Tamil2 lookup 4 subtable" nyatamil uuvowelsigntamil
EndChar

StartChar: ttaivowelsigntamil
Encoding: 1114151 -1 114
Width: 797
GlyphClass: 2
Flags: W
AnchorPoint: "Anchor-2" 252 -78 basechar 0
AnchorPoint: "Anchor-1" 398 -29 basechar 0
AnchorPoint: "Anchor-0" 398 -29 basechar 0
LayerCount: 2
Fore
SplineSet
88 0 m 1,0,-1
 88 554 l 1,1,-1
 174 554 l 1,2,-1
 174 72 l 1,3,-1
 780 72 l 1,4,-1
 780 0 l 1,5,-1
 88 0 l 1,0,-1
489 471 m 0,6,7
 530 471 530 471 559.5 458 c 128,-1,8
 589 445 589 445 607.5 422.5 c 128,-1,9
 626 400 626 400 634.5 371 c 128,-1,10
 643 342 643 342 643 310 c 0,11,12
 643 265 643 265 634 218 c 128,-1,13
 625 171 625 171 612 124 c 2,14,-1
 498 -284 l 1,15,-1
 419 -262 l 1,16,-1
 497 10 l 1,17,-1
 500 26 l 1,18,-1
 519 94 l 2,19,20
 536 150 536 150 546 201 c 128,-1,21
 556 252 556 252 556 307 c 0,22,23
 556 351 556 351 538.5 375 c 128,-1,24
 521 399 521 399 488 399 c 0,25,26
 451 399 451 399 428.5 370 c 128,-1,27
 406 341 406 341 406 286 c 0,28,29
 406 238 406 238 423.5 196 c 128,-1,30
 441 154 441 154 469 119.5 c 128,-1,31
 497 85 497 85 528 56 c 1,32,-1
 456 19 l 1,33,34
 421 58 421 58 390.5 99.5 c 128,-1,35
 360 141 360 141 341.5 189 c 128,-1,36
 323 237 323 237 323 295 c 0,37,38
 323 345 323 345 342 384.5 c 128,-1,39
 361 424 361 424 398.5 447.5 c 128,-1,40
 436 471 436 471 489 471 c 0,6,7
EndSplineSet
Ligature2: "'psts' Post Base Substitutions in Tamil2 lookup 4 subtable" ttatamil ivowelsigntamil
EndChar

StartChar: ttaiivowelsigntamil
Encoding: 1114152 -1 115
Width: 797
GlyphClass: 2
Flags: W
AnchorPoint: "Anchor-2" 398 -78 basechar 0
AnchorPoint: "Anchor-1" 398 -29 basechar 0
AnchorPoint: "Anchor-0" 398 -29 basechar 0
LayerCount: 2
Fore
SplineSet
88 0 m 1,0,-1
 88 554 l 1,1,-1
 174 554 l 1,2,-1
 174 72 l 1,3,-1
 780 72 l 1,4,-1
 780 0 l 1,5,-1
 88 0 l 1,0,-1
550 471 m 0,6,7
 605 471 605 471 642.5 455 c 128,-1,8
 680 439 680 439 700 411 c 128,-1,9
 720 383 720 383 720 346 c 0,10,11
 720 283 720 283 682 251.5 c 128,-1,12
 644 220 644 220 589 220 c 0,13,14
 550 220 550 220 521.5 233.5 c 128,-1,15
 493 247 493 247 477 272.5 c 128,-1,16
 461 298 461 298 461 333 c 0,17,18
 461 356 461 356 470.5 387 c 128,-1,19
 480 418 480 418 507 446 c 1,20,-1
 558 424 l 1,21,22
 542 405 542 405 534.5 385.5 c 128,-1,23
 527 366 527 366 527 347 c 0,24,25
 527 325 527 325 535 311 c 128,-1,26
 543 297 543 297 557 290.5 c 128,-1,27
 571 284 571 284 589 284 c 0,28,29
 618 284 618 284 634 300 c 128,-1,30
 650 316 650 316 650 342 c 0,31,32
 650 377 650 377 622.5 392.5 c 128,-1,33
 595 408 595 408 552 408 c 0,34,35
 547 408 547 408 537.5 407.5 c 128,-1,36
 528 407 528 407 520 405 c 0,37,38
 473 399 473 399 442 376.5 c 128,-1,39
 411 354 411 354 396 319.5 c 128,-1,40
 381 285 381 285 381 242 c 0,41,42
 381 181 381 181 408 131.5 c 128,-1,43
 435 82 435 82 479 49 c 1,44,-1
 413 12 l 1,45,46
 378 41 378 41 352 76.5 c 128,-1,47
 326 112 326 112 312 153.5 c 128,-1,48
 298 195 298 195 298 241 c 256,49,50
 298 287 298 287 314.5 328.5 c 128,-1,51
 331 370 331 370 362.5 402 c 128,-1,52
 394 434 394 434 441.5 452.5 c 128,-1,53
 489 471 489 471 550 471 c 0,6,7
EndSplineSet
Ligature2: "'abvs' Above Base Substitutions in Tamil2 lookup 1 subtable" ttatamil iivowelsigntamil
EndChar

StartChar: ttauvowelsigntamil
Encoding: 1114153 -1 116
Width: 1015
GlyphClass: 2
Flags: W
AnchorPoint: "Anchor-2" 815 -181 basechar 0
AnchorPoint: "Anchor-1" 507 -29 basechar 0
LayerCount: 2
Fore
SplineSet
424 -297 m 0,0,1
 342 -297 342 -297 276.5 -263 c 128,-1,2
 211 -229 211 -229 165 -163.5 c 128,-1,3
 119 -98 119 -98 95 -3 c 128,-1,4
 71 92 71 92 71 214 c 2,5,-1
 71 242 l 2,6,7
 71 363 71 363 95 459.5 c 128,-1,8
 119 556 119 556 163.5 628 c 128,-1,9
 208 700 208 700 268.5 747.5 c 128,-1,10
 329 795 329 795 402 819 c 128,-1,11
 475 843 475 843 557 843 c 256,12,13
 639 843 639 843 699.5 822 c 128,-1,14
 760 801 760 801 804 763 c 0,15,16
 839 734 839 734 863 696.5 c 128,-1,17
 887 659 887 659 901 612 c 128,-1,18
 915 565 915 565 921.5 507 c 128,-1,19
 928 449 928 449 928 377 c 2,20,-1
 928 0 l 1,21,-1
 842 0 l 1,22,-1
 842 334 l 2,23,24
 842 418 842 418 834 491.5 c 128,-1,25
 826 565 826 565 802 623 c 128,-1,26
 778 681 778 681 730 717 c 0,27,28
 699 741 699 741 655.5 754.5 c 128,-1,29
 612 768 612 768 554 768 c 0,30,31
 494 768 494 768 436 749 c 128,-1,32
 378 730 378 730 328 690.5 c 128,-1,33
 278 651 278 651 239.5 587.5 c 128,-1,34
 201 524 201 524 179 435 c 128,-1,35
 157 346 157 346 157 229 c 256,36,37
 157 112 157 112 175 26.5 c 128,-1,38
 193 -59 193 -59 227.5 -114 c 128,-1,39
 262 -169 262 -169 311 -195.5 c 128,-1,40
 360 -222 360 -222 421 -222 c 0,41,42
 480 -222 480 -222 523 -204 c 128,-1,43
 566 -186 566 -186 593.5 -151 c 128,-1,44
 621 -116 621 -116 634.5 -65 c 128,-1,45
 648 -14 648 -14 648 53 c 0,46,47
 648 126 648 126 635 168.5 c 128,-1,48
 622 211 622 211 597.5 229 c 128,-1,49
 573 247 573 247 538 247 c 0,50,51
 508 247 508 247 482 234.5 c 128,-1,52
 456 222 456 222 436 207 c 1,53,-1
 437 281 l 1,54,55
 455 295 455 295 484.5 307 c 128,-1,56
 514 319 514 319 553 319 c 0,57,58
 607 319 607 319 648.5 292 c 128,-1,59
 690 265 690 265 713 208.5 c 128,-1,60
 736 152 736 152 736 62 c 0,61,62
 736 -39 736 -39 712.5 -108 c 128,-1,63
 689 -177 689 -177 646.5 -218.5 c 128,-1,64
 604 -260 604 -260 547.5 -278.5 c 128,-1,65
 491 -297 491 -297 424 -297 c 0,0,1
355 0 m 1,66,-1
 355 554 l 1,67,-1
 442 554 l 1,68,-1
 442 0 l 1,69,-1
 355 0 l 1,66,-1
EndSplineSet
Ligature2: "'psts' Post Base Substitutions in Tamil2 lookup 4 subtable" ttatamil uvowelsigntamil
EndChar

StartChar: ttauuvowelsigntamil
Encoding: 1114154 -1 117
Width: 902
GlyphClass: 2
Flags: W
AnchorPoint: "Anchor-2" 713 -242 basechar 0
AnchorPoint: "Anchor-1" 451 -29 basechar 0
LayerCount: 2
Fore
SplineSet
424 -297 m 0,0,1
 342 -297 342 -297 276.5 -263 c 128,-1,2
 211 -229 211 -229 165 -163.5 c 128,-1,3
 119 -98 119 -98 95 -3 c 128,-1,4
 71 92 71 92 71 214 c 2,5,-1
 71 242 l 2,6,7
 71 363 71 363 95.5 459 c 128,-1,8
 120 555 120 555 164.5 627 c 128,-1,9
 209 699 209 699 270.5 747 c 128,-1,10
 332 795 332 795 406 819 c 128,-1,11
 480 843 480 843 562 843 c 0,12,13
 649 843 649 843 711 821 c 128,-1,14
 773 799 773 799 813 760.5 c 128,-1,15
 853 722 853 722 872 672 c 128,-1,16
 891 622 891 622 891 566 c 0,17,18
 891 496 891 496 865.5 455 c 128,-1,19
 840 414 840 414 802 397 c 128,-1,20
 764 380 764 380 728 380 c 0,21,22
 679 380 679 380 643.5 399 c 128,-1,23
 608 418 608 418 589.5 450.5 c 128,-1,24
 571 483 571 483 571 524 c 0,25,26
 571 556 571 556 581.5 582.5 c 128,-1,27
 592 609 592 609 612 628.5 c 128,-1,28
 632 648 632 648 660 658.5 c 128,-1,29
 688 669 688 669 722 669 c 0,30,31
 760 669 760 669 792 652 c 128,-1,32
 824 635 824 635 847.5 610.5 c 128,-1,33
 871 586 871 586 883 562 c 1,34,-1
 860 506 l 1,35,36
 832 553 832 553 801 577.5 c 128,-1,37
 770 602 770 602 732 602 c 0,38,39
 698 602 698 602 675.5 582.5 c 128,-1,40
 653 563 653 563 653 524 c 0,41,42
 653 500 653 500 662.5 483 c 128,-1,43
 672 466 672 466 689.5 457 c 128,-1,44
 707 448 707 448 730 448 c 0,45,46
 772 448 772 448 792 483 c 128,-1,47
 812 518 812 518 812 569 c 0,48,49
 812 580 812 580 813.5 592 c 128,-1,50
 815 604 815 604 814 614 c 0,51,52
 801 662 801 662 769 696.5 c 128,-1,53
 737 731 737 731 685.5 749.5 c 128,-1,54
 634 768 634 768 562 768 c 0,55,56
 500 768 500 768 441 749 c 128,-1,57
 382 730 382 730 331 690.5 c 128,-1,58
 280 651 280 651 241 587.5 c 128,-1,59
 202 524 202 524 180 435 c 128,-1,60
 158 346 158 346 158 229 c 256,61,62
 158 112 158 112 176 26.5 c 128,-1,63
 194 -59 194 -59 228.5 -114 c 128,-1,64
 263 -169 263 -169 311.5 -195.5 c 128,-1,65
 360 -222 360 -222 421 -222 c 0,66,67
 480 -222 480 -222 523 -204 c 128,-1,68
 566 -186 566 -186 593.5 -151 c 128,-1,69
 621 -116 621 -116 634.5 -65 c 128,-1,70
 648 -14 648 -14 648 53 c 0,71,72
 648 126 648 126 635 168.5 c 128,-1,73
 622 211 622 211 597.5 229 c 128,-1,74
 573 247 573 247 538 247 c 0,75,76
 508 247 508 247 482 234.5 c 128,-1,77
 456 222 456 222 436 207 c 1,78,-1
 437 281 l 1,79,80
 455 295 455 295 484.5 307 c 128,-1,81
 514 319 514 319 553 319 c 0,82,83
 607 319 607 319 648.5 292 c 128,-1,84
 690 265 690 265 713 208.5 c 128,-1,85
 736 152 736 152 736 62 c 0,86,87
 736 -39 736 -39 712.5 -108 c 128,-1,88
 689 -177 689 -177 646.5 -218.5 c 128,-1,89
 604 -260 604 -260 547.5 -278.5 c 128,-1,90
 491 -297 491 -297 424 -297 c 0,0,1
355 0 m 1,91,-1
 355 554 l 1,92,-1
 442 554 l 1,93,-1
 442 0 l 1,94,-1
 355 0 l 1,91,-1
EndSplineSet
Ligature2: "'psts' Post Base Substitutions in Tamil2 lookup 4 subtable" ttatamil uuvowelsigntamil
EndChar

StartChar: nnauvowelsigntamil
Encoding: 1114156 -1 119
Width: 1841
GlyphClass: 2
Flags: W
AnchorPoint: "Anchor-2" 1321 -242 basechar 0
AnchorPoint: "Anchor-1" 920 -29 basechar 0
AnchorPoint: "Anchor-0" 920 -29 basechar 0
LayerCount: 2
Fore
SplineSet
249 -12 m 0,0,1
 196 -12 196 -12 152 14.5 c 128,-1,2
 108 41 108 41 82.5 97 c 128,-1,3
 57 153 57 153 57 243 c 0,4,5
 57 342 57 342 100.5 414.5 c 128,-1,6
 144 487 144 487 223 526.5 c 128,-1,7
 302 566 302 566 408 566 c 0,8,9
 455 566 455 566 498.5 558.5 c 128,-1,10
 542 551 542 551 582.5 535.5 c 128,-1,11
 623 520 623 520 662 495 c 1,12,-1
 703 459 l 2,13,14
 760 407 760 407 792.5 339.5 c 128,-1,15
 825 272 825 272 825 189 c 0,16,17
 825 122 825 122 805.5 77.5 c 128,-1,18
 786 33 786 33 749.5 10.5 c 128,-1,19
 713 -12 713 -12 663 -12 c 0,20,21
 605 -12 605 -12 568.5 14 c 128,-1,22
 532 40 532 40 514.5 84.5 c 128,-1,23
 497 129 497 129 497 186 c 0,24,25
 497 239 497 239 508 287 c 128,-1,26
 519 335 519 335 541 377 c 128,-1,27
 563 419 563 419 596 454 c 1,28,-1
 644 495 l 2,29,30
 691 530 691 530 746 548 c 128,-1,31
 801 566 801 566 866 566 c 0,32,33
 911 566 911 566 948.5 558.5 c 128,-1,34
 986 551 986 551 1019.5 535.5 c 128,-1,35
 1053 520 1053 520 1084 497 c 2,36,-1
 1118 468 l 2,37,38
 1159 432 1159 432 1186 388 c 128,-1,39
 1213 344 1213 344 1226.5 294 c 128,-1,40
 1240 244 1240 244 1240 189 c 0,41,42
 1240 122 1240 122 1220.5 77.5 c 128,-1,43
 1201 33 1201 33 1164.5 10.5 c 128,-1,44
 1128 -12 1128 -12 1077 -12 c 0,45,46
 1020 -12 1020 -12 983.5 14 c 128,-1,47
 947 40 947 40 929.5 84.5 c 128,-1,48
 912 129 912 129 912 186 c 0,49,50
 912 238 912 238 924 287 c 128,-1,51
 936 336 936 336 960 381 c 128,-1,52
 984 426 984 426 1021 465 c 2,53,-1
 1057 500 l 1,54,55
 1098 533 1098 533 1143.5 549.5 c 128,-1,56
 1189 566 1189 566 1242 566 c 0,57,58
 1329 566 1329 566 1389 527 c 128,-1,59
 1449 488 1449 488 1480 412 c 128,-1,60
 1511 336 1511 336 1511 226 c 0,61,62
 1511 129 1511 129 1485.5 50.5 c 128,-1,63
 1460 -28 1460 -28 1415 -90 c 2,64,-1
 1366 -153 l 1,65,66
 1312 -196 1312 -196 1250.5 -227.5 c 128,-1,67
 1189 -259 1189 -259 1107 -280 c 128,-1,68
 1025 -301 1025 -301 911 -311 c 128,-1,69
 797 -321 797 -321 637 -321 c 2,70,-1
 465 -321 l 2,71,72
 347 -321 347 -321 265 -312 c 128,-1,73
 183 -303 183 -303 133 -284.5 c 128,-1,74
 83 -266 83 -266 60.5 -236.5 c 128,-1,75
 38 -207 38 -207 38 -167 c 0,76,77
 38 -145 38 -145 46 -129 c 128,-1,78
 54 -113 54 -113 69 -103 c 0,79,80
 83 -93 83 -93 102 -88.5 c 128,-1,81
 121 -84 121 -84 164 -84 c 2,82,-1
 1688 -84 l 1,83,-1
 1696 -156 l 1,84,-1
 1354 -156 l 1,85,-1
 1239 -156 l 1,86,-1
 156 -156 l 2,87,88
 144 -156 144 -156 132.5 -159.5 c 128,-1,89
 121 -163 121 -163 121 -180 c 0,90,91
 121 -195 121 -195 139 -207.5 c 128,-1,92
 157 -220 157 -220 203 -229 c 128,-1,93
 249 -238 249 -238 330.5 -243 c 128,-1,94
 412 -248 412 -248 539 -248 c 2,95,-1
 593 -248 l 2,96,97
 725 -248 725 -248 824 -242.5 c 128,-1,98
 923 -237 923 -237 997.5 -225.5 c 128,-1,99
 1072 -214 1072 -214 1129.5 -196 c 128,-1,100
 1187 -178 1187 -178 1236 -154 c 1,101,-1
 1308 -89 l 1,102,103
 1345 -49 1345 -49 1370.5 -1 c 128,-1,104
 1396 47 1396 47 1409.5 103.5 c 128,-1,105
 1423 160 1423 160 1423 223 c 0,106,107
 1423 295 1423 295 1409 346.5 c 128,-1,108
 1395 398 1395 398 1369.5 430 c 128,-1,109
 1344 462 1344 462 1310.5 477 c 128,-1,110
 1277 492 1277 492 1238 492 c 0,111,112
 1208 492 1208 492 1175 483.5 c 128,-1,113
 1142 475 1142 475 1111 453 c 1,114,-1
 1071 417 l 1,115,116
 1045 387 1045 387 1028.5 351.5 c 128,-1,117
 1012 316 1012 316 1004 275.5 c 128,-1,118
 996 235 996 235 996 189 c 0,119,120
 996 120 996 120 1017.5 88 c 128,-1,121
 1039 56 1039 56 1074 56 c 0,122,123
 1106 56 1106 56 1123.5 75 c 128,-1,124
 1141 94 1141 94 1148 123 c 128,-1,125
 1155 152 1155 152 1155 182 c 0,126,127
 1155 239 1155 239 1140 288 c 128,-1,128
 1125 337 1125 337 1100.5 374 c 128,-1,129
 1076 411 1076 411 1047 432 c 0,130,131
 1005 466 1005 466 959.5 479.5 c 128,-1,132
 914 493 914 493 868 493 c 0,133,134
 812 493 812 493 764.5 479 c 128,-1,135
 717 465 717 465 672 429 c 0,136,137
 639 401 639 401 619 361.5 c 128,-1,138
 599 322 599 322 590 277.5 c 128,-1,139
 581 233 581 233 581 189 c 0,140,141
 581 120 581 120 602 88 c 128,-1,142
 623 56 623 56 660 56 c 0,143,144
 691 56 691 56 708.5 75 c 128,-1,145
 726 94 726 94 733 123 c 128,-1,146
 740 152 740 152 740 182 c 0,147,148
 740 262 740 262 709.5 325 c 128,-1,149
 679 388 679 388 621 433 c 0,150,151
 574 466 574 466 518 479 c 128,-1,152
 462 492 462 492 398 492 c 0,153,154
 324 492 324 492 269 465 c 128,-1,155
 214 438 214 438 181.5 391 c 128,-1,156
 149 344 149 344 139 283 c 0,157,158
 138 268 138 268 137 254.5 c 128,-1,159
 136 241 136 241 136 233 c 0,160,161
 136 168 136 168 151.5 129 c 128,-1,162
 167 90 167 90 193.5 73 c 128,-1,163
 220 56 220 56 253 56 c 0,164,165
 280 56 280 56 299.5 67.5 c 128,-1,166
 319 79 319 79 329.5 101 c 128,-1,167
 340 123 340 123 340 155 c 0,168,169
 340 205 340 205 314 231.5 c 128,-1,170
 288 258 288 258 247 258 c 0,171,172
 207 258 207 258 172 237 c 128,-1,173
 137 216 137 216 108 184 c 1,174,-1
 93 248 l 1,175,176
 123 283 123 283 167.5 305.5 c 128,-1,177
 212 328 212 328 261 328 c 0,178,179
 333 328 333 328 377.5 284 c 128,-1,180
 422 240 422 240 422 165 c 0,181,182
 422 110 422 110 401 70 c 128,-1,183
 380 30 380 30 341.5 9 c 128,-1,184
 303 -12 303 -12 249 -12 c 0,0,1
1667 -156 m 1,185,-1
 1667 554 l 1,186,-1
 1753 554 l 1,187,-1
 1753 -156 l 1,188,-1
 1667 -156 l 1,185,-1
EndSplineSet
Ligature2: "'psts' Post Base Substitutions in Tamil2 lookup 4 subtable" nnatamil uvowelsigntamil
EndChar

StartChar: nnauuvowelsigntamil
Encoding: 1114157 -1 120
Width: 2205
GlyphClass: 2
Flags: W
AnchorPoint: "Anchor-2" 1321 -242 basechar 0
AnchorPoint: "Anchor-1" 1102 -29 basechar 0
AnchorPoint: "Anchor-0" 1102 -29 basechar 0
LayerCount: 2
Fore
SplineSet
249 -12 m 0,0,1
 196 -12 196 -12 152 14.5 c 128,-1,2
 108 41 108 41 82.5 97 c 128,-1,3
 57 153 57 153 57 243 c 0,4,5
 57 342 57 342 100.5 414.5 c 128,-1,6
 144 487 144 487 223 526.5 c 128,-1,7
 302 566 302 566 408 566 c 0,8,9
 455 566 455 566 498.5 558.5 c 128,-1,10
 542 551 542 551 582.5 535.5 c 128,-1,11
 623 520 623 520 662 495 c 1,12,-1
 703 459 l 2,13,14
 760 407 760 407 792.5 339.5 c 128,-1,15
 825 272 825 272 825 189 c 0,16,17
 825 122 825 122 805.5 77.5 c 128,-1,18
 786 33 786 33 749.5 10.5 c 128,-1,19
 713 -12 713 -12 663 -12 c 0,20,21
 605 -12 605 -12 568.5 14 c 128,-1,22
 532 40 532 40 514.5 84.5 c 128,-1,23
 497 129 497 129 497 186 c 0,24,25
 497 239 497 239 508 287 c 128,-1,26
 519 335 519 335 541 377 c 128,-1,27
 563 419 563 419 596 454 c 1,28,-1
 644 495 l 2,29,30
 691 530 691 530 746 548 c 128,-1,31
 801 566 801 566 866 566 c 0,32,33
 911 566 911 566 948.5 558.5 c 128,-1,34
 986 551 986 551 1019.5 535.5 c 128,-1,35
 1053 520 1053 520 1084 497 c 2,36,-1
 1118 468 l 2,37,38
 1159 432 1159 432 1186 388 c 128,-1,39
 1213 344 1213 344 1226.5 294 c 128,-1,40
 1240 244 1240 244 1240 189 c 0,41,42
 1240 122 1240 122 1220.5 77.5 c 128,-1,43
 1201 33 1201 33 1164.5 10.5 c 128,-1,44
 1128 -12 1128 -12 1077 -12 c 0,45,46
 1020 -12 1020 -12 983.5 14 c 128,-1,47
 947 40 947 40 929.5 84.5 c 128,-1,48
 912 129 912 129 912 186 c 0,49,50
 912 238 912 238 924 287 c 128,-1,51
 936 336 936 336 960 381 c 128,-1,52
 984 426 984 426 1021 465 c 2,53,-1
 1057 500 l 1,54,55
 1098 533 1098 533 1143.5 549.5 c 128,-1,56
 1189 566 1189 566 1242 566 c 0,57,58
 1329 566 1329 566 1389 527 c 128,-1,59
 1449 488 1449 488 1480 412 c 128,-1,60
 1511 336 1511 336 1511 226 c 0,61,62
 1511 129 1511 129 1485.5 50.5 c 128,-1,63
 1460 -28 1460 -28 1415 -90 c 2,64,-1
 1366 -153 l 1,65,66
 1312 -196 1312 -196 1250.5 -227.5 c 128,-1,67
 1189 -259 1189 -259 1107 -280 c 128,-1,68
 1025 -301 1025 -301 911 -311 c 128,-1,69
 797 -321 797 -321 637 -321 c 2,70,-1
 465 -321 l 2,71,72
 347 -321 347 -321 265 -312 c 128,-1,73
 183 -303 183 -303 133 -284.5 c 128,-1,74
 83 -266 83 -266 60.5 -236.5 c 128,-1,75
 38 -207 38 -207 38 -167 c 0,76,77
 38 -145 38 -145 46 -129 c 128,-1,78
 54 -113 54 -113 69 -103 c 0,79,80
 83 -93 83 -93 102 -88.5 c 128,-1,81
 121 -84 121 -84 164 -84 c 2,82,-1
 1688 -84 l 1,83,-1
 1696 -156 l 1,84,-1
 1354 -156 l 1,85,-1
 1239 -156 l 1,86,-1
 156 -156 l 2,87,88
 144 -156 144 -156 132.5 -159.5 c 128,-1,89
 121 -163 121 -163 121 -180 c 0,90,91
 121 -195 121 -195 139 -207.5 c 128,-1,92
 157 -220 157 -220 203 -229 c 128,-1,93
 249 -238 249 -238 330.5 -243 c 128,-1,94
 412 -248 412 -248 539 -248 c 2,95,-1
 593 -248 l 2,96,97
 725 -248 725 -248 824 -242.5 c 128,-1,98
 923 -237 923 -237 997.5 -225.5 c 128,-1,99
 1072 -214 1072 -214 1129.5 -196 c 128,-1,100
 1187 -178 1187 -178 1236 -154 c 1,101,-1
 1308 -89 l 1,102,103
 1345 -49 1345 -49 1370.5 -1 c 128,-1,104
 1396 47 1396 47 1409.5 103.5 c 128,-1,105
 1423 160 1423 160 1423 223 c 0,106,107
 1423 295 1423 295 1409 346.5 c 128,-1,108
 1395 398 1395 398 1369.5 430 c 128,-1,109
 1344 462 1344 462 1310.5 477 c 128,-1,110
 1277 492 1277 492 1238 492 c 0,111,112
 1208 492 1208 492 1175 483.5 c 128,-1,113
 1142 475 1142 475 1111 453 c 1,114,-1
 1071 417 l 1,115,116
 1045 387 1045 387 1028.5 351.5 c 128,-1,117
 1012 316 1012 316 1004 275.5 c 128,-1,118
 996 235 996 235 996 189 c 0,119,120
 996 120 996 120 1017.5 88 c 128,-1,121
 1039 56 1039 56 1074 56 c 0,122,123
 1106 56 1106 56 1123.5 75 c 128,-1,124
 1141 94 1141 94 1148 123 c 128,-1,125
 1155 152 1155 152 1155 182 c 0,126,127
 1155 239 1155 239 1140 288 c 128,-1,128
 1125 337 1125 337 1100.5 374 c 128,-1,129
 1076 411 1076 411 1047 432 c 0,130,131
 1005 466 1005 466 959.5 479.5 c 128,-1,132
 914 493 914 493 868 493 c 0,133,134
 812 493 812 493 764.5 479 c 128,-1,135
 717 465 717 465 672 429 c 0,136,137
 639 401 639 401 619 361.5 c 128,-1,138
 599 322 599 322 590 277.5 c 128,-1,139
 581 233 581 233 581 189 c 0,140,141
 581 120 581 120 602 88 c 128,-1,142
 623 56 623 56 660 56 c 0,143,144
 691 56 691 56 708.5 75 c 128,-1,145
 726 94 726 94 733 123 c 128,-1,146
 740 152 740 152 740 182 c 0,147,148
 740 262 740 262 709.5 325 c 128,-1,149
 679 388 679 388 621 433 c 0,150,151
 574 466 574 466 518 479 c 128,-1,152
 462 492 462 492 398 492 c 0,153,154
 324 492 324 492 269 465 c 128,-1,155
 214 438 214 438 181.5 391 c 128,-1,156
 149 344 149 344 139 283 c 0,157,158
 138 268 138 268 137 254.5 c 128,-1,159
 136 241 136 241 136 233 c 0,160,161
 136 168 136 168 151.5 129 c 128,-1,162
 167 90 167 90 193.5 73 c 128,-1,163
 220 56 220 56 253 56 c 0,164,165
 280 56 280 56 299.5 67.5 c 128,-1,166
 319 79 319 79 329.5 101 c 128,-1,167
 340 123 340 123 340 155 c 0,168,169
 340 205 340 205 314 231.5 c 128,-1,170
 288 258 288 258 247 258 c 0,171,172
 207 258 207 258 172 237 c 128,-1,173
 137 216 137 216 108 184 c 1,174,-1
 93 248 l 1,175,176
 123 283 123 283 167.5 305.5 c 128,-1,177
 212 328 212 328 261 328 c 0,178,179
 333 328 333 328 377.5 284 c 128,-1,180
 422 240 422 240 422 165 c 0,181,182
 422 110 422 110 401 70 c 128,-1,183
 380 30 380 30 341.5 9 c 128,-1,184
 303 -12 303 -12 249 -12 c 0,0,1
1667 -156 m 1,185,-1
 1667 554 l 1,186,-1
 2188 554 l 1,187,-1
 2188 482 l 1,188,-1
 2014 482 l 1,189,-1
 2014 -156 l 1,190,-1
 1928 -156 l 1,191,-1
 1928 482 l 1,192,-1
 1753 482 l 1,193,-1
 1753 -156 l 1,194,-1
 1667 -156 l 1,185,-1
EndSplineSet
Ligature2: "'psts' Post Base Substitutions in Tamil2 lookup 4 subtable" nnatamil uuvowelsigntamil
EndChar

StartChar: tauvowelsigntamil
Encoding: 1114159 -1 122
Width: 1091
GlyphClass: 2
Flags: W
AnchorPoint: "Anchor-2" 736 -242 basechar 0
AnchorPoint: "Anchor-1" 545 -29 basechar 0
AnchorPoint: "Anchor-0" 545 -29 basechar 0
LayerCount: 2
Fore
SplineSet
261 -12 m 0,0,1
 201 -12 201 -12 153 7 c 128,-1,2
 105 26 105 26 77 63 c 128,-1,3
 49 100 49 100 49 153 c 256,4,5
 49 206 49 206 77.5 245.5 c 128,-1,6
 106 285 106 285 168 306.5 c 128,-1,7
 230 328 230 328 332 328 c 2,8,-1
 486 328 l 2,9,10
 553 328 553 328 606.5 310.5 c 128,-1,11
 660 293 660 293 698 258.5 c 128,-1,12
 736 224 736 224 756 173.5 c 128,-1,13
 776 123 776 123 776 58 c 0,14,15
 776 16 776 16 767 -21.5 c 128,-1,16
 758 -59 758 -59 742 -90 c 2,17,-1
 717 -151 l 1,18,19
 679 -206 679 -206 621 -244 c 128,-1,20
 563 -282 563 -282 486 -301.5 c 128,-1,21
 409 -321 409 -321 313 -321 c 2,22,-1
 300 -321 l 2,23,24
 230 -321 230 -321 170 -305.5 c 128,-1,25
 110 -290 110 -290 74 -256 c 128,-1,26
 38 -222 38 -222 38 -167 c 0,27,28
 38 -145 38 -145 46 -129 c 128,-1,29
 54 -113 54 -113 69 -103 c 0,30,31
 83 -93 83 -93 102 -88.5 c 128,-1,32
 121 -84 121 -84 164 -84 c 2,33,-1
 935 -84 l 1,34,-1
 935 -156 l 1,35,-1
 686 -156 l 1,36,-1
 620 -156 l 1,37,-1
 156 -156 l 2,38,39
 144 -156 144 -156 132.5 -159.5 c 128,-1,40
 121 -163 121 -163 121 -180 c 0,41,42
 121 -209 121 -209 164.5 -228.5 c 128,-1,43
 208 -248 208 -248 297 -248 c 2,44,-1
 310 -248 l 2,45,46
 383 -248 383 -248 440 -237 c 128,-1,47
 497 -226 497 -226 541 -204.5 c 128,-1,48
 585 -183 585 -183 617 -152 c 1,49,-1
 652 -90 l 2,50,51
 664 -69 664 -69 671.5 -46 c 128,-1,52
 679 -23 679 -23 683 2 c 128,-1,53
 687 27 687 27 687 55 c 0,54,55
 687 125 687 125 661 170 c 128,-1,56
 635 215 635 215 586.5 236.5 c 128,-1,57
 538 258 538 258 472 258 c 2,58,-1
 325 258 l 2,59,60
 274 258 274 258 238.5 252 c 128,-1,61
 203 246 203 246 178 232 c 0,62,63
 156 219 156 219 145.5 200.5 c 128,-1,64
 135 182 135 182 135 153 c 0,65,66
 135 107 135 107 173 83.5 c 128,-1,67
 211 60 211 60 269 60 c 0,68,69
 313 60 313 60 344.5 73.5 c 128,-1,70
 376 87 376 87 393.5 120.5 c 128,-1,71
 411 154 411 154 411 213 c 2,72,-1
 411 482 l 1,73,-1
 239 482 l 1,74,-1
 239 302 l 1,75,-1
 160 286 l 1,76,-1
 160 554 l 1,77,-1
 683 554 l 1,78,-1
 683 482 l 1,79,-1
 496 482 l 1,80,-1
 496 226 l 2,81,82
 496 159 496 159 484.5 121 c 128,-1,83
 473 83 473 83 452 57 c 0,84,85
 421 19 421 19 372.5 3.5 c 128,-1,86
 324 -12 324 -12 261 -12 c 0,0,1
917 -156 m 1,87,-1
 917 554 l 1,88,-1
 1003 554 l 1,89,-1
 1003 -156 l 1,90,-1
 917 -156 l 1,87,-1
EndSplineSet
Ligature2: "'psts' Post Base Substitutions in Tamil2 lookup 4 subtable" tatamil uvowelsigntamil
EndChar

